<?xml version="1.0" encoding="UTF-8" standalone="no"?>
<!-- Created with Inkscape (http://www.inkscape.org/) -->

<svg
   width="116.48912mm"
   height="154.32452mm"
   viewBox="0 0 116.48912 154.32452"
   version="1.1"
   id="svg1"
   xml:space="preserve"
   inkscape:version="1.3.2 (091e20e, 2023-11-25, custom)"
   sodipodi:docname="maciej_rsvp.svg"
   inkscape:export-filename="..\..\Documents\01-MOJE_PLIKI\Ślub\graphic\meandyou_weeding_graphic_background.png"
   inkscape:export-xdpi="96"
   inkscape:export-ydpi="96"
   xmlns:inkscape="http://www.inkscape.org/namespaces/inkscape"
   xmlns:sodipodi="http://sodipodi.sourceforge.net/DTD/sodipodi-0.dtd"
   xmlns="http://www.w3.org/2000/svg"
   xmlns:svg="http://www.w3.org/2000/svg"><sodipodi:namedview
     id="namedview1"
     pagecolor="#ffffff"
     bordercolor="#000000"
     borderopacity="0.25"
     inkscape:showpageshadow="2"
     inkscape:pageopacity="0.0"
     inkscape:pagecheckerboard="0"
     inkscape:deskcolor="#d1d1d1"
     inkscape:document-units="mm"
     showguides="true"
     inkscape:zoom="0.70710678"
     inkscape:cx="622.96107"
     inkscape:cy="519.72348"
     inkscape:window-width="1920"
     inkscape:window-height="991"
     inkscape:window-x="1699"
     inkscape:window-y="2691"
     inkscape:window-maximized="1"
     inkscape:current-layer="layer1"
     showgrid="false" /><defs
     id="defs1" /><g
     inkscape:label="Layer 1"
     inkscape:groupmode="layer"
     id="layer1"
     transform="translate(-385.68629,-88.470848)"><rect
       style="fill:#fbf4ec;fill-opacity:1;stroke-width:1.43017;stroke-dasharray:2.86033, 1.43017"
       id="rect1"
       width="116.48912"
       height="154.32454"
       x="385.68628"
       y="88.470848"
       inkscape:export-filename="..\..\Documents\01-MOJE_PLIKI\Ślub\graphic\meandyou_weeding_graphic_background.png"
       inkscape:export-xdpi="300"
       inkscape:export-ydpi="300" /><path
       d="m 448.21593,232.40887 c -1.60073,-0.10741 -2.94402,-0.21044 -2.98509,-0.22895 -0.0411,-0.0185 -0.17006,-0.29152 -0.28664,-0.60667 -0.25266,-0.68299 0.0754,-2.67515 0.7927,-4.81413 0.38226,-1.13985 0.54767,-2.49535 0.62433,-5.11631 0.0797,-2.72405 0.20658,-3.72173 0.53762,-4.22696 0.23832,-0.36373 0.39404,-0.69297 0.34603,-0.73164 -0.048,-0.0387 -0.32393,-0.19774 -0.61317,-0.35347 -0.48688,-0.26216 -0.53377,-0.62311 -0.63228,-4.86767 -0.0585,-2.52148 -0.0859,-5.7156 -0.0607,-7.09805 0.051,-2.80745 -0.40039,-6.00096 -0.93759,-6.6332 -0.45791,-0.53892 -1.5049,-4.79201 -2.31826,-9.4172 -0.3541,-2.01358 -0.79064,-4.01825 -0.9701,-4.45481 l -0.32629,-0.79375 -0.207,1.05833 c -0.11384,0.58209 -0.2338,3.10158 -0.26656,5.59887 -0.0353,2.69051 -0.18443,4.84601 -0.36603,5.29028 -0.2569,0.62852 -0.22378,0.88987 0.20482,1.61631 0.40348,0.68384 0.47267,1.12406 0.32816,2.08777 -0.10582,0.70565 -0.0438,1.92206 0.14685,2.88136 0.26355,1.3259 0.26359,2.23764 2.2e-4,4.52821 -0.18138,1.57742 -0.36629,3.52288 -0.41092,4.32325 -0.0446,0.80036 -0.23028,2.44748 -0.41256,3.66025 -0.27407,1.82352 -0.42666,2.24028 -0.88185,2.40867 -0.51392,0.19011 -0.55299,0.42116 -0.58916,3.48349 -0.0271,2.2915 0.10886,3.99746 0.45105,5.66112 0.54412,2.6454 0.64033,4.77565 0.2272,5.03097 -0.84968,0.52513 -4.51848,0.51613 -4.91766,-0.0121 -0.46581,-0.61636 -1.81978,-0.46849 -2.731,0.29826 -0.44902,0.37782 -1.27476,0.74843 -1.83498,0.82357 -1.91367,0.25667 -8.05709,-0.81213 -8.95595,-1.55811 -0.53199,-0.44152 -0.26632,-1.96356 0.48175,-2.75984 0.3177,-0.33818 1.18562,-0.81191 1.9287,-1.05273 3.29095,-1.06654 5.93488,-3.08046 6.68132,-5.08927 0.3002,-0.8079 0.29566,-0.81439 -0.46303,-0.66266 -1.04129,0.20826 -0.97824,-0.26786 0.12584,-0.95022 0.76203,-0.47095 0.9176,-0.74402 1.06745,-1.87366 0.11575,-0.87259 0.30124,-1.32236 0.54535,-1.32236 0.57887,0 0.72579,-0.91589 0.30323,-1.89039 -0.27597,-0.63644 -0.47041,-2.94737 -0.68691,-8.16377 -0.16609,-4.00183 -0.43478,-7.7302 -0.59709,-8.28528 -0.22222,-0.75996 -0.21637,-1.22699 0.0237,-1.89085 0.27681,-0.7655 0.24847,-1.00082 -0.21512,-1.78655 -0.74546,-1.26346 -1.83033,-7.30072 -2.03359,-11.31686 l -0.16977,-3.35422 -1.1387,-0.30456 c -1.32598,-0.35464 -2.63568,-1.5634 -3.63899,-3.35851 -0.81257,-1.45385 -0.84199,-1.90946 -0.30465,-4.71759 0.23989,-1.25362 0.39683,-3.60132 0.39683,-5.93608 0,-3.44252 -0.0552,-3.92164 -0.50797,-4.40849 -0.37025,-0.39812 -0.55771,-1.12482 -0.69137,-2.68023 -0.15898,-1.84994 -0.12049,-2.1969 0.28913,-2.60652 0.56076,-0.56076 0.87442,-3.69334 0.90295,-9.0178 0.026,-4.85697 0.69671,-12.96073 1.2153,-14.68438 0.24081,-0.80036 0.68037,-1.93146 0.9768,-2.51354 0.84173,-1.65289 3.57561,-4.55521 5.24752,-5.57085 3.55193,-2.15767 3.98214,-3.81077 1.97979,-7.60727 -0.64415,-1.22133 -1.25702,-2.67813 -1.36193,-3.23734 -0.10491,-0.55921 -0.41316,-1.39371 -0.68499,-1.85444 -0.27184,-0.46073 -0.5188,-1.40158 -0.54879,-2.09077 -0.0538,-1.23626 -0.0653,-1.25144 -0.8558,-1.13108 -0.44069,0.0671 -0.95009,0.0685 -1.13199,0.003 -0.57172,-0.20561 -0.35964,-0.60401 0.32152,-0.60401 0.63563,0 2.52275,-1.40594 2.52275,-1.87949 0,-0.13045 -0.34745,-0.23718 -0.77211,-0.23718 -0.99116,0 -1.60914,-0.24023 -1.60914,-0.62553 0,-0.19887 0.41763,-0.27111 1.20518,-0.20847 1.02891,0.0818 1.41525,-0.0436 2.64157,-0.85787 1.92466,-1.2779 3.42132,-1.66492 5.02196,-1.29865 1.10553,0.25299 1.19459,0.24043 0.83626,-0.1179 -0.27142,-0.27142 -0.97821,-0.41112 -2.1868,-0.43225 -1.16979,-0.0204 -1.82374,-0.14528 -1.89589,-0.36193 -0.081,-0.24323 0.37199,-0.33073 1.71221,-0.33073 1.56729,0 1.99621,0.11027 3.06475,0.78792 1.31172,0.83187 1.41755,0.82743 0.95333,-0.04 -0.19535,-0.36501 -0.20211,-0.62716 -0.0209,-0.80841 0.18125,-0.18125 0.63963,0.25847 1.41357,1.35603 1.10325,1.56456 1.18181,1.62015 2.13753,1.51244 1.07015,-0.12061 1.39201,0.38153 0.5475,0.85414 -0.40096,0.22439 -0.37738,0.32884 0.23978,1.0623 0.73923,0.87852 1.15348,2.57304 0.85721,3.5065 -0.15525,0.48915 -0.10664,0.55032 0.30936,0.38923 1.07085,-0.41465 2.79123,-0.55039 6.97584,-0.55039 4.05695,0 4.47787,0.0468 5.95313,0.66146 1.42198,0.59249 1.67026,0.81564 2.38125,2.14025 1.73675,3.23564 1.85635,3.35679 3.2926,3.33512 1.89773,-0.0286 3.17577,0.90544 4.26435,3.11665 1.88961,3.83834 0.67857,8.07673 -2.30778,8.07673 -0.65887,0 -0.67372,0.0374 -0.49976,1.25677 0.0986,0.69122 0.40889,2.4474 0.68951,3.9026 0.63484,3.29209 0.95584,5.65792 1.18986,8.76948 0.16182,2.15151 0.24706,2.44914 0.7696,2.68722 1.26783,0.57767 2.20354,4.16894 1.73286,6.65079 -0.32909,1.7353 -0.96769,3.09571 -1.69126,3.60288 -0.52505,0.36802 -0.56082,0.62477 -0.56082,4.02574 0,4.1366 -0.28411,5.04184 -2.30189,7.33415 l -1.08652,1.23435 0.17382,4.41124 c 0.0956,2.42618 0.2509,5.98882 0.3451,7.91697 l 0.17127,3.50573 h -1.35356 c -1.05722,0 -1.41224,-0.10965 -1.62158,-0.50081 -0.14742,-0.27545 -0.34917,-3.66873 -0.44833,-7.54063 -0.13351,-5.21293 -0.26299,-7.03981 -0.49892,-7.03981 -0.44086,0 -3.1091,0.51339 -3.21413,0.61842 -0.19559,0.19559 0.48873,4.46988 1.12257,7.01171 0.63424,2.54339 0.65166,2.76899 0.24823,3.21477 -0.96332,1.06445 -1.44911,0.87625 -2.26041,-0.87571 -0.74379,-1.60618 -1.84336,-5.37299 -1.84336,-6.31486 0,-0.26363 -0.10632,-0.47933 -0.23627,-0.47933 -0.46959,0 -0.5571,0.88484 -0.2576,2.6047 0.37239,2.13843 0.14624,7.63516 -0.45345,11.02134 -0.40533,2.28871 -0.3996,3.23141 0.0461,7.576 0.11226,1.09434 0.0394,1.71002 -0.27393,2.316 -0.40592,0.78498 -0.39845,0.86381 0.15265,1.6092 0.31871,0.43109 0.67014,1.41295 0.78095,2.18192 0.11081,0.76897 0.3272,2.23156 0.48087,3.25021 0.40498,2.68455 0.34721,5.46531 -0.22484,10.82292 -0.48601,4.55183 -0.53377,4.75977 -1.21862,5.30585 -0.63117,0.50328 -0.68734,0.67275 -0.49056,1.48021 0.12222,0.50152 0.18466,1.64768 0.13875,2.54703 -0.0727,1.42475 -0.012,1.6798 0.47167,1.98188 0.70454,0.43999 0.72053,0.85353 0.026,0.67191 -0.47871,-0.12519 -0.52909,-0.008 -0.52832,1.2259 4.6e-4,0.75036 0.18549,2.41989 0.41116,3.71006 0.42437,2.42611 0.33807,3.73055 -0.26206,3.96084 -0.76903,0.29511 -2.81471,0.35886 -5.5739,0.17371 z m 3.175,-1.60986 c -2.33363,-0.74268 -3.40439,-0.86573 -4.47078,-0.51379 -1.49542,0.49353 -1.18418,0.89902 0.56817,0.74023 0.83675,-0.0758 1.81901,-0.0451 2.18281,0.0682 0.36381,0.11335 1.25678,0.20709 1.98438,0.20832 l 1.32292,0.002 z m -19.86506,-0.90282 c 1.29543,-0.65721 3.66655,-0.91921 3.96396,-0.43799 0.0756,0.12229 0.58862,0.19425 1.14009,0.15989 0.55147,-0.0343 1.27056,-0.0749 1.59799,-0.0901 0.40972,-0.019 0.59531,-0.19257 0.59531,-0.55677 0,-0.49528 -0.17639,-0.52916 -2.75455,-0.52916 -2.0095,0 -3.20821,0.1422 -4.43178,0.52575 -2.32589,0.72909 -6.21126,0.65954 -9.0194,-0.16146 -0.25466,-0.0744 -0.46302,-0.0178 -0.46302,0.12578 0,0.29185 1.93727,0.98836 3.72406,1.33892 2.34304,0.4597 4.25209,0.33297 5.64734,-0.37489 z m 21.48707,-1.23272 c -0.0867,-0.63108 -0.23544,-2.31283 -0.33042,-3.73722 -0.14755,-2.21274 -0.25308,-2.6461 -0.72487,-2.97656 -0.77158,-0.54043 -1.13251,-0.48277 -0.60773,0.0971 0.54532,0.60257 0.56416,0.94414 0.041,0.74339 -0.21829,-0.0838 -0.39688,-0.0515 -0.39688,0.0716 0,0.12313 0.17859,0.3721 0.39688,0.55326 0.81506,0.67644 0.31225,1.27151 -0.59532,0.70455 -0.53895,-0.3367 -0.37907,0.31755 0.19844,0.81204 0.73213,0.62686 0.69394,1.20847 -0.0661,1.00743 l -0.59532,-0.15746 0.59532,0.43648 c 0.56262,0.41253 0.78133,1.15606 0.44035,1.49704 -0.0852,0.0852 -0.66989,-0.20799 -1.29925,-0.65161 l -1.14429,-0.80656 -1.34658,0.87255 c -0.74063,0.47991 -1.34659,1.02137 -1.34659,1.20324 0,0.18187 -0.0608,0.48924 -0.13502,0.68304 -0.10564,0.2757 0.36928,0.35827 2.18281,0.3795 1.38268,0.0162 2.74483,0.19085 3.37617,0.43293 0.58208,0.2232 1.16112,0.31061 1.28675,0.19425 0.12563,-0.11635 0.15743,-0.72789 0.0707,-1.35897 z m -21.40223,-0.67071 c 2.09779,-0.60591 2.5478,-0.83605 2.97483,-1.52135 0.27673,-0.44409 1.16482,-1.45822 1.97353,-2.2536 1.46533,-1.44119 1.4704,-1.45173 1.4704,-3.05985 0,-1.57467 -0.0217,-1.62405 -0.8996,-2.04267 -0.8739,-0.41674 -0.90403,-0.41247 -1.05472,0.14943 -0.0853,0.31813 -0.15675,0.80872 -0.15874,1.0902 -0.0113,1.60617 -2.3875,4.31515 -2.81281,3.20681 -0.15069,-0.39269 -1.93423,-1.04773 -2.18096,-0.801 -0.0688,0.0688 -0.0755,0.15489 -0.0149,0.19127 0.0606,0.0364 0.46429,0.2651 0.89702,0.50826 0.43273,0.24317 0.82472,0.55592 0.87108,0.69501 0.17071,0.5121 -0.7178,0.53755 -1.35198,0.0387 -0.61891,-0.48684 -1.49651,-0.69699 -1.49651,-0.35836 0,0.0858 0.25798,0.36493 0.57329,0.62024 0.38696,0.31334 0.51416,0.61832 0.39136,0.93832 -0.1689,0.44014 -0.2162,0.44309 -0.66027,0.0412 -0.57077,-0.51655 -1.66155,-0.62589 -1.15104,-0.11539 0.33675,0.33676 0.43955,1.27 0.13989,1.27 -0.0977,0 -0.39371,-0.19558 -0.65785,-0.43462 -0.44756,-0.40503 -0.58408,-0.38901 -2.00521,0.23543 -0.83873,0.36854 -1.9892,0.81734 -2.55661,0.99734 -1.38251,0.43858 -0.82208,0.74431 1.89021,1.03114 3.16278,0.33447 3.19233,0.33231 5.81956,-0.42653 z m 6.8381,-2.1106 c -0.16544,-0.82588 -0.42704,-1.54368 -0.58133,-1.5951 -0.31534,-0.10511 -2.74843,2.39203 -2.74843,2.82078 0,0.16469 0.73177,0.27592 1.81528,0.27592 h 1.81528 z m 9.10566,0.17868 c 0,-0.14552 -0.0525,-0.26458 -0.11668,-0.26458 -0.0642,0 -0.19026,0.11906 -0.2802,0.26458 -0.0899,0.14552 -0.0374,0.26458 0.11668,0.26458 0.15411,0 0.2802,-0.11906 0.2802,-0.26458 z m 0.25692,-1.31258 c 0.21407,-0.13538 0.32444,-0.31092 0.24527,-0.39009 -0.0792,-0.0792 -0.37338,0.0296 -0.6538,0.24178 -0.55784,0.42203 -0.21887,0.54509 0.40853,0.14831 z m 0.80141,-1.92605 c 0,-0.27187 -0.20237,-0.25285 -0.81855,0.0769 -0.28555,0.15282 -0.4508,0.38851 -0.36722,0.52374 0.16288,0.26355 1.18577,-0.25461 1.18577,-0.60066 z m -14.70106,-0.22794 c -0.15994,-0.25878 -1.72662,-1.03134 -2.09148,-1.03134 -0.0774,0 -0.14079,0.10961 -0.14079,0.24357 0,0.13395 0.35582,0.32171 0.79071,0.41723 0.4349,0.0955 0.85864,0.28357 0.94166,0.41789 0.083,0.13433 0.27,0.24423 0.41552,0.24423 0.14552,0 0.18349,-0.13121 0.0844,-0.29158 z m 1.18622,-1.10816 c 0.12672,-0.3333 0.2726,-1.31557 0.32418,-2.18282 l 0.0938,-1.57681 -0.81144,-0.0793 c -0.65615,-0.0641 -0.87134,0.0522 -1.12448,0.60776 -0.41451,0.90976 -0.43415,0.84595 0.5319,1.72831 0.9431,0.86138 0.83363,1.33027 -0.18348,0.78593 -0.9674,-0.51774 -1.10571,-0.13143 -0.22897,0.63953 0.94135,0.82777 1.10967,0.83709 1.3985,0.0774 z m 12.98567,0.33736 c 0.35278,-0.23159 0.35278,-0.28948 0,-0.52107 -0.59486,-0.3905 -0.79375,-0.32522 -0.79375,0.26053 0,0.58576 0.19889,0.65104 0.79375,0.26054 z m 4.54273,-3.31056 c -0.44399,-0.97446 -0.70378,-0.80196 -1.00472,0.66716 -0.247,1.20575 -0.22265,1.35366 0.27848,1.69138 0.51801,0.34909 0.56261,0.31127 0.78671,-0.66716 0.15874,-0.69304 0.13867,-1.25431 -0.0605,-1.69138 z m -2.42606,1.99169 c 0,-0.14552 -0.12609,-0.26458 -0.2802,-0.26458 -0.15411,0 -0.20661,0.11906 -0.11667,0.26458 0.0899,0.14552 0.21602,0.26458 0.28019,0.26458 0.0642,0 0.11668,-0.11906 0.11668,-0.26458 z m -1.4249,-0.3636 c 0.0167,-0.0183 0.11006,-0.65835 0.20755,-1.42234 0.1923,-1.50707 -0.0551,-1.75619 -0.94463,-0.95118 -0.32948,0.29818 -0.48385,0.81035 -0.48385,1.60533 0,1.08852 0.0402,1.15508 0.59531,0.98446 0.32742,-0.10064 0.60895,-0.19796 0.62562,-0.21627 z m 1.94476,-0.94192 c 0.38069,-0.71133 0.34928,-0.81114 -0.25528,-0.81114 -0.38805,0 -0.52916,0.17638 -0.52916,0.66145 0,0.78778 0.4019,0.86447 0.78444,0.14969 z m -17.98236,-1.07573 c 0,-0.14552 -0.17859,-0.26458 -0.39687,-0.26458 -0.21829,0 -0.39688,0.11906 -0.39688,0.26458 0,0.14552 0.17859,0.26459 0.39688,0.26459 0.21828,0 0.39687,-0.11907 0.39687,-0.26459 z m 5.29167,-0.77285 v -0.77284 l -1.96001,-0.0871 c -1.078,-0.0479 -1.90441,0.002 -1.83646,0.11139 0.0679,0.10914 0.39103,0.19843 0.71797,0.19843 0.32694,0 0.99789,0.29766 1.491,0.66146 1.18205,0.8721 1.5875,0.84365 1.5875,-0.11139 z m 12.96458,-0.55006 c 0,-0.14553 -0.30468,-0.26459 -0.67707,-0.26459 -0.38401,0 -0.6063,0.11452 -0.51355,0.26459 0.0899,0.14552 0.39462,0.26458 0.67707,0.26458 0.28245,0 0.51355,-0.11906 0.51355,-0.26458 z m -11.90625,-1.5875 c 0,-0.16024 -1.12178,-0.26299 -2.84427,-0.26054 -1.93414,0.003 -2.71728,0.0861 -2.4474,0.26054 0.53219,0.34392 5.29167,0.34392 5.29167,0 z m 14.81667,-0.95435 c 0,-1.00639 -0.0735,-1.19074 -0.42146,-1.05721 -0.2318,0.089 -0.72357,0.23756 -1.09283,0.33023 -1.11156,0.27899 -0.58773,-0.47556 0.64124,-0.92366 1.28842,-0.46977 1.31378,-0.57331 1.56513,-6.39085 0.12769,-2.95536 0.0673,-4.39856 -0.26316,-6.28397 -0.23591,-1.34613 -0.42892,-2.69816 -0.42892,-3.00451 0,-0.30635 -0.29766,-0.91075 -0.66146,-1.3431 -0.80195,-0.95306 -0.80961,-1.13708 -0.11286,-2.71219 0.51991,-1.17533 0.52683,-1.30413 0.1323,-2.46202 -0.51446,-1.50985 -0.53065,-3.81087 -0.0472,-6.71528 0.6867,-4.12587 0.68661,-4.05056 0.007,-5.51735 -0.35129,-0.75823 -0.82494,-2.09727 -1.05255,-2.97565 -0.22761,-0.87838 -0.60046,-1.88188 -0.82856,-2.23 -0.41016,-0.62598 -0.39896,-1.36288 0.0578,-3.8056 l 0.17466,-0.93405 -1.60214,-0.33092 c -0.88117,-0.182 -1.67273,-0.44514 -1.75901,-0.58475 -0.0863,-0.13961 -0.776,0.3803 -1.5327,1.15536 -1.48532,1.52134 -3.65381,2.55445 -5.36183,2.55445 -0.77673,0 -1.01264,-0.14847 -1.47142,-0.92604 -0.39412,-0.66799 -0.73178,-0.92604 -1.21173,-0.92604 -0.70505,0 -0.71318,0.0874 -0.19994,2.14967 0.13108,0.52669 0.0257,0.8315 -0.43604,1.26171 l -0.60886,0.56725 -0.61053,-0.61053 c -0.3459,-0.3459 -0.69726,-1.12213 -0.81064,-1.79088 -0.17132,-1.01052 -0.29878,-1.1919 -0.88589,-1.26061 -0.57304,-0.0671 -0.71128,0.0473 -0.84096,0.69573 -0.12912,0.64556 -0.3225,0.80736 -1.15067,0.96272 -0.5475,0.10272 -1.74397,0.18101 -2.65882,0.17399 l -1.66336,-0.0128 6.6e-4,2.173 c 10e-4,3.79855 0.76639,13.17994 1.32086,16.19302 0.65293,3.54809 0.68248,3.64332 1.55949,5.02622 0.53636,0.84575 0.79776,1.05293 1.09462,0.86754 0.24968,-0.15592 0.67558,-0.12154 1.18375,0.0956 l 0.79375,0.3391 -0.92605,0.0995 c -0.50932,0.0547 -1.01505,0.25753 -1.12385,0.45066 -0.11575,0.20546 -0.43251,0.28975 -0.76354,0.20319 -0.51816,-0.1355 -0.55114,-0.0722 -0.39217,0.75221 0.0955,0.49508 0.28441,2.80515 0.41987,5.13348 0.51661,8.87923 0.54497,9.12813 1.04007,9.12813 0.24964,0 0.68502,0.17481 0.96749,0.38846 0.48076,0.36363 0.44899,0.389 -0.497,0.39687 -0.89472,0.007 -1.00089,0.0767 -0.92604,0.60373 0.082,0.57727 0.18681,0.59756 3.45799,0.66936 3.29217,0.0723 3.37343,0.0604 3.37343,-0.49132 0,-0.43469 -0.10703,-0.52132 -0.46302,-0.37477 -0.25466,0.10484 -0.70114,0.24615 -0.99218,0.31402 -0.44113,0.10286 -0.41078,0.0208 0.18235,-0.49304 0.39134,-0.33904 0.97543,-0.80234 1.29798,-1.02955 0.46296,-0.32612 0.54815,-0.56575 0.40455,-1.1379 l -0.18191,-0.72478 -1.09755,0.93946 c -0.60365,0.5167 -1.19518,0.93946 -1.31451,0.93946 -0.47552,0 -0.16905,-0.5029 0.7195,-1.18063 0.51505,-0.39285 1.24772,-1.18463 1.62816,-1.75951 0.59709,-0.90226 0.70732,-1.39696 0.80586,-3.61661 0.073,-1.64441 -0.0176,-3.14366 -0.2514,-4.15888 -0.25631,-1.11309 -0.29151,-1.87223 -0.11777,-2.5403 0.20936,-0.80506 0.15769,-1.07464 -0.33322,-1.73863 l -0.58099,-0.78583 0.52982,-1.34417 c 0.42911,-1.08865 0.47937,-1.52687 0.26442,-2.30534 -0.14596,-0.52866 -0.17983,-1.22499 -0.0753,-1.54742 0.18644,-0.57483 0.38434,-4.5748 0.46203,-9.3387 0.0366,-2.24471 -0.0129,-2.48583 -0.75457,-3.67163 -0.76226,-1.21879 -0.88298,-1.29468 -3.04271,-1.91277 -1.23693,-0.354 -2.36009,-0.75361 -2.49591,-0.88803 -0.53317,-0.52767 0.143,-0.53031 1.83675,-0.007 2.11472,0.65317 1.98207,0.64308 1.98207,0.15082 0,-0.65283 0.70121,-0.45095 1.42614,0.41058 1.71044,2.03273 3.53729,7.10663 4.39613,12.20981 0.30126,1.79003 0.77407,4.20711 1.05069,5.37128 0.27662,1.16416 0.57246,2.44575 0.65742,2.84797 0.15135,0.71646 0.17022,0.72318 0.92912,0.33073 1.46103,-0.75552 5.56342,-0.24514 5.56342,0.69215 0,0.29157 -0.15613,0.27255 -2.24896,-0.27394 -1.19385,-0.31174 -2.61925,-0.1384 -3.04104,0.36982 -0.21474,0.25875 0.003,0.50658 0.91662,1.04181 1.15931,0.67941 1.54855,1.21807 0.86765,1.20075 -0.1819,-0.005 -0.56184,-0.18322 -0.84432,-0.39688 -0.82298,-0.62247 -1.01856,-0.47254 -0.78754,0.60373 0.11713,0.5457 0.2445,2.65906 0.28303,4.69636 0.14818,7.83348 0.17207,8.03438 1.03828,8.73105 0.60718,0.48833 0.70485,0.69228 0.45406,0.94819 -0.24666,0.25169 -0.40553,0.25465 -0.69671,0.013 -0.41649,-0.34566 -0.70357,0.0807 -0.70357,1.04502 0,0.47429 0.22527,0.50753 3.43958,0.50753 h 3.43959 z m -5.01133,-3.21325 c -0.97965,-0.49786 -1.55405,-1.38188 -0.64717,-0.99603 0.27452,0.11681 1.00514,0.38802 1.6236,0.60269 0.61847,0.21468 1.12448,0.49528 1.12448,0.62355 0,0.38638 -1.13163,0.26238 -2.10091,-0.23021 z m -15.98122,-0.87486 c 0.15398,-0.15398 1.0605,-0.44327 2.01448,-0.64287 0.95399,-0.1996 2.10198,-0.55292 2.55109,-0.78517 0.8971,-0.46391 1.08707,-0.20632 0.34387,0.46626 -0.80798,0.73121 -5.62194,1.67428 -4.90944,0.96178 z m 18.34671,-7.10982 c -0.3638,-0.26467 -1.22988,-0.80054 -1.92463,-1.19083 -0.69474,-0.39029 -1.19428,-0.82109 -1.11008,-0.95733 0.27896,-0.45137 4.09305,1.79219 4.09305,2.40765 0,0.36281 -0.30611,0.28776 -1.05834,-0.25949 z m -0.26458,-3.64913 c -1.09139,-0.1312 -1.59937,-0.51328 -0.99219,-0.74628 0.56296,-0.21603 2.60654,0.20755 2.60715,0.54039 5.8e-4,0.31172 -0.35618,0.3572 -1.61496,0.20589 z m -18.25625,-0.81417 c 0,-0.85433 4.71064,-1.46241 5.7037,-0.73627 0.74257,0.54298 0.37718,0.71337 -0.77286,0.36042 -0.93322,-0.28642 -3.13178,-0.0465 -4.54564,0.49606 -0.21186,0.0813 -0.3852,0.0272 -0.3852,-0.12021 z m 1.68252,-25.16813 c -0.93363,-0.5693 -1.34426,-1.07879 -0.86947,-1.07879 0.45115,0 2.09737,1.05529 2.09737,1.34449 0,0.36272 -0.30585,0.29653 -1.2279,-0.2657 z m 29.70726,5.75162 c -0.0941,-0.89994 -0.29152,-4.50158 -0.4388,-8.00365 -0.32752,-7.78789 -0.77508,-16.09947 -0.87214,-16.19654 -0.0395,-0.0395 -0.33443,-0.003 -0.6555,0.0809 -0.70676,0.18482 -0.70901,0.24742 -0.20433,5.67084 0.20869,2.24257 0.44984,6.93489 0.5359,10.42739 0.0861,3.4925 0.22245,7.09414 0.30309,8.00365 0.13833,1.56018 0.18495,1.65364 0.82471,1.65364 0.67307,0 0.67682,-0.0121 0.50707,-1.63625 z m -36.41686,-0.72717 c 0,-0.13571 -0.2193,-0.31635 -0.48732,-0.40142 -1.39607,-0.4431 -2.2555,-2.63146 -1.65022,-4.20198 0.41136,-1.06734 0.91669,-0.73939 1.12708,0.73146 0.43412,3.03486 0.84265,2.57219 0.91842,-1.04015 0.0498,-2.37395 -0.0125,-2.84015 -0.4543,-3.40185 -0.65732,-0.83565 -0.69759,-3.97899 -0.0887,-6.92333 0.46544,-2.25062 0.37072,-2.49558 -0.96805,-2.50359 -1.42488,-0.009 -1.51222,0.2719 -1.64695,5.28762 -0.0808,3.00649 -0.27774,5.25967 -0.56172,6.4252 l -0.43735,1.79501 0.92465,1.65342 c 0.62664,1.12053 1.24741,1.84048 1.92611,2.23381 1.1073,0.64174 1.39834,0.71371 1.39834,0.3458 z m 26.05445,-4.98236 c -0.27423,-1.2326 -0.37571,-2.40969 -0.26907,-3.12081 0.14547,-0.97012 0.0922,-1.18406 -0.35427,-1.42301 -0.86832,-0.46471 -0.97877,-0.34987 -1.31994,1.37242 -0.32203,1.62566 -0.31398,1.67827 0.47583,3.10885 0.44188,0.80036 0.80557,1.60786 0.8082,1.79444 0.003,0.18657 0.20795,0.78188 0.45624,1.32291 l 0.45144,0.98369 0.0959,-1.02972 c 0.0528,-0.56634 -0.1022,-1.92029 -0.34437,-3.00877 z m 4.9018,3.53278 c 0,-0.0599 -0.29614,-1.36213 -0.65808,-2.89394 -0.36195,-1.53181 -0.73623,-3.62596 -0.83175,-4.65366 -0.0955,-1.02771 -0.26015,-1.86856 -0.36586,-1.86856 -0.10572,0 -0.33626,0.5145 -0.51233,1.14335 -0.27469,0.9811 -0.24231,1.47095 0.22819,3.452 0.59259,2.49512 1.53478,4.92965 1.90783,4.92965 0.1276,0 0.232,-0.049 0.232,-0.10884 z m -20.97248,-6.4396 c -0.2138,-0.79209 -0.44377,-1.12448 -0.77802,-1.12448 -0.59181,0 -0.61713,0.73398 -0.0704,2.04238 0.34997,0.83759 0.45412,0.91615 0.77801,0.58682 0.30473,-0.30985 0.31777,-0.5884 0.0704,-1.50472 z m -4.92001,-0.52616 c 0.14038,-0.14038 0.44501,-1.43376 0.67695,-2.87417 0.61533,-3.8214 0.92735,-32.67784 0.36379,-33.6451 -0.22736,-0.39023 -0.26879,-0.34989 -0.27562,0.26835 -0.004,0.40018 -0.12711,0.7276 -0.27263,0.7276 -0.15295,0 -0.26459,-0.84003 -0.26459,-1.99092 0,-1.8802 -0.0368,-2.00491 -0.66145,-2.24241 -0.50034,-0.19023 -0.66146,-0.44263 -0.66146,-1.03617 0,-2.51006 -1.68886,0.0149 -2.0927,3.12876 -0.40218,3.10104 -0.40199,3.1022 0.57134,3.48919 l 0.8599,0.34189 -0.99219,0.0968 c -0.62015,0.0605 -0.99219,0.23368 -0.99219,0.46177 0,0.23072 0.36493,0.39514 0.99219,0.44705 0.79947,0.0662 1.00873,0.19865 1.07734,0.68202 0.15755,1.11001 -0.46233,2.42818 -1.23019,2.61596 -0.38887,0.0951 -0.77957,0.28329 -0.86821,0.4182 -0.17122,0.26061 0.25234,2.50126 0.82632,4.37129 0.38453,1.2528 0.23149,1.64734 -0.427,1.10084 -0.40308,-0.33453 -0.41859,-0.11212 -0.20483,2.93886 0.38925,5.55583 0.27528,8.86429 -0.37801,10.9737 -0.67619,2.18333 -1.37511,6.08533 -1.37511,7.67715 0,1.19353 0.52572,1.76353 2.0938,2.27015 0.83462,0.26965 2.88397,0.12972 3.23455,-0.22085 z m -0.56585,-4.67996 c 0,-0.5121 0.13573,-0.68086 0.54757,-0.68086 0.41589,0 0.52724,0.14251 0.46302,0.59261 -0.12546,0.87941 -1.01059,0.9567 -1.01059,0.0883 z m 0.28842,-2.10736 c -0.19911,-0.23991 -0.17818,-0.4752 0.0728,-0.81844 0.40515,-0.55407 0.9617,-0.33406 0.9617,0.38016 0,0.60742 -0.66153,0.88768 -1.0345,0.43828 z m -0.18787,-7.68896 c -0.18844,-0.49106 0.0865,-0.93871 0.57653,-0.93871 0.23029,0 0.38126,0.26193 0.38126,0.66146 0,0.727 -0.70671,0.93157 -0.95779,0.27725 z m 0.0553,-5.86748 c -0.10283,-0.26795 -0.003,-0.62887 0.24086,-0.87289 0.36806,-0.36796 0.4456,-0.37018 0.67084,-0.0192 0.14008,0.21828 0.2237,0.5741 0.18584,0.79071 -0.0992,0.56727 -0.89071,0.64036 -1.09754,0.10135 z m 0.46769,-7.64231 c -0.177,-0.46124 0.37979,-1.25247 0.72934,-1.03643 0.12903,0.0798 0.2346,0.43562 0.2346,0.79084 0,0.72243 -0.71141,0.90369 -0.96394,0.24559 z m 0.16649,-3.96984 c -0.29062,-0.35017 -0.27573,-0.49095 0.0907,-0.85737 0.51521,-0.51521 1.07697,-0.14471 0.93001,0.61337 -0.12371,0.63817 -0.59923,0.75184 -1.0207,0.244 z m 11.57219,30.93862 c 1.21819,-0.71233 2.00252,-1.8765 3.1337,-4.65129 0.70993,-1.74146 1.4103,-2.7122 2.51512,-3.48604 0.75655,-0.52991 1.65309,-3.22595 1.29516,-3.89476 -0.34343,-0.6417 0.11579,-2.78505 0.79843,-3.72659 0.27895,-0.38474 0.58346,-1.27771 0.67668,-1.98438 0.15752,-1.19401 0.10243,-1.36902 -0.77938,-2.47547 -0.52189,-0.65484 -1.26518,-2.02406 -1.65176,-3.04271 -0.38657,-1.01864 -1.22789,-2.90582 -1.86959,-4.19373 -1.14195,-2.2919 -1.1778,-2.33163 -1.68767,-1.8702 -0.47077,0.42604 -0.65398,0.43802 -1.90225,0.12437 -2.23044,-0.56044 -2.39147,-0.69953 -2.22727,-1.92377 0.18551,-1.38307 0.41385,-1.57825 2.02795,-1.73334 1.08164,-0.10393 1.32109,-0.21333 1.22129,-0.55797 -0.46961,-1.62164 -0.71218,-3.97205 -0.63788,-6.18087 0.0786,-2.33654 0.0443,-2.56366 -0.36724,-2.43245 -0.24966,0.0796 -0.8923,0.0237 -1.42807,-0.12425 -0.93489,-0.25813 -1.02855,-0.22024 -2.3242,0.94034 -0.74252,0.66512 -1.44177,1.36851 -1.55388,1.5631 -0.51269,0.88985 -0.73024,6.1395 -0.45829,11.05917 0.37446,6.77418 0.94573,11.32328 1.876,14.93863 0.42377,1.64694 0.7705,3.36348 0.7705,3.81454 0,0.45105 -0.36863,2.19209 -0.81918,3.86898 -0.6971,2.59452 -0.79179,3.30752 -0.63543,4.78442 0.10106,0.95454 0.29453,1.87093 0.42994,2.03642 0.34009,0.41566 2.17082,-0.018 3.59732,-0.85215 z m -3.3664,-3.79243 c 0,-0.13346 0.24076,-0.80433 0.53503,-1.49082 0.82438,-1.92321 0.82596,-5.01548 0.006,-12.65693 -0.15433,-1.43904 -0.51463,-5.11678 -0.80066,-8.17277 -0.28603,-3.05598 -0.58286,-5.61913 -0.65962,-5.69588 -0.0768,-0.0768 -0.13956,0.0659 -0.13956,0.31703 0,0.25112 -0.11906,0.383 -0.26458,0.29306 -0.40878,-0.25264 -0.31258,-0.92604 0.13229,-0.92604 0.21828,0 0.40108,-0.20836 0.40622,-0.46302 0.0489,-2.42436 0.55448,-7.61497 0.76195,-7.82244 0.17462,-0.17462 0.21467,1.42087 0.11896,4.73871 -0.12559,4.35351 -0.0361,6.09957 0.68989,13.46862 1.18854,12.0632 1.21213,12.59683 0.66667,15.08125 -0.2556,1.16417 -0.63062,2.44409 -0.83339,2.84427 -0.37287,0.73588 -0.61967,0.92903 -0.61967,0.48496 z m 2.28034,-19.28574 c -0.20432,-0.3306 0.28679,-0.51618 1.94977,-0.73678 1.12102,-0.14871 1.32614,-0.10926 1.32614,0.25504 0,0.32097 -0.25323,0.43188 -0.99219,0.43458 -0.5457,0.002 -1.24664,0.0719 -1.55764,0.15534 -0.311,0.0834 -0.63774,0.0348 -0.72608,-0.10818 z m 11.97515,21.57891 c 0.45522,-1.95495 0.69464,-4.89595 0.37155,-4.56406 -0.39268,0.40336 -2.72079,4.3525 -2.72079,4.61524 0,0.2083 1.50041,1.26261 1.87279,1.31596 0.0841,0.0121 0.29855,-0.60316 0.47645,-1.36714 z m -16.4383,0.69313 c 0.33875,-0.0908 0.59531,-0.36549 0.59531,-0.63744 0,-0.43243 -0.19223,-0.46337 -2.02006,-0.32513 -1.6631,0.12578 -1.99844,0.0871 -1.89777,-0.21884 0.0716,-0.21765 0.55229,-0.39974 1.16015,-0.43949 2.39553,-0.15665 2.75768,-0.29955 2.75768,-1.08811 0,-0.40433 0.29765,-1.7296 0.66146,-2.94506 0.79688,-2.66238 0.83151,-4.2651 0.14227,-6.58606 -1.57838,-5.31512 -2.63609,-19.71703 -1.85781,-25.29623 0.24187,-1.73387 0.33456,-1.91963 1.45212,-2.91042 0.65657,-0.58208 1.19279,-1.14093 1.19161,-1.24189 -10e-4,-0.10096 -0.54687,0.0574 -1.21264,0.3519 -1.70202,0.75288 -3.77684,0.92867 -4.78819,0.40568 l -0.80444,-0.41599 -0.3099,1.03436 c -0.17045,0.56889 -0.41798,1.10115 -0.55008,1.1828 -0.1321,0.0816 -0.0192,0.65218 0.25099,1.26787 1.26004,2.87173 1.318,3.9969 1.0594,20.56632 -0.13286,8.51296 -0.31869,15.92461 -0.41296,16.47031 l -0.17139,0.99219 2.07946,-0.004 c 1.14371,-0.002 2.34736,-0.0754 2.67479,-0.16315 z m 14.29445,-3.20667 c 2.14779,-3.81463 3.49877,-6.37639 3.49877,-6.63445 0,-0.13378 -0.50601,-0.32117 -1.12447,-0.41643 -0.61847,-0.0953 -1.49829,-0.24033 -1.95516,-0.32237 -0.80615,-0.14475 -0.8443,-0.10744 -1.29239,1.26387 -0.74816,2.28963 -1.89565,4.66957 -2.93242,6.08192 -0.57472,0.78293 -0.87151,1.41619 -0.73003,1.55768 0.2399,0.23989 1.96481,0.70887 2.78907,0.75831 0.29345,0.0176 0.88344,-0.75544 1.74663,-2.28853 z m 6.80607,0.90365 c 0.7276,-0.18861 1.32028,-0.4542 1.31706,-0.59021 -0.0106,-0.44821 -0.39927,-5.50417 -0.56268,-7.3197 -0.0882,-0.97941 -0.24629,-1.72758 -0.35142,-1.66261 -0.10514,0.065 -0.26262,1.46162 -0.34998,3.10366 -0.18766,3.52753 -0.43193,4.46397 -1.51651,5.81359 -0.93141,1.15901 -0.76584,1.23315 1.46353,0.65527 z m -2.01265,-1.45926 c 0.65547,-0.92053 1.0715,-2.62862 1.08014,-4.43479 0.006,-1.28542 -0.0249,-1.34637 -0.6273,-1.23122 -0.51334,0.0981 -0.71443,0.40866 -1.05833,1.63432 -0.46027,1.64039 -0.57726,4.78574 -0.17801,4.78574 0.13562,0 0.48819,-0.33933 0.7835,-0.75405 z m 8.14431,-2.63701 c 0.54114,-1.13591 0.67322,-1.82343 0.68618,-3.57187 0.009,-1.19086 -0.0741,-2.5592 -0.18421,-3.04075 -0.18651,-0.81543 -0.25762,-0.86403 -1.0357,-0.70785 -2.01509,0.40449 -1.86067,-0.0583 -1.65676,4.96507 0.10074,2.48146 0.25448,4.62716 0.34166,4.76822 0.21813,0.35294 1.04584,-0.72727 1.84883,-2.41282 z m -16.31812,0.95318 c 0,-0.37246 -0.49351,0.0235 -0.83083,0.66667 -0.30239,0.57655 -0.30056,0.57708 0.26316,0.0765 0.31222,-0.27721 0.56767,-0.61166 0.56767,-0.74322 z m -23.81982,-2.75434 1.71248,-0.0454 0.33294,-1.28381 c 0.18312,-0.70609 0.33524,-1.42099 0.33804,-1.58865 0.0114,-0.68008 -3.07271,-1.15277 -4.69125,-0.71902 -0.53062,0.1422 -0.59531,0.32634 -0.59531,1.69454 0,1.92354 0.19014,2.47145 0.76175,2.19506 0.23588,-0.11405 1.19949,-0.22779 2.14135,-0.25275 z m 33.17763,-3.96785 0.1625,-1.09027 -1.51901,-0.41137 c -0.83546,-0.22625 -2.241,-0.48889 -3.12344,-0.58364 -1.83288,-0.1968 -2.13031,-0.007 -2.27363,1.45404 -0.0852,0.86847 -0.0347,0.93577 0.83535,1.11381 0.50932,0.10422 1.87854,0.40762 3.04271,0.67422 2.42504,0.55535 2.6328,0.47177 2.87552,-1.15679 z m -30.88249,-4.00296 c -0.20106,-4.18184 -0.7016,-7.7988 -1.6019,-11.57552 -0.34689,-1.4552 -0.70662,-3.24114 -0.79941,-3.96875 -0.15384,-1.20637 0.13346,-4.55434 0.50024,-5.82938 0.0824,-0.28634 -0.14225,0.0747 -0.49914,0.8023 -0.81346,1.65844 -0.86897,3.87299 -0.17407,6.94531 0.5343,2.3623 0.30027,2.85821 -0.49945,1.05834 -0.48333,-1.08779 -0.50024,-1.09886 -0.51832,-0.33926 -0.0103,0.43187 -0.13277,2.99171 -0.2722,5.68854 -0.13943,2.69683 -0.30679,6.12371 -0.3719,7.6153 l -0.11839,2.71198 1.23179,0.0313 c 0.67749,0.0172 1.58899,0.12219 2.02555,0.23328 0.43657,0.11108 0.90139,0.21606 1.03294,0.23328 0.1398,0.0183 0.1665,-1.48037 0.0643,-3.60672 z m -1.51229,2.28106 c -0.29985,-0.56026 -0.83984,-5.54609 -0.62405,-5.76188 0.28916,-0.28915 0.4787,0.40897 0.65738,2.42128 0.10667,1.20121 0.28085,2.57098 0.38707,3.04392 0.22084,0.98329 0.0221,1.12354 -0.4204,0.29668 z m 33.49703,-2.46008 c 0.19175,-1.53469 -0.27402,-9.48342 -0.69667,-11.88938 -0.37607,-2.14072 -2.28714,-8.48412 -3.03994,-10.09045 -0.79061,-1.68699 -1.84169,-2.94773 -3.36966,-4.04179 l -1.21056,-0.8668 -0.21172,0.99909 c -0.11645,0.5495 -0.18827,4.09471 -0.15961,7.87825 0.0433,5.71739 0.15032,7.44918 0.63358,10.25436 0.3198,1.85636 0.72232,3.56783 0.89448,3.80328 0.2732,0.37362 0.39097,0.29764 0.92556,-0.59706 0.76067,-1.27309 1.05156,-0.73988 0.39304,0.72045 -0.25741,0.57085 -0.40599,1.09994 -0.33017,1.17576 0.0758,0.0758 0.50348,-0.072 0.95036,-0.32846 0.98359,-0.5645 1.51007,-0.20033 0.59644,0.41257 -1.38324,0.92794 -1.63959,1.26603 -1.78566,2.35503 -0.12277,0.91538 -0.0724,1.12178 0.27369,1.12178 0.25643,0 0.51226,-0.34002 0.64697,-0.8599 0.12255,-0.47294 0.33431,-0.80036 0.47058,-0.7276 0.13628,0.0728 0.23327,0.19182 0.21555,0.26458 -0.39137,1.60681 -0.4908,1.48021 1.43246,1.82392 0.98252,0.17558 1.96238,0.43012 2.17745,0.56564 0.56806,0.35793 0.98963,-0.33888 1.19383,-1.97327 z m -8.23254,-17.56552 c 0.24678,-1.96564 1.28123,-5.14292 1.72227,-5.28994 0.26767,-0.0892 0.31429,0.0133 0.17117,0.37651 -0.10818,0.27452 -0.50372,1.68975 -0.87897,3.14495 -0.78336,3.03784 -1.28325,3.90927 -1.01447,1.76848 z m 13.50381,19.10441 c 1.576,-0.38476 2.34872,-0.86699 2.82987,-1.76603 0.91793,-1.71516 0.71252,-6.53127 -0.26162,-6.13427 -1.19386,0.48654 -2.23185,0.67965 -4.46919,0.83144 l -2.44149,0.16563 0.0602,2.80476 c 0.0331,1.54261 -0.0362,3.2607 -0.15414,3.81797 l -0.21437,1.01321 1.53729,-0.17396 c 0.84551,-0.0957 2.24654,-0.34712 3.11341,-0.55875 z m -13.96069,-7.87121 c -0.0759,-0.19787 -0.33469,-1.59686 -0.57502,-3.10885 -0.24033,-1.51199 -0.6557,-3.16579 -0.92305,-3.67512 -0.38575,-0.73486 -1.33091,-3.49348 -1.33091,-3.88448 0,-0.0464 0.10536,-0.0843 0.23413,-0.0843 0.12877,0 0.43794,0.62508 0.68703,1.38907 0.83736,2.56818 0.91933,2.29656 0.85831,-2.84428 -0.0328,-2.76489 0.0384,-5.9351 0.15827,-7.04491 l 0.21795,-2.01784 -0.85616,-0.29846 c -0.47089,-0.16416 -0.89555,-0.25908 -0.94369,-0.21094 -0.28263,0.28262 -0.61991,3.2579 -0.61681,5.44108 0.004,2.85802 0.16199,3.7342 0.67309,3.7342 0.47422,0 0.76383,0.51739 0.4598,0.82142 -0.43224,0.43224 -1.83768,0.72349 -2.22554,0.46121 -0.29778,-0.20137 -0.26262,-0.32052 0.18828,-0.63797 0.50857,-0.35806 0.53386,-0.51583 0.30563,-1.90657 -0.23997,-1.46223 -0.12334,-5.7009 0.20187,-7.33705 0.13247,-0.66643 0.0526,-0.84129 -0.49817,-1.09012 -0.58678,-0.26512 -0.67277,-0.22935 -0.81546,0.33918 -0.37915,1.51062 -0.62054,7.00276 -0.38892,8.84861 0.32382,2.58066 0.76281,3.85988 2.89595,8.43879 0.98299,2.11005 1.86795,4.10435 1.96659,4.43177 0.0986,0.32742 0.24359,0.59531 0.32212,0.59531 0.0785,0 0.0806,-0.1619 0.005,-0.35978 z m 15.47486,-0.43174 c 0.83689,-0.21648 1.19471,-0.43362 1.10402,-0.66996 -0.22059,-0.57486 -0.61756,-0.5889 -3.79668,-0.13435 -2.54301,0.36359 -3.05731,0.51471 -3.13561,0.92132 -0.0868,0.4509 0.0771,0.47605 2.24819,0.34483 1.28803,-0.0778 2.89906,-0.28568 3.58008,-0.46184 z m -1.29666,-2.04106 0.7868,-0.15736 -0.1859,-2.67221 c -0.10224,-1.46972 -0.32565,-3.50413 -0.49646,-4.5209 l -0.31057,-1.84868 -1.05834,-0.18659 c -1.46992,-0.25916 -5.10016,-0.26236 -5.25945,-0.005 -0.0722,0.11684 0.22546,1.57536 0.66149,3.24114 0.43604,1.66578 0.86379,3.84711 0.95056,4.8474 l 0.15777,1.8187 1.98365,-0.17975 c 1.09101,-0.0989 2.33771,-0.25057 2.77045,-0.33711 z m -37.42452,-9.4044 0.22378,-1.52135 h -0.7461 c -0.58222,0 -0.78389,0.15062 -0.9182,0.68575 -0.24437,0.97365 0.0597,5.3321 0.45975,6.59029 0.33486,1.0531 0.33756,1.04526 0.54676,-1.5875 0.11563,-1.45521 0.31094,-3.33044 0.43401,-4.16719 z m 1.59282,5.47028 c 0.36501,-0.80112 0.20535,-1.1708 -0.50567,-1.1708 -0.41053,0 -0.51356,0.18578 -0.51356,0.92604 0,1.11195 0.56256,1.24704 1.01923,0.24476 z m 16.66728,-0.57548 c 0.13819,-0.26371 0.14586,-0.71929 0.0178,-1.05834 -0.17329,-0.4589 -0.43398,-0.59531 -1.13772,-0.59531 -1.31962,0 -1.74996,0.23678 -1.74996,0.96287 0,1.06089 2.37619,1.63284 2.86984,0.69078 z m 18.81557,-5.95313 c -0.0206,-0.65475 -0.98679,-4.98801 -1.14808,-5.1493 -0.28995,-0.28995 -2.9957,-0.41092 -4.82034,-0.21552 l -1.76594,0.18911 0.15643,1.67515 c 0.086,0.92133 0.33248,2.09649 0.54765,2.61148 l 0.39122,0.93633 2.72943,0.0859 c 1.50119,0.0473 2.99732,0.11105 3.32474,0.14174 0.33383,0.0313 0.59073,-0.0895 0.58489,-0.27493 z m -36.66884,-1.85208 c 0.0877,-0.32742 0.16116,-0.85409 0.16315,-1.17036 0.002,-0.31628 0.43471,-1.13981 0.9616,-1.83007 1.09402,-1.43325 1.93721,-3.19638 1.3707,-2.86616 -1.05621,0.61567 -2.39734,1.85844 -2.75786,2.55561 -0.5946,1.14982 -1.20975,3.34445 -1.02241,3.64757 0.29913,0.484 1.12273,0.26824 1.28482,-0.33659 z m 4.2395,-2.46904 c 0.0883,-0.23018 0.1606,-0.92563 0.1606,-1.54545 0,-0.61981 0.17423,-1.70585 0.38717,-2.41341 0.21294,-0.70756 0.3425,-1.33114 0.28791,-1.38574 -0.0546,-0.0546 -0.4261,0.45845 -0.82557,1.14009 -0.98404,1.67913 -1.24849,4.62303 -0.41529,4.62303 0.13452,0 0.31685,-0.18834 0.40518,-0.41852 z m 23.8051,-2.98693 0.0769,-2.15108 -0.94665,-0.26297 c -1.34618,-0.37395 -1.52679,-0.33908 -1.70594,0.32939 -0.32869,1.22653 -0.14091,1.7449 1.09001,3.00892 0.69123,0.70981 1.29096,1.27622 1.33275,1.25868 0.0418,-0.0175 0.11059,-0.99986 0.1529,-2.18294 z m -18.29777,1.0212 c 1.46823,-0.38206 3.16788,-1.7537 4.21073,-3.39809 0.73633,-1.16108 0.73878,-1.17906 0.2531,-1.86222 -0.26972,-0.3794 -0.63714,-1.18043 -0.81648,-1.78006 l -0.32608,-1.09024 -0.92293,1.02157 c -1.48802,1.64707 -2.71597,1.79556 -5.39124,0.65194 -0.36181,-0.15467 -0.45335,0.14205 -0.6216,2.01488 -0.36955,4.11344 -0.38673,3.9936 0.64625,4.50908 0.5078,0.2534 1.10311,0.41496 1.32291,0.35902 0.21981,-0.0559 0.96021,-0.24759 1.64534,-0.42588 z m 21.64077,-0.23214 c 0,-0.29136 -1.76486,-0.64375 -2.12117,-0.42354 -0.59518,0.36784 -0.18431,0.65868 0.93054,0.65868 0.65485,0 1.19063,-0.10582 1.19063,-0.23514 z m -14.80993,-1.15393 c 0.16045,-0.61846 0.40012,-1.53518 0.53261,-2.03715 0.18915,-0.71665 0.14829,-1.01499 -0.19024,-1.38906 -0.64005,-0.70725 -1.06698,-0.58197 -1.39406,0.40911 -0.16073,0.48702 -0.65231,1.45327 -1.0924,2.14721 -0.88352,1.39317 -0.88455,1.33544 0.0304,1.70066 1.37015,0.54693 1.80015,0.37793 2.11372,-0.83077 z m 19.04326,0.62771 c 0,-0.1277 -0.19704,-0.39559 -0.43786,-0.59531 -1.2341,-1.02347 -1.57575,-4.9547 -0.61466,-7.07275 0.63675,-1.40328 0.64645,-1.52658 0.0835,-1.06183 -0.66596,0.54977 -1.3768,2.35013 -1.56706,3.96898 -0.13783,1.17271 -0.0569,1.71059 0.42664,2.83454 0.32821,0.76296 0.84454,1.56075 1.14739,1.77287 0.62601,0.43848 0.96207,0.49209 0.96207,0.1535 z m -2.38125,-0.43858 c 0,-0.0779 -0.20836,-0.45959 -0.46302,-0.84826 -0.70462,-1.07539 -0.63647,-4.56787 0.12137,-6.22003 0.62277,-1.35768 0.50773,-1.56504 -0.39938,-0.71993 -0.90476,0.84291 -1.42188,2.06563 -1.57151,3.71579 -0.16402,1.80881 -0.005,2.56433 0.7385,3.50958 0.47334,0.60177 1.57404,0.99536 1.57404,0.56285 z m -2.91696,-1.06625 c -0.33118,-0.87107 -0.33228,-3.42245 -0.002,-4.61473 0.22948,-0.82835 0.21694,-0.87262 -0.12076,-0.42648 -0.42346,0.55945 -0.89022,2.66718 -0.94442,4.26469 -0.05,1.47455 -0.0589,1.45521 0.67028,1.45521 0.59368,0 0.63078,-0.0635 0.39688,-0.67869 z m 8.88359,-0.23886 c 0.21085,-0.50465 0.3716,-1.24879 0.35721,-1.65364 -0.0223,-0.62679 -0.0803,-0.56361 -0.3908,0.42543 -0.20056,0.63884 -0.43494,1.38299 -0.52084,1.65365 -0.27245,0.85841 0.15507,0.53035 0.55443,-0.42544 z m -13.54561,-4.70485 c 0.79948,-2.84206 0.83378,-3.10885 0.39962,-3.10885 -0.65892,0 -0.84108,0.43643 -1.85369,4.44111 -0.7723,3.05431 -0.83678,3.54773 -0.49193,3.7643 0.44041,0.27657 0.41804,0.33516 1.946,-5.09656 z m 11.51517,4.05199 c 0.65228,-1.51627 0.66298,-1.62209 0.25469,-2.51819 -0.46101,-1.01181 -0.77948,-0.81115 -0.59029,0.37194 0.22356,1.39807 -0.0473,2.39374 -0.6511,2.39374 -0.66738,0 -0.88219,0.28315 -0.53353,0.70326 0.53001,0.63862 0.94931,0.3764 1.52023,-0.95075 z m -14.5195,-0.42958 c 0,-0.29957 -0.41103,-0.37505 -1.91823,-0.35227 -1.71427,0.0259 -1.8057,0.0518 -0.8599,0.24384 0.58209,0.11816 1.35599,0.32926 1.71979,0.46911 0.75505,0.29023 1.05834,0.18687 1.05834,-0.36068 z m 16.28124,-1.49502 c 0.23224,-1.37462 -0.45692,-2.39496 -1.75613,-2.60004 -1.78936,-0.28245 -2.35428,0.29164 -2.35428,2.39249 0,1.09099 0.3847,1.57161 0.86972,1.08659 0.21621,-0.21621 0.21008,-0.37882 -0.023,-0.61195 -0.49528,-0.49528 -0.37368,-1.66632 0.22975,-2.2124 0.4985,-0.45114 0.60987,-0.46011 1.25027,-0.10066 1.16312,0.65284 1.54844,1.60529 1.19172,2.94576 -0.25897,0.97313 -0.25101,1.06866 0.0543,0.65258 0.19675,-0.26808 0.43869,-0.96665 0.53765,-1.55237 z m -10.35823,-0.64014 c 0.15919,-1.35439 0.10629,-1.60593 -0.53116,-2.52577 -0.38938,-0.56187 -0.75137,-0.97818 -0.80442,-0.92513 -0.0531,0.053 -0.37728,1.0624 -0.72052,2.24301 l -0.62406,2.14656 1.09055,0.37191 c 0.59981,0.20455 1.16307,0.33179 1.25169,0.28276 0.0886,-0.049 0.24069,-0.76603 0.33792,-1.59334 z m -5.37869,-0.18363 c 0.15935,-0.60785 0.55698,-1.99815 0.88362,-3.08956 0.58967,-1.97034 0.60076,-1.98495 1.56734,-2.06649 2.72738,-0.23007 -0.46803,-1.11131 -4.00049,-1.10327 -5.63778,0.0128 -7.46146,0.79546 -7.46146,3.20204 0,0.69091 0.11527,1.55938 0.25616,1.92994 0.21752,0.57213 0.37403,0.65018 1.03758,0.51747 0.65211,-0.13042 0.96232,0.0127 1.87474,0.86483 l 1.09333,1.02111 2.22972,-0.0854 2.22972,-0.0854 z m -12.71569,-1.1049 c 1.56669,-0.81017 2.86533,-3.13502 3.08897,-5.52993 0.12658,-1.35552 0.0623,-1.83811 -0.33425,-2.50943 -0.47532,-0.80464 -0.54327,-0.82894 -2.13037,-0.76166 -1.41106,0.0598 -1.73153,-0.0171 -2.30095,-0.55196 -0.6025,-0.56596 -0.80453,-0.94276 -1.36917,-2.55355 l -0.18549,-0.52917 -0.21759,0.52917 c -0.31702,0.77098 -0.29958,2.46463 0.0318,3.08373 0.24217,0.4525 0.21266,0.52117 -0.19056,0.44352 -0.29097,-0.056 -0.58626,-0.48099 -0.75695,-1.08937 l -0.27987,-0.99748 -0.7202,1.46847 c -1.32582,2.70329 -0.74093,5.96283 1.4302,7.97035 1.62969,1.50688 2.54494,1.74586 3.93447,1.02731 z m 27.4363,-1.61029 c -0.82381,-0.70906 -1.55821,-0.8175 -1.9925,-0.2942 -0.22555,0.27176 -0.0857,0.35042 0.66046,0.37157 0.52061,0.0148 1.13371,0.21398 1.36244,0.44271 0.22874,0.22873 0.4825,0.34905 0.56392,0.26737 0.0814,-0.0817 -0.18602,-0.43603 -0.59432,-0.78745 z m -6.12948,-1.73596 c 0.98943,-0.35778 1.0666,-0.51354 0.64482,-1.30163 -0.48339,-0.90324 -1.58044,-0.63012 -3.49424,0.86993 l -0.99001,0.77598 0.69947,0.91705 0.69948,0.91706 0.76088,-0.92309 c 0.41849,-0.5077 1.17431,-1.07258 1.6796,-1.2553 z m -1.20325,-2.47319 c 0.79269,-0.25158 0.64786,-1.98605 -0.16584,-1.98605 -0.89066,0 -2.46859,1.07555 -2.62485,1.78916 -0.0873,0.39841 -0.20448,0.87321 -0.26052,1.05511 -0.056,0.1819 -0.0365,0.5012 0.0435,0.70954 0.112,0.29188 0.41248,0.17492 1.30932,-0.50966 0.64018,-0.48865 1.40446,-0.9648 1.69841,-1.0581 z m -15.60512,-0.29749 c 0,-0.3736 -0.11514,-0.59029 -0.26458,-0.49793 -0.14552,0.0899 -0.26459,0.46117 -0.26459,0.82497 0,0.3736 0.11515,0.5903 0.26459,0.49794 0.14552,-0.0899 0.26458,-0.46118 0.26458,-0.82498 z m 11.80445,-0.0349 c 0.0951,-0.40018 0.35459,-0.93669 0.57669,-1.19225 0.22209,-0.25555 0.35493,-0.50587 0.29519,-0.55627 -0.44656,-0.37673 -3.33143,-0.77798 -6.32633,-0.87992 -3.26958,-0.11128 -3.64465,-0.0755 -4.43177,0.42273 -0.74182,0.46955 -0.8599,0.69325 -0.8599,1.62908 v 1.0848 l 2.05053,-0.20888 c 2.61067,-0.26595 6.3149,-0.20125 7.34218,0.12825 1.15444,0.37027 1.16463,0.36705 1.35341,-0.42754 z m 1.95388,-2.44739 c -0.21828,-0.14107 -0.51593,-0.25648 -0.66145,-0.25648 -0.14552,0 -0.086,0.11541 0.13229,0.25648 0.21828,0.14106 0.51594,0.25648 0.66146,0.25648 0.14552,0 0.086,-0.11542 -0.1323,-0.25648 z M 438.42487,109.378 c -0.26419,-0.29194 -0.53774,-0.47341 -0.60787,-0.40327 -0.17778,0.17778 0.48213,0.93406 0.81504,0.93406 0.15025,0 0.057,-0.23886 -0.20717,-0.53079 z"
       style="fill:#1e287c;fill-opacity:1"
       id="path1" /></g></svg>
