<?xml version="1.0" encoding="UTF-8" standalone="no"?>
<!-- Created with Inkscape (http://www.inkscape.org/) -->

<svg
   width="207.90137mm"
   height="187.79568mm"
   viewBox="0 0 207.90137 187.79568"
   version="1.1"
   id="svg1"
   xml:space="preserve"
   xmlns:inkscape="http://www.inkscape.org/namespaces/inkscape"
   xmlns:sodipodi="http://sodipodi.sourceforge.net/DTD/sodipodi-0.dtd"
   xmlns="http://www.w3.org/2000/svg"
   xmlns:svg="http://www.w3.org/2000/svg"><sodipodi:namedview
     id="namedview1"
     pagecolor="#ffffff"
     bordercolor="#000000"
     borderopacity="0.25"
     inkscape:showpageshadow="2"
     inkscape:pageopacity="0.0"
     inkscape:pagecheckerboard="0"
     inkscape:deskcolor="#d1d1d1"
     inkscape:document-units="mm" /><defs
     id="defs1" /><g
     inkscape:label="Layer 1"
     inkscape:groupmode="layer"
     id="layer1"
     transform="translate(-15.790364,-13.934391)"><rect
       style="fill:#f9f4ec;fill-opacity:1;stroke-width:1.79062;stroke-linejoin:round"
       id="rect1"
       width="207.90137"
       height="187.79568"
       x="15.790363"
       y="13.93439" /><path
       style="fill:#1e287c;fill-opacity:1;stroke-width:0.763432"
       d="m 78.210626,175.55505 c -0.888762,-0.0882 -2.024962,-0.30952 -2.524891,-0.4919 -1.534208,-0.55971 -3.488748,-1.83796 -4.588624,-3.00092 -2.185907,-2.31127 -3.034342,-4.34217 -3.223968,-7.71723 l -0.113488,-2.01991 1.322389,-1.16145 c 0.727313,-0.6388 1.365733,-1.16145 1.418711,-1.16145 0.05298,0 0.154146,0.97713 0.22482,2.17141 0.185584,3.1361 0.466999,4.63388 1.133112,6.03079 0.729687,1.53023 2.012929,2.74128 3.781747,3.56901 1.274664,0.59648 1.503625,0.63367 4.682079,0.76035 1.838032,0.0733 7.20496,0.12312 11.926507,0.11079 8.4867,-0.0221 8.59795,-0.0278 9.75261,-0.49159 2.24851,-0.90323 3.66653,-2.39178 4.60217,-4.83108 0.43789,-1.1416 0.44528,-1.33878 0.49376,-13.17743 0.0271,-6.61016 0.0831,-12.38207 0.12451,-12.82644 0.0438,-0.47038 -0.009,-0.79048 -0.12669,-0.76609 -0.1111,0.023 -1.0655,0.39916 -2.12091,0.83585 -1.0554,0.43668 -3.14601,1.07332 -4.6458,1.41475 -2.360766,0.53744 -3.391312,0.65119 -7.675668,0.84727 -3.11661,0.14264 -5.133711,0.15642 -5.448276,0.0372 -0.495746,-0.18787 -0.490029,-0.19915 0.762811,-1.50384 l 1.262299,-1.31456 3.378011,-0.11084 c 3.57892,-0.11743 7.240615,-0.65123 9.538743,-1.39054 1.41414,-0.45494 4.18456,-1.77678 5.12239,-2.44405 0.53081,-0.37766 0.56808,-0.48626 0.46019,-1.3409 -0.0646,-0.51148 -0.13273,-3.63398 -0.15147,-6.9389 l -0.0341,-6.00894 0.9078,-0.85876 c 0.49928,-0.47232 1.00516,-1.0398 1.12417,-1.26106 0.81651,-1.51815 0.90846,1.3491 0.78427,24.45712 -0.10391,19.3346 -0.15151,21.73625 -0.44839,22.62302 -0.95337,2.84772 -2.97529,5.29285 -5.44198,6.58105 -2.70667,1.41352 -2.6644,1.40914 -14.240387,1.47783 -5.721403,0.034 -11.129718,-0.0104 -12.01848,-0.0986 z m 56.759554,0.046 c -1.22205,-0.0305 -5.35782,-0.12548 -9.19061,-0.21105 -6.53868,-0.14596 -7.01855,-0.18191 -7.77666,-0.5825 -1.39465,-0.73693 -1.97305,-1.51156 -2.07855,-2.78369 -0.0776,-0.93622 -0.0151,-1.23074 0.387,-1.82182 0.94009,-1.38202 3.03154,-2.16637 12.39709,-4.64924 3.96751,-1.05181 5.95763,-1.9455 7.2824,-3.27027 1.68539,-1.68539 2.46607,-3.31831 2.88078,-6.0256 0.11841,-0.773 0.26796,-6.03843 0.33235,-11.70095 0.0644,-5.66251 0.18558,-10.36399 0.26932,-10.44774 0.0837,-0.0837 0.69548,0.33348 1.35941,0.92716 l 1.20716,1.07942 0.0604,6.23746 c 0.0785,8.11266 -0.19742,13.79496 -0.76877,15.83204 -0.71188,2.53813 -1.91446,4.78119 -3.31338,6.1801 -2.10335,2.10336 -4.05804,2.86708 -13.14747,5.13687 -5.93831,1.48291 -5.75223,1.42114 -5.88595,1.95392 -0.0667,0.26583 -0.0587,0.54595 0.0178,0.62247 0.48544,0.48544 31.73559,0.70027 43.29243,0.29763 4.38953,-0.15294 5.15406,-0.22623 5.45035,-0.52252 0.64637,-0.64637 0.0985,-0.99752 -2.59589,-1.66384 -1.37852,-0.3409 -3.37067,-0.90917 -4.42699,-1.26283 -1.05632,-0.35366 -2.60398,-0.77377 -3.43923,-0.93358 -1.98668,-0.38011 -5.47073,-1.74495 -6.81908,-2.6713 -2.54055,-1.74542 -4.16213,-4.48715 -5.00979,-8.47052 -0.44897,-2.1098 -0.53354,-3.16781 -0.69264,-8.66497 -0.23214,-8.02063 -0.235,-9.1906 -0.0224,-9.1906 0.0959,0 0.75043,0.52979 1.45445,1.17731 l 1.28004,1.17731 0.14671,5.74089 c 0.18454,7.22077 0.2711,8.10809 1.01691,10.42444 1.40878,4.37545 3.72142,6.21961 9.60157,7.65657 8.66176,2.11672 10.73041,2.85287 11.96811,4.25897 1.75004,1.98815 1.07628,4.09811 -1.70624,5.34328 -0.89427,0.40018 -1.49584,0.46962 -5.25177,0.60622 -4.42548,0.16097 -24.42319,0.31721 -28.27878,0.22096 z m -4.24182,-4.21971 c -0.67435,-0.18547 -0.90896,-0.48967 -0.90896,-1.17859 0,-0.99443 0.42055,-1.21194 2.34317,-1.21194 0.92149,0 1.76664,0.091 1.87811,0.20216 0.22615,0.22558 -0.022,1.63806 -0.34438,1.96048 -0.22599,0.22598 -2.37492,0.39098 -2.96794,0.22789 z m 4.85924,-0.51656 c -0.42182,-0.60224 -0.39607,-1.00875 0.10421,-1.64475 0.35172,-0.44715 0.57877,-0.53221 1.42042,-0.53221 0.55098,0 1.32324,0.13431 1.71612,0.29847 0.60395,0.25234 0.70439,0.38399 0.64998,0.85193 -0.0976,0.83947 -1.1781,1.47549 -2.50666,1.47549 -0.87634,0 -1.12645,-0.0811 -1.38407,-0.44893 z m 12.91599,0.27997 c -0.65435,-0.12393 -0.90896,-0.44437 -0.90896,-1.14399 0,-1.16214 0.10641,-1.1822 5.63376,-1.06203 4.47473,0.0973 5.11594,0.1537 5.95233,0.52368 0.51555,0.22805 0.93737,0.49656 0.93737,0.59668 0,0.26918 -0.63907,0.78212 -1.18023,0.94731 -0.49222,0.15025 -9.72505,0.27266 -10.43427,0.13835 z m -48.26446,-0.48201 c -0.46263,-0.66049 -0.399891,-0.87956 0.51347,-1.79292 0.45535,-0.45535 1.11435,-1.43248 1.46444,-2.1714 l 0.63652,-1.3435 0.0502,-10.38635 c 0.0439,-9.08286 0.0898,-10.43007 0.36557,-10.73479 0.3915,-0.43261 1.31709,-0.62744 1.65462,-0.34829 0.19604,0.16213 0.25249,2.54328 0.25249,10.65097 0,11.31162 -0.021,11.56088 -1.13566,13.46664 -0.57926,0.9904 -2.74659,3.10857 -3.18071,3.10857 -0.16859,0 -0.44802,-0.20202 -0.62097,-0.44893 z m -18.216777,-0.074 c -1.136835,-0.56079 -3.393816,-2.64793 -4.055663,-3.75045 -1.113996,-1.85573 -1.278576,-2.92606 -1.284105,-8.35101 l -0.005,-4.84779 0.657865,-0.55547 c 0.721135,-0.6089 1.068057,-0.68867 1.317675,-0.30299 0.08988,0.13886 0.168829,2.3431 0.175448,4.89829 0.01253,4.83693 0.195844,6.39264 0.921675,7.8218 0.84935,1.67236 2.967435,3.10188 5.456268,3.68249 1.505003,0.35109 1.722784,0.53221 1.204237,1.00148 -0.799789,0.7238 -3.277477,0.9517 -4.38846,0.40365 z m 12.064607,0.0421 c -0.13816,-0.16647 -0.221909,-0.55487 -0.186108,-0.8631 0.05209,-0.44844 0.30728,-0.69576 1.277041,-1.23763 1.593961,-0.89067 2.422451,-1.7145 3.088983,-3.07165 0.536521,-1.09242 0.54686,-1.1864 0.54686,-4.97063 0,-2.97229 0.0636,-3.93383 0.277222,-4.19133 0.325817,-0.39272 0.817817,-0.42477 1.531192,-0.0997 l 0.51449,0.23442 v 3.68314 c 0,3.99188 -0.26564,5.45167 -1.326435,7.28926 -0.435224,0.75393 -2.418156,2.51723 -3.428919,3.04913 -0.772906,0.40673 -2.02399,0.50386 -2.294326,0.17813 z m -18.121579,-0.49608 c -1.010168,-0.73176 -2.17,-2.42196 -2.725535,-3.97186 -0.36716,-1.02435 -0.448779,-1.79038 -0.527291,-4.94878 l -0.09289,-3.73684 1.028057,-1.00236 c 0.565431,-0.55131 1.041893,-0.96034 1.058803,-0.90897 0.01691,0.0514 0.09079,2.13856 0.164169,4.63821 0.155203,5.28672 0.321009,5.93513 2.016028,7.88393 1.025312,1.17883 1.260075,1.89568 0.778528,2.37723 -0.379679,0.37968 -0.84409,0.28936 -1.699869,-0.33056 z m 74.454969,-1.93887 c -0.96471,-0.35568 -3.14437,-1.46556 -4.02395,-2.04901 -0.95688,-0.63471 -2.31541,-2.40436 -3.04861,-3.97118 -0.56086,-1.19851 -0.57982,-1.32265 -0.34474,-2.25634 0.45269,-1.79799 1.26813,-1.73337 1.87831,0.14885 0.91502,2.8225 2.4838,4.79777 4.83472,6.08745 2.71629,1.49011 2.74561,1.51274 2.51595,1.94184 -0.2376,0.44397 -0.79259,0.47411 -1.81168,0.0984 z m -68.601462,-3.41941 c -0.468281,-0.4028 -0.555086,-0.63599 -0.555086,-1.49111 0,-1.6667 0.802735,-2.45415 1.902029,-1.86583 0.820708,0.43923 0.989417,2.66483 0.262863,3.46766 -0.448341,0.49541 -0.944829,0.46126 -1.609806,-0.11072 z m -22.545884,-0.5217 c -1.638668,-1.03921 -2.421741,-2.74888 -2.083897,-4.54974 0.109039,-0.58123 0.749082,-1.36214 3.197404,-3.90113 4.44252,-4.607 34.714275,-35.23567 41.966929,-42.4617 5.5814,-5.56091 9.25558,-9.43872 9.05746,-9.55942 -0.63353,-0.38593 -2.80166,-2.48374 -16.63699,-16.09739 C 91.441054,84.405945 86.021927,79.161371 82.731407,76.03079 79.440886,72.900209 72.85092,66.38484 68.087039,61.552195 59.154342,52.490558 58.314485,51.498447 58.314485,50.008025 c 0,-2.007163 1.690327,-3.516059 3.93883,-3.516059 2.209133,0 3.810724,1.355201 11.67569,8.989374 l 43.346175,42.074209 c 0.38368,0.372417 40.97966,-40.185169 47.13973,-46.591637 1.47092,-1.529753 6.03822,-5.602214 6.76645,-6.033347 1.22618,-0.725936 1.97969,-0.544601 3.15114,0.758338 0.49952,0.555587 1.01652,1.3383 1.14887,1.739362 0.37296,1.130062 0.1355,3.072077 -0.52375,4.283328 -0.85433,1.569686 -5.76197,6.837011 -11.30468,12.133225 -1.55534,1.486162 -8.0544,7.84869 -14.44238,14.138953 -6.38797,6.290261 -14.3695,14.114189 -17.73672,17.386507 -3.36722,3.272317 -6.58759,6.484712 -7.15638,7.138662 l -1.03415,1.189 1.19763,1.13295 c 2.45399,2.32147 16.28482,15.82591 26.81845,26.18555 5.98693,5.88804 11.89739,11.64969 13.13437,12.80367 3.3175,3.09488 11.41226,11.32806 13.46807,13.69836 1.88856,2.17749 2.17563,2.80742 1.94028,4.25769 -0.33751,2.07983 -3.0876,3.59592 -5.23638,2.88677 -1.01656,-0.3355 -2.25089,-1.46263 -9.94284,-9.07934 -3.77724,-3.7403 -7.64031,-7.46889 -8.58463,-8.28576 -0.94431,-0.81688 -4.85283,-4.58791 -8.68562,-8.38009 -3.83278,-3.79217 -8.28623,-8.16661 -9.89654,-9.72098 -1.61031,-1.55437 -6.69109,-6.53013 -11.29061,-11.05726 -4.59953,-4.52713 -8.4454,-8.23114 -8.54638,-8.23114 -0.10099,0 -5.87397,5.74917 -12.82885,12.77594 -18.193914,18.38199 -37.547736,37.61322 -40.314256,40.05893 -2.313256,2.045 -2.41127,2.10675 -3.343808,2.10675 -0.716569,0 -1.199183,-0.15124 -1.899192,-0.59518 z m 3.10403,-3.00068 c 0.886605,-0.73337 27.035469,-26.84473 41.204306,-41.14521 6.05398,-6.11024 12.19414,-12.47296 13.64478,-14.13938 1.55649,-1.78803 7.80312,-8.101048 15.24058,-15.402554 29.0341,-28.5034 39.0314,-38.38866 39.88509,-39.438086 1.1252,-1.383198 1.48163,-2.494053 0.9786,-3.049899 -0.45036,-0.497649 -0.78633,-0.484248 -1.56662,0.06249 -0.67162,0.47059 -13.31786,12.808728 -27.39829,26.730764 -4.61194,4.560064 -9.567,9.418794 -11.01123,10.797179 -6.66658,6.362606 -15.28948,15.038476 -18.26895,18.381176 -1.91819,2.15204 -18.68142,19.20431 -38.916681,39.58771 -6.122387,6.16721 -12.235148,12.39345 -13.583913,13.8361 -2.557075,2.73507 -2.810589,3.21101 -2.118006,3.97631 0.474627,0.52446 1.118758,0.45817 1.910334,-0.19659 z m 114.380446,0.1541 c 0.36326,-0.33742 -0.1261,-1.25778 -1.47484,-2.77379 -1.92164,-2.15994 -10.46011,-10.57785 -40.11047,-39.54411 -12.8166,-12.52086 -13.76075,-13.42376 -14.037,-13.42376 -0.24725,0 -1.79511,1.58739 -1.81103,1.85729 -0.005,0.0772 0.92105,1.0316 2.05692,2.12091 5.78348,5.54639 8.66005,8.34176 14.29609,13.89255 10.03698,9.88516 16.52988,16.23318 22.52514,22.02252 3.10626,2.99957 7.69401,7.4636 10.195,9.92006 2.50098,2.45647 4.87712,4.75137 5.28029,5.09977 1.26356,1.09191 2.45214,1.41166 3.0799,0.82858 z M 114.86602,99.879144 C 114.87262,99.403282 104.02569,88.667235 93.763954,78.992781 87.178146,72.783882 82.437158,68.143748 73.766818,59.42104 70.322867,55.956288 66.478689,52.167754 65.2242,51.002075 c -2.023578,-1.880322 -2.353276,-2.112347 -2.922572,-2.056753 -0.771947,0.07538 -1.287657,0.836555 -1.092797,1.612935 0.166701,0.664192 21.885373,22.259126 32.353132,32.168808 2.332999,2.208618 7.725177,7.478184 11.982607,11.710148 l 7.7408,7.694477 0.78731,-0.90896 c 0.43302,-0.49993 0.79002,-1.10454 0.79334,-1.343586 z m 2.11775,62.253136 c -0.61723,-0.61723 -0.62317,-0.93005 -0.0283,-1.48891 0.55013,-0.51682 1.14387,-0.55638 1.96643,-0.13102 0.7671,0.39669 0.79435,1.12237 0.0637,1.69708 -0.70601,0.55535 -1.39595,0.52876 -2.00186,-0.0771 z m 2.87036,-0.7512 c -0.14409,-0.551 -0.0114,-0.77292 0.46199,-0.77292 0.50155,0 0.66941,0.52337 0.28966,0.90312 -0.42165,0.42165 -0.61614,0.38796 -0.75165,-0.1302 z m -38.02792,-3.95737 c -0.300483,-0.20064 -0.686711,-0.95828 -0.686711,-1.34707 0,-0.94059 1.787199,-1.5325 2.214798,-0.73353 0.524136,0.97936 0.09738,2.23691 -0.757468,2.23209 -0.301603,-0.002 -0.648382,-0.0699 -0.770619,-0.15149 z m 51.32604,-1.25099 c -0.77766,-0.43684 -2.1411,-1.34444 -3.02987,-2.01688 -0.88876,-0.67245 -1.72346,-1.22279 -1.85489,-1.22299 -0.13143,-2e-4 -0.5794,0.4151 -0.99549,0.92288 -1.1942,1.45737 -2.03666,1.80633 -4.32031,1.78954 -3.01475,-0.0221 -4.63873,-0.82157 -7.61389,-3.74796 -2.59159,-2.5491 -3.25506,-3.94181 -2.557,-5.36747 0.44716,-0.91326 1.5675,-1.59483 2.92935,-1.78213 1.37388,-0.18896 1.57357,-0.52427 0.85266,-1.43173 -1.78526,-2.24723 -2.33378,-3.29124 -2.9225,-5.56244 -0.3815,-1.47178 -0.42282,-2.04115 -0.32757,-4.51365 0.16513,-4.28637 0.77251,-5.7583 2.37612,-5.7583 1.17228,0 5.90911,2.92041 7.86301,4.84779 1.45181,1.43212 1.77074,1.9207 2.95669,4.52941 l 0.36031,0.79257 0.7178,-0.86541 c 1.92574,-2.32176 2.31229,-2.66066 3.16521,-2.77506 1.14293,-0.15331 2.17288,0.36881 2.80785,1.42338 0.27617,0.45867 0.87775,1.78835 1.33683,2.95485 1.3953,3.54536 1.30269,6.47219 -0.28362,8.96425 -0.71063,1.11638 -2.0015,2.14527 -2.69149,2.14527 -0.57241,0 -1.0921,-0.70447 -1.0921,-1.48043 0,-0.43485 0.25051,-0.82043 0.98785,-1.52049 0.79401,-0.75387 1.02933,-1.13631 1.19924,-1.94901 0.36766,-1.75866 -0.42715,-5.84208 -1.3618,-6.99632 -0.38166,-0.47134 -0.38403,-0.47155 -0.82145,-0.0757 -0.47206,0.42721 -1.82176,2.72259 -1.82176,3.0982 0,0.1435 0.21555,0.18492 0.58148,0.11174 0.31981,-0.064 0.63911,-0.0231 0.70954,0.0909 0.20981,0.33947 -0.28458,4.1388 -0.60258,4.63077 -0.21257,0.32886 -0.48927,0.45448 -1.00108,0.45448 -0.96597,0 -1.15199,-0.53193 -0.89495,-2.55925 0.10803,-0.85202 0.17396,-1.56129 0.14653,-1.57615 -0.0274,-0.0149 -0.4452,-0.1991 -0.92835,-0.4094 -1.03086,-0.44872 -1.43998,-0.95393 -2.8625,-3.53485 -1.31474,-2.38539 -2.32057,-3.60324 -3.90971,-4.73386 -1.4472,-1.02964 -3.75971,-2.40529 -3.8655,-2.2995 -0.0404,0.0404 -0.18828,0.86782 -0.32866,1.83875 -0.56273,3.892 0.45271,6.8561 3.77439,11.01756 0.48947,0.61322 0.69776,1.08052 0.69776,1.56543 0,1.12863 -0.7966,1.70831 -2.92141,2.12589 -0.55958,0.10998 -1.22194,0.24294 -1.4719,0.29547 -0.80853,0.16994 -0.54126,0.86235 0.84465,2.18821 3.40902,3.26132 6.68846,3.95027 8.95193,1.88061 0.61167,-0.5593 0.57468,-0.86359 -0.22359,-1.83927 -0.97472,-1.19138 -1.91745,-2.72407 -3.30516,-5.37358 -0.66916,-1.27759 -1.74302,-3.23186 -2.38636,-4.34281 -1.52759,-2.63793 -2.03517,-4.32549 -1.53717,-5.11062 0.13404,-0.21131 0.27363,-0.2141 0.71229,-0.0143 0.56802,0.25881 1.5561,1.80257 4.74836,7.41874 2.28347,4.01733 2.42086,4.19412 5.91006,7.60487 2.60117,2.54268 3.32858,3.13759 4.5147,3.69235 2.26633,1.05998 2.41776,1.15112 2.48396,1.49487 0.0346,0.17969 -0.0737,0.65378 -0.24075,1.05351 -0.28223,0.67546 -0.36503,0.7266 -1.17245,0.72412 -0.63336,-0.002 -1.2519,-0.21789 -2.28271,-0.79693 z m -51.55827,-2.13377 c -0.389273,-0.27529 -0.453559,-0.50089 -0.448057,-1.57239 0.007,-1.36312 0.239017,-1.83089 1.063661,-2.14441 0.927157,-0.35251 1.176709,0.13762 1.108865,2.17784 l -0.05804,1.74545 -0.605974,0.0575 c -0.333285,0.0316 -0.810489,-0.0872 -1.060453,-0.26395 z m 17.195635,-0.22168 c -0.0759,-0.30242 -0.08111,-2.14771 -0.01157,-4.10066 0.117496,-3.30001 0.156905,-3.57579 0.557917,-3.90431 0.685418,-0.5615 1.176998,-0.4452 1.512538,0.35786 0.23261,0.55673 0.28525,1.51169 0.24218,4.39331 l -0.055,3.68197 -1.054013,0.0608 c -0.999527,0.0577 -1.061146,0.0324 -1.192012,-0.489 z m 21.661285,-3.11363 c -1.22016,-0.36533 -2.04265,-1.77648 -1.21952,-2.09234 0.56983,-0.21867 2.99925,-0.12375 3.51832,0.13746 0.62213,0.31307 0.79042,1.34455 0.29947,1.8355 -0.35732,0.35732 -1.61117,0.41493 -2.59827,0.11938 z m -52.337532,-6.85702 c -0.06739,-0.10904 -0.126924,-10.90296 -0.132293,-23.98646 -0.0097,-23.621348 -0.0067,-23.803084 0.427409,-25.909115 0.700942,-3.400575 2.233999,-6.790715 4.293102,-9.493591 0.550124,-0.722118 2.106308,-2.403696 3.458187,-3.736838 1.891275,-1.865062 2.599999,-2.715443 3.074039,-3.688461 l 0.616077,-1.264565 1.489676,1.3762 c 1.05014,0.970145 1.452802,1.472294 1.3647,1.701883 -0.06874,0.179126 -1.50029,1.432075 -3.181228,2.784332 -2.501017,2.011981 -3.305415,2.794891 -4.427751,4.309477 -1.755965,2.369664 -2.486907,3.685685 -3.149761,5.670974 -1.021849,3.060498 -1.143725,4.194011 -1.131248,10.521234 0.01342,6.80561 0.09608,7.78925 0.701524,8.34837 1.536062,1.41852 6.977413,3.19631 11.54518,3.77204 2.326025,0.29318 7.198922,0.4115 8.885052,0.21574 0.44438,-0.0516 1.267775,-0.14499 1.829766,-0.20757 0.561991,-0.0626 1.914363,-0.34017 3.005271,-0.6169 2.318002,-0.58801 2.414863,-0.59694 2.265907,-0.20876 -0.251053,0.65423 -2.618819,3.31752 -3.124856,3.51488 -0.29823,0.1163 -2.223814,0.26879 -4.279075,0.33886 -3.825424,0.13042 -7.607956,-0.12955 -11.809034,-0.8116 -2.040701,-0.33132 -6.367505,-1.52181 -7.74414,-2.13076 -0.494614,-0.2188 -0.97864,-0.39781 -1.075613,-0.39781 -0.09822,0 -0.176315,4.77254 -0.176315,10.77523 0,12.22843 -0.178433,11.06568 1.817922,11.84628 0.611024,0.23891 1.197303,0.51878 1.302844,0.62193 0.105541,0.10315 0.355504,0.18754 0.555476,0.18754 0.477167,0 0.461439,0.47828 -0.05051,1.53582 -0.647295,1.33713 -0.780078,1.38463 -2.227111,0.79664 -0.695549,-0.28262 -1.308019,-0.47048 -1.361043,-0.41746 -0.05302,0.0531 -0.08002,0.69198 -0.06,1.41991 l 0.03641,1.32349 -1.030418,1.00366 c -1.01193,0.98565 -1.464788,1.19918 -1.708154,0.8054 z M 169.25716,138.9446 c -0.72082,-0.90097 -0.30016,-1.96941 0.77538,-1.96941 1.0771,0 1.59732,1.18928 0.82568,1.8876 -0.43618,0.39474 -1.31479,0.43963 -1.60106,0.0818 z m -4.0512,-1.16932 c -0.86773,-0.80841 -0.32576,-2.01204 0.90597,-2.01204 1.04722,0 1.59706,1.04602 1.06874,2.03319 -0.28431,0.53124 -1.39455,0.51936 -1.97471,-0.0211 z m -11.30234,-7.45368 c -0.35928,-0.5488 -0.65324,-1.04116 -0.65324,-1.09414 0,-0.053 0.71365,-0.59638 1.58589,-1.20756 0.87223,-0.61119 1.89481,-1.50153 2.2724,-1.97854 0.37758,-0.477 1.3572,-1.64335 2.17693,-2.59189 2.7224,-3.15022 4.47789,-6.10766 6.6841,-11.26049 0.58074,-1.3564 1.18871,-2.57641 1.35105,-2.71114 0.2058,-0.1708 0.45965,-0.18745 0.83856,-0.055 0.6521,0.22796 0.80188,0.97934 0.43829,2.19879 -0.71169,2.38702 -3.79213,8.78158 -4.97996,10.33772 -0.37701,0.49392 -1.09969,1.49064 -1.60596,2.21494 -1.03368,1.47888 -1.08819,1.26579 0.6313,2.46774 1.7628,1.23223 3.05474,1.32582 4.99634,0.36195 1.16399,-0.57783 4.39625,-3.55797 4.39625,-4.05333 0,-0.17705 -0.23736,-0.35418 -0.55547,-0.41453 -3.01178,-0.57136 -3.97005,-1.00213 -4.46197,-2.00578 -0.37926,-0.77381 -0.20976,-1.22846 1.10043,-2.95171 1.34668,-1.77123 2.19603,-3.46566 2.52199,-5.03126 0.45523,-2.18644 0.0129,-7.89079 -0.61188,-7.89079 -0.0683,0 -1.17782,0.90409 -2.46565,2.0091 -2.56481,2.2007 -3.53911,3.46396 -4.21189,5.46106 -0.81836,2.42927 -1.43359,3.30124 -2.54874,3.61233 -1.06364,0.29672 -1.81909,-0.0854 -2.908,-1.47106 -1.14523,-1.45728 -1.95025,-2.08442 -2.26789,-1.76678 -0.35676,0.35675 -1.19887,3.50845 -1.30998,4.90272 -0.14203,1.78242 0.16323,2.6087 1.50164,4.06456 0.93812,1.02042 1.08308,1.28047 0.96888,1.7381 -0.19956,0.79977 -0.69539,1.24511 -1.38626,1.24511 -1.3223,0 -3.4233,-3.051 -3.77389,-5.48028 -0.31694,-2.1962 0.35146,-5.79746 1.47812,-7.96395 0.78058,-1.50101 2.10754,-2.01348 3.66924,-1.41705 0.85096,0.32498 1.53594,0.96446 2.79697,2.61118 0.31025,0.40513 0.64878,0.7366 0.75229,0.7366 0.30761,0 0.75525,-1.04504 0.9096,-2.12357 0.30035,-2.09863 1.01751,-2.96432 6.31465,-7.62251 2.67582,-2.35304 3.14226,-2.55142 4.1448,-1.76282 1.09093,0.85813 1.8171,4.0437 1.84074,8.07505 0.0123,2.10014 -0.0641,2.77974 -0.45418,4.03983 -0.5232,1.69004 -1.56446,3.7368 -2.50676,4.92741 -0.59421,0.75079 -0.6055,0.79907 -0.24803,1.06046 0.20598,0.15062 0.53447,0.27385 0.72995,0.27385 0.19549,0 0.83555,0.10298 1.42236,0.22882 1.48344,0.31814 2.38681,1.22531 2.38681,2.39684 0,0.46648 -0.15257,1.18001 -0.33905,1.58564 -0.49637,1.07966 -4.60727,5.11883 -5.77238,5.67164 -1.50969,0.71633 -2.96106,1.03448 -4.08913,0.8964 -1.12832,-0.13812 -3.25271,-1.16254 -3.54557,-1.70976 -0.10474,-0.19572 -0.46092,-0.54845 -0.7915,-0.78384 -0.73692,-0.52474 -0.96368,-0.42887 -2.83362,1.19781 -1.73272,1.50732 -2.42964,2.02995 -2.70686,2.02995 -0.12566,0 -0.52244,-0.44902 -0.88172,-0.99782 z m -25.97183,-1.18948 c -1.08836,-1.20263 0.43904,-2.91547 1.58126,-1.77325 0.27959,0.27959 0.50834,0.72563 0.50834,0.99119 0,1.01186 -1.40557,1.53791 -2.0896,0.78206 z m -4.44381,-2.4239 c -0.5002,-0.55272 -0.43573,-1.75856 0.11463,-2.14404 0.60224,-0.42183 1.00875,-0.39608 1.64474,0.1042 0.65116,0.5122 0.70947,1.42401 0.12824,2.00525 -0.50471,0.5047 -1.44654,0.52197 -1.88761,0.0346 z m 41.66053,-0.91537 c -0.62756,-0.31287 -0.93106,-1.17079 -0.6401,-1.80938 0.27777,-0.60964 1.44427,-0.8313 2.8188,-0.53562 1.33135,0.28639 1.63519,0.49585 1.35989,0.93749 -0.61572,0.98775 -2.70982,1.8207 -3.53859,1.40751 z m -19.41256,-3.31054 -1.13907,-1.16145 0.16761,-4.24181 c 0.10315,-2.61066 0.29318,-4.77963 0.49415,-5.64038 0.34686,-1.48553 1.36971,-3.51409 2.99684,-5.94343 0.73129,-1.09183 0.8955,-1.45697 0.62112,-1.38108 -0.20516,0.0567 -0.70839,0.15964 -1.1183,0.22867 -0.97604,0.16435 -1.55086,0.86892 -2.37312,2.90875 -0.36118,0.89601 -0.77893,1.73057 -0.92834,1.85455 -0.50446,0.41867 -1.36003,0.14206 -1.77698,-0.57452 -0.53499,-0.91943 -0.24087,-1.49116 1.11979,-2.17673 1.26716,-0.63846 2.17905,-1.25915 2.17905,-1.48321 0,-0.0888 -1.65886,-0.21864 -3.68634,-0.28861 -2.02749,-0.0699 -4.04993,-0.18444 -4.49431,-0.25437 l -0.80796,-0.12718 1.26174,1.18699 c 2.33604,2.19765 3.50823,4.92716 3.85564,8.97808 0.20644,2.40711 0.0867,4.24516 -0.28458,4.36774 -0.38209,0.12616 -2.5099,-2.28028 -2.5099,-2.83858 0,-0.91066 -1.18167,-5.11425 -1.81372,-6.45198 -0.64365,-1.3623 -2.87455,-4.04892 -4.19969,-5.05759 -0.41431,-0.31537 -1.73043,-1.06602 -2.92471,-1.66812 -1.19427,-0.60209 -2.16779,-1.16212 -2.16338,-1.24452 0.004,-0.0824 0.4206,-0.59827 0.92488,-1.14639 l 0.91686,-0.996581 0.53955,0.352157 c 1.63075,1.064354 3.62019,1.573924 7.54861,1.933484 4.63067,0.42383 10.06943,0.21951 13.20845,-0.49621 4.3502,-0.99189 8.15867,-3.488019 11.07899,-7.261334 3.09515,-3.999216 4.10019,-6.618702 4.59248,-11.969618 0.19582,-2.128433 0.18755,-2.547882 -0.0534,-2.709837 -0.17006,-0.114296 -1.95595,-0.148121 -4.42591,-0.08383 -2.27746,0.05928 -5.75286,0.04018 -7.72313,-0.04245 l -3.5823,-0.150234 1.33788,-1.36344 1.33788,-1.363442 h 6.44208 c 5.43135,0 6.45966,-0.0458 6.55409,-0.291914 0.16807,-0.437962 -0.66597,-5.61265 -1.23869,-7.685322 -0.69923,-2.530549 -0.67117,-2.843555 0.34809,-3.882106 0.46751,-0.47636 0.91907,-0.866108 1.00346,-0.866108 0.30669,0 1.9953,6.22554 2.52026,9.291599 0.16168,0.944309 0.3429,3.580295 0.40272,5.857746 0.0957,3.64227 0.059,4.390863 -0.30414,6.217587 -0.47524,2.390393 -1.91931,6.159771 -3.10356,8.101046 -2.39919,3.932886 -6.42556,7.589277 -10.76135,9.772517 -2.70618,1.36267 -4.46701,3.07216 -6.37275,6.18696 -1.23711,2.02198 -1.40038,2.83364 -1.81233,9.00919 -0.2075,3.11067 -0.38229,5.67848 -0.38841,5.70625 -0.0482,0.21867 -0.49076,-0.11671 -1.46584,-1.11095 z m -26.51227,-0.92803 c -0.49796,-0.36412 -0.27081,-1.27968 0.39246,-1.58188 1.05075,-0.47876 2.13577,1.10443 1.12693,1.64435 -0.53223,0.28483 -1.07494,0.26253 -1.51939,-0.0624 z m 39.32473,-0.67159 c -0.38747,-0.1559 -0.87657,-1.21757 -1.28703,-2.79368 -0.4741,-1.82048 -0.47758,-2.3229 -0.0161,-2.3229 1.47466,0 3.00647,3.8773 1.94943,4.93435 -0.17458,0.17458 -0.33365,0.31024 -0.35349,0.30147 -0.0198,-0.009 -0.1516,-0.0624 -0.2928,-0.11924 z M 72.384185,109.94295 c -0.979322,-1.08214 0.294866,-2.23212 3.604537,-3.25316 3.01103,-0.92891 11.255209,-1.68661 16.462289,-1.51301 4.296289,0.14325 4.421248,0.20508 4.144433,2.05101 l -0.136141,0.90786 -3.569579,-0.13754 c -6.155978,-0.23718 -14.541123,0.64271 -18.265247,1.91664 -1.439354,0.49238 -1.815926,0.49712 -2.240292,0.0282 z m 26.592965,-0.0851 c -0.08988,-0.13886 -0.174083,-2.25219 -0.187123,-4.69629 -0.02679,-5.02128 -0.181397,-5.895514 -1.464598,-8.281574 -0.973991,-1.811098 -1.943988,-2.558633 -4.230035,-3.259911 -2.094011,-0.642367 -2.260314,-0.754567 -2.260314,-1.524964 0,-1.032839 0.318193,-1.37649 1.269553,-1.371132 1.685603,0.0095 3.918083,1.210529 5.980936,3.217643 2.203601,2.144061 2.810781,4.521027 2.885501,11.296048 0.045,4.08367 0.0417,4.11891 -0.42188,4.49431 -0.53513,0.43332 -1.331774,0.49711 -1.57204,0.12587 z m 3.91154,-0.70921 c -0.16,-0.27467 -0.15125,-10.584682 0.009,-10.507683 1.76292,0.847516 1.8902,1.18099 2.02657,5.309643 l 0.10843,3.28259 -0.54655,0.71657 c -0.60064,0.78749 -1.46091,1.43315 -1.59737,1.19888 z m 3.9037,-5.22476 v -1.74264 l 0.90445,0.83369 c 0.49745,0.45853 1.00617,0.83369 1.13049,0.83369 0.24138,0 -1.628,1.79638 -1.88344,1.8099 -0.0833,0.005 -0.1515,-0.77617 -0.1515,-1.73464 z m -34.05565,0.59549 c -0.07668,-0.40876 -0.08581,-2.06761 -0.02028,-3.68634 0.209837,-5.183579 0.823636,-8.13416 1.718509,-8.261005 0.256387,-0.03634 0.688144,0.07937 0.959458,0.257145 0.625879,0.410092 0.641302,1.144367 0.05166,2.459639 -0.3978,0.887346 -0.450363,1.4101 -0.529522,5.266251 l -0.08788,4.28111 -0.611572,0.21319 c -1.072749,0.37397 -1.327926,0.28261 -1.48037,-0.52999 z m 4.407878,-0.98519 c -0.414763,-0.29051 -0.448926,-0.47362 -0.448926,-2.40613 0,-2.091637 0.388854,-4.777959 0.803879,-5.55344 0.28019,-0.523542 1.04466,-0.531797 1.511162,-0.01632 0.32497,0.359088 0.337089,0.570405 0.132302,2.306829 -0.123992,1.051341 -0.22544,2.718651 -0.22544,3.705121 0,1.1257 -0.09026,1.88386 -0.242389,2.03599 -0.334419,0.33442 -0.994643,0.30334 -1.530588,-0.0721 z m 56.209632,-4.614657 c -0.89952,-0.397055 -1.44554,-1.077286 -1.18996,-1.482453 0.41021,-0.650317 0.82135,-0.759487 1.83711,-0.48781 2.38379,0.637567 3.19115,1.320355 2.33222,1.972377 -0.45421,0.344793 -2.19627,0.343557 -2.97937,-0.0021 z m 18.21287,0.148634 c -0.34564,-0.345643 0.0235,-0.752377 2.13775,-2.355349 3.13782,-2.37904 5.09549,-4.441011 6.55345,-6.902584 0.658,-1.110953 1.35479,-2.419755 1.54842,-2.908451 0.45363,-1.144904 1.34062,-4.802548 1.34095,-5.529685 3.3e-4,-0.69585 0.82649,-1.103019 1.55998,-0.768821 0.36257,0.165202 0.4602,0.374131 0.4602,0.984882 0,4.310171 -3.13532,10.505243 -7.08224,13.993788 -2.19678,1.941655 -2.75254,2.315132 -4.4661,3.001277 -1.63116,0.653144 -1.83584,0.701507 -2.05241,0.484943 z M 82.300949,97.066891 c -1.077054,-0.583381 -0.536306,-2.23611 0.567126,-1.733352 0.627334,0.285832 0.810805,0.733573 0.574507,1.402016 -0.228722,0.647009 -0.44366,0.70939 -1.141633,0.331336 z m 68.132421,-1.146432 c -0.25749,-0.732865 -0.22851,-0.768961 1.98691,-2.474392 0.57727,-0.444382 1.82463,-1.667283 2.77192,-2.71756 2.02436,-2.244439 3.11209,-4.285811 3.73537,-7.010204 0.59523,-2.60181 0.64608,-2.737097 1.08953,-2.898812 0.22219,-0.08103 0.6201,-0.06688 0.88426,0.03143 0.46432,0.172812 0.47552,0.227005 0.3372,1.630771 -0.32632,3.31161 -1.77121,6.282408 -4.60098,9.459965 -2.13699,2.399625 -3.66388,3.782439 -4.70014,4.256657 -1.10092,0.503809 -1.23835,0.47842 -1.50407,-0.277855 z m -12.47086,0.153008 c -0.95043,-0.665702 0.0817,-1.685749 1.44663,-1.429688 0.92419,0.173378 1.09716,0.600988 0.50017,1.23646 -0.52853,0.562594 -1.30888,0.640047 -1.9468,0.193228 z m 6.93215,-0.731365 c -0.40579,-0.579342 -0.42485,-1.262794 -0.044,-1.578851 0.15722,-0.130492 1.05629,-0.630371 1.9979,-1.110842 4.56437,-2.329022 6.48051,-4.470199 7.89801,-8.825536 0.40711,-1.250887 0.83897,-2.393348 0.95969,-2.538805 0.3231,-0.389313 1.06544,-0.321842 1.4783,0.134362 0.46087,0.509247 0.32479,1.469875 -0.51763,3.654334 -1.21878,3.160405 -3.52475,5.977536 -6.5474,7.998722 -0.88875,0.594298 -2.04266,1.402905 -2.56422,1.796904 -1.24878,0.943349 -2.21004,1.11305 -2.66064,0.469712 z M 85.297922,93.177118 c -0.176323,-0.340973 -0.320588,-0.790412 -0.320588,-0.998754 0,-0.889282 1.976588,-1.914776 2.820305,-1.463232 0.52955,0.283407 0.815538,0.845202 0.815538,1.602047 0,0.786512 -0.685198,1.25798 -2.013793,1.385641 -0.929735,0.08934 -0.997586,0.06193 -1.301462,-0.525702 z M 119.0216,92.477785 c -0.70562,-1.076904 -1.76033,-3.884034 -2.37754,-6.327867 -0.62816,-2.487188 -0.65639,-2.765519 -0.64286,-6.338263 0.0172,-4.544621 0.31012,-7.371035 1.20365,-11.614499 1.22013,-5.794456 4.55376,-17.763356 5.23868,-18.808673 0.18002,-0.274739 0.5557,-0.586365 0.83486,-0.692501 0.82531,-0.313782 39.71326,-0.25608 40.10884,0.05951 0.73549,0.586775 0.75304,0.987297 0.0696,1.587409 -0.35685,0.313319 -0.88529,0.659578 -1.17432,0.769465 -0.32992,0.125436 -7.39901,0.213504 -18.99382,0.236632 l -18.46832,0.03683 -0.55382,1.941938 c -0.3046,1.068066 -0.90179,3.123586 -1.32707,4.567824 -1.95209,6.62911 -3.46225,13.192211 -3.91576,17.017765 l -0.12571,1.060455 h 8.1876 c 5.08078,0 8.1876,0.07338 8.1876,0.193383 0,0.106361 -0.51835,0.742633 -1.1519,1.413939 l -1.15191,1.220556 h -5.88816 c -3.23848,0 -6.45176,0.05891 -7.1406,0.130906 l -1.25245,0.130907 0.13052,1.838508 c 0.22787,3.209884 0.91702,6.166711 1.94379,8.339868 l 0.61011,1.291298 -0.85574,1.109187 c -1.07238,1.390009 -1.1159,1.414326 -1.49522,0.835412 z M 76.531788,90.105342 c -0.619711,-0.577349 -0.58495,-1.609254 0.08086,-2.400529 0.618702,-0.735285 1.313145,-0.805306 1.924412,-0.194038 0.826578,0.826577 0.0062,3.006418 -1.131525,3.006418 -0.237424,0 -0.630612,-0.185333 -0.87375,-0.411851 z M 122.3771,86.940015 c -0.74852,-1.879808 -1.02974,-3.059384 -1.0364,-4.347132 -0.004,-0.868728 0.0441,-0.96791 0.53412,-1.090904 0.7399,-0.185704 1.15628,0.375682 1.47057,1.982706 0.13723,0.701666 0.48363,1.693746 0.76977,2.204623 l 0.52026,0.928866 -0.58937,0.873591 c -0.32416,0.480476 -0.6913,0.90695 -0.81587,0.947721 -0.12457,0.04077 -0.50846,-0.633992 -0.85308,-1.499471 z m -43.040862,0.01509 c -0.580128,-0.737514 -0.525173,-1.41224 0.171793,-2.109206 0.82737,-0.82737 2.191241,-0.89402 2.987478,-0.145994 0.592102,0.556251 0.585448,0.612749 -0.174046,1.477765 -1.195504,1.361604 -2.299551,1.649128 -2.985225,0.777435 z M 98.063442,76.560043 c -0.968138,-0.766666 -1.862608,-1.585196 -1.987712,-1.818955 -0.447412,-0.835997 -0.589192,-3.023179 -0.712263,-10.98774 -0.06867,-4.443808 -0.164391,-8.144248 -0.21272,-8.2232 -0.04833,-0.07895 -2.652531,-0.106993 -5.787115,-0.06231 l -5.699242,0.08124 -0.126404,1.375256 c -0.06953,0.756392 -0.139086,2.056977 -0.154587,2.890191 -0.0155,0.833214 -0.09496,1.619799 -0.176582,1.747966 -0.10159,0.159525 -0.545658,-0.03162 -1.407807,-0.605974 l -1.259406,-0.839005 -0.0031,-2.474393 c -0.0018,-1.453366 -0.08349,-2.474393 -0.198002,-2.474393 -0.375916,0 -1.651068,-1.282748 -2.089339,-2.101784 -0.401256,-0.749863 -0.442329,-1.119424 -0.439889,-3.957955 0.0029,-3.351838 0.117056,-3.830364 1.142323,-4.787652 1.124741,-1.050166 1.322626,-1.070095 10.625442,-1.070095 h 8.652566 l 0.919398,0.583065 c 1.466957,0.930319 1.785577,1.81289 1.785577,4.946023 0,3.492251 -0.20164,4.195325 -1.600275,5.579591 l -1.123332,1.111794 0.05652,6.867704 c 0.06637,8.065231 0.241657,10.328704 1.032397,13.331424 0.321815,1.222047 0.571309,2.235684 0.554431,2.252526 -0.01688,0.01684 -0.822799,-0.59665 -1.790936,-1.363317 z M 96.822009,52.316221 c 0.683601,-0.35077 0.908037,-1.122005 1.022604,-3.514008 0.08552,-1.785617 0.04917,-2.278776 -0.182133,-2.470741 -0.211512,-0.17554 -2.449636,-0.245059 -8.348528,-0.259319 -7.564692,-0.01828 -8.076256,0.0031 -8.331743,0.347223 -0.20265,0.273007 -0.256038,1.003527 -0.208948,2.859063 0.09316,3.670864 -0.645032,3.377939 8.347654,3.312464 4.778906,-0.0348 7.416968,-0.12889 7.701094,-0.274682 z m -1.80708,-1.14033 c -0.478408,-0.10623 -0.745997,-0.848937 -0.745997,-2.070556 0,-1.431206 0.291808,-1.962764 1.018909,-1.856049 0.884165,0.129768 1.024815,0.448135 0.959348,2.171531 -0.05138,1.35256 -0.113525,1.580458 -0.463322,1.699096 -0.222191,0.07536 -0.568212,0.100549 -0.768938,0.05598 z m -4.52729,-0.242711 c -0.24664,-0.10493 -0.505247,-0.417128 -0.574681,-0.693776 -0.169387,-0.674891 0.245524,-1.866014 0.780534,-2.240749 0.529431,-0.370829 1.630364,-0.397224 1.921791,-0.04607 0.37169,0.447858 0.50463,2.223599 0.197212,2.634236 -0.319463,0.426726 -1.664827,0.627162 -2.324856,0.346364 z m -7.799211,-0.25943 c -0.568832,-0.415939 -0.647609,-1.584053 -0.14299,-2.120246 1.330577,-1.413826 3.446793,0.60415 2.203972,2.101657 -0.284088,0.342305 -1.602018,0.354191 -2.060982,0.01859 z m 76.446542,23.330297 c -0.11088,-0.207161 -0.28288,-0.983448 -0.38224,-1.725082 l -0.18067,-1.348425 0.78065,-0.540992 c 0.4979,-0.345042 0.85078,-0.470866 0.97426,-0.347384 0.28328,0.28328 0.63154,2.37448 0.55991,3.362159 -0.0597,0.823567 -0.0871,0.854678 -0.80607,0.914475 -0.56087,0.04665 -0.79393,-0.0309 -0.94584,-0.314751 z m 4.35454,0.208015 c -0.31207,-0.04691 -0.60672,-0.192364 -0.65478,-0.323219 -0.1459,-0.397269 -0.89872,-4.992468 -0.89872,-5.485793 0,-0.436227 1.3112,-1.688908 1.53429,-1.465816 0.20912,0.209116 1.06866,4.186413 1.20448,5.573395 0.11441,1.168284 0.0855,1.523559 -0.1352,1.663335 -0.15436,0.09776 -0.32612,0.165513 -0.38167,0.150569 -0.0556,-0.01495 -0.35632,-0.06556 -0.6684,-0.112471 z M 92.734193,71.348901 92.108415,70.967308 91.99624,64.128467 c -0.07447,-4.539714 -0.04252,-6.923723 0.09503,-7.091329 0.283554,-0.345515 0.985675,-0.317025 1.52674,0.06195 0.448161,0.313904 0.448926,0.32557 0.448926,6.842454 0,3.590408 -0.05681,6.812064 -0.126245,7.159237 -0.146307,0.731537 -0.346295,0.772664 -1.206503,0.248119 z m 31.376157,-0.273369 c -0.50641,-0.384553 -0.79401,-1.316496 -0.54808,-1.77602 0.39786,-0.743402 1.66601,-1.06787 2.1769,-0.556979 0.34322,0.343215 0.30069,1.604408 -0.0721,2.136561 -0.34802,0.496874 -1.04527,0.584855 -1.55677,0.196438 z m -18.43218,-1.214021 c -1.04833,-0.901733 -0.50086,-2.573316 0.84279,-2.573316 0.63338,0 1.48338,0.85 1.48338,1.483376 0,0.632046 -0.5619,1.293043 -1.23402,1.451648 -0.38667,0.09125 -0.67756,-0.0051 -1.09215,-0.361708 z M 89.043114,67.921553 88.56409,67.787215 88.49062,62.851906 c -0.08146,-5.471373 -0.0078,-5.865266 1.096775,-5.865266 1.024606,0 1.045698,0.110489 1.045698,5.477642 0,2.746075 -0.05517,5.136642 -0.122606,5.312371 -0.126398,0.329388 -0.631625,0.379279 -1.467369,0.1449 z m 36.332476,-1.701469 c -0.30273,-0.152389 -0.52922,-0.460757 -0.56551,-0.769959 -0.0333,-0.283673 0.40837,-1.735903 0.98148,-3.227181 0.57311,-1.491276 1.39151,-3.698123 1.81867,-4.904102 0.86143,-2.432028 1.25819,-3.160079 1.72213,-3.160079 0.548,0 1.03057,0.371548 1.28717,0.991057 0.2264,0.546563 0.17517,0.767679 -0.55167,2.381117 -0.93035,2.065216 -1.37148,3.203919 -2.36889,6.114913 -0.95399,2.784283 -1.25142,3.113826 -2.32338,2.574234 z m -20.10731,-1.649589 c -0.27269,-0.272689 -0.4958,-0.685853 -0.4958,-0.918143 0,-0.587302 0.88568,-1.413938 1.51493,-1.413938 0.566,0 1.51494,0.806958 1.51494,1.288264 0,0.163169 -0.23532,0.576333 -0.52294,0.918142 -0.64044,0.761122 -1.33244,0.804365 -2.01113,0.125675 z m 0.84845,-5.73134 c -0.43449,-0.48011 -0.42326,-0.901424 0.0351,-1.31623 0.58013,-0.525008 1.54845,-0.426785 2.04753,0.207693 0.44123,0.560938 0.47862,1.17494 0.0715,1.17494 -0.12809,0 -0.30106,0.06817 -0.38439,0.151493 -0.29221,0.292211 -1.43553,0.151445 -1.76978,-0.217896 z m 46.65846,-1.563602 c -0.41978,-0.729859 -1.07541,-1.672561 -1.45696,-2.094892 -0.80862,-0.895043 -0.85856,-1.256586 -0.25166,-1.821995 0.55977,-0.521512 1.79521,-0.553878 2.22783,-0.05836 0.44069,0.504762 1.7739,3.292495 1.7739,3.709218 0,0.421301 -0.94728,1.593054 -1.28787,1.593054 -0.1331,0 -0.58546,-0.597158 -1.00524,-1.327018 z m 3.23714,-2.101996 c -0.52727,-0.626631 -0.86186,-1.667444 -0.64752,-2.014255 0.0684,-0.110744 0.49617,-0.312724 0.9505,-0.448846 0.79087,-0.23695 0.84644,-0.223801 1.30447,0.308684 0.64669,0.751834 0.61535,1.538802 -0.0881,2.212784 -0.7175,0.687407 -0.89761,0.680488 -1.51932,-0.05836 z"
       id="path1"
       sodipodi:nodetypes="cssscssssscccssssssssscssssscscssscccsssccssssssccsssscsssssssssscsssssssssssssssssssssssssssscsscsssssscccsccssssssccssssssscsssssssscssssssssssssssssssssssssssssssssssscssssscsssssssssssssssssssssssssssssssssssscssssssssssssssscsscsssccsssscsscccssscssssssssscssssssssssssccssscssssssssssssssscssssccccssssccsscssssccccssssssssssscssssssssssssssssssssssscscsssssssssssssssssssssssssssssssssssssssssssssssssssssssssssssssssssssssssssssssccssscsscssscccssssssscscsssssssscccssssssscssssssccssccsssscsssssscsssssssssscssccscsccscsscssssssscssscssssssccssssssssssssssssssssssssssssssssssssssssssssssssssscssssssssscscscssscsscsscsccssssssscssscsssssssscsssscssssccsscsscssscsssccsssscsssssssssssssssssssssssscsssssssssssssccssssssccsscccsssssccssssscssssssssssssssscssssccssssssssscsssss" /></g></svg>
