<?xml version="1.0" encoding="UTF-8" standalone="no"?>
<!-- Created with Inkscape (http://www.inkscape.org/) -->

<svg
   width="154.7363mm"
   height="172.87605mm"
   viewBox="0 0 154.7363 172.87605"
   version="1.1"
   id="svg1"
   xml:space="preserve"
   inkscape:version="1.3.2 (091e20e, 2023-11-25, custom)"
   sodipodi:docname="no_flowers.svg"
   inkscape:export-filename="..\..\Documents\01-MOJE_PLIKI\Ślub\graphic\meandyou_weeding_graphic_background.png"
   inkscape:export-xdpi="96"
   inkscape:export-ydpi="96"
   xmlns:inkscape="http://www.inkscape.org/namespaces/inkscape"
   xmlns:sodipodi="http://sodipodi.sourceforge.net/DTD/sodipodi-0.dtd"
   xmlns="http://www.w3.org/2000/svg"
   xmlns:svg="http://www.w3.org/2000/svg"><sodipodi:namedview
     id="namedview1"
     pagecolor="#ffffff"
     bordercolor="#000000"
     borderopacity="0.25"
     inkscape:showpageshadow="2"
     inkscape:pageopacity="0.0"
     inkscape:pagecheckerboard="0"
     inkscape:deskcolor="#d1d1d1"
     inkscape:document-units="mm"
     showguides="true"
     inkscape:zoom="0.70710678"
     inkscape:cx="377.59502"
     inkscape:cy="188.79751"
     inkscape:window-width="1920"
     inkscape:window-height="991"
     inkscape:window-x="1699"
     inkscape:window-y="2691"
     inkscape:window-maximized="1"
     inkscape:current-layer="layer1" /><defs
     id="defs1" /><g
     inkscape:label="Layer 1"
     inkscape:groupmode="layer"
     id="layer1"
     transform="translate(-698.22353,164.8423)"><path
       style="fill:#4e5ca1;fill-opacity:1"
       d="m 761.65741,7.7696994 c -0.29793,-0.17353 -0.46302,-0.59184 -0.46302,-1.1732 0,-0.74968 0.65622,-4.40645 1.25104,-6.97139999 0.1417,-0.61101 0.11468,-0.62101 -1.19266,-0.4412 -1.14873,0.15799 -1.41546,0.10616 -1.88864,-0.36702001 -0.7521,-0.7521 -0.71816,-1.52675 0.38553,-8.79956 0.51508,-3.3941704 1.07242,-7.0755204 1.23852,-8.1807804 l 0.30201,-2.00955 -0.87637,-1.42429 -0.87637,-1.42428 0.93917,-2.78387 c 1.55144,-4.59868 2.37284,-8.51415 2.51068,-11.96788 0.16539,-4.144179 0.0846,-4.307695 -1.40536,-2.845381 -0.64972,0.637648 -1.1813,1.372695 -1.1813,1.633438 0,0.260743 -0.15784,0.474078 -0.35076,0.474078 -0.19291,0 -0.63939,0.308589 -0.99218,0.685753 -0.35279,0.377164 -0.85881,0.802895 -1.12448,0.946069 -0.43753,0.235786 -0.45303,0.202331 -0.16444,-0.355024 0.17523,-0.338437 0.45214,-0.800535 0.61534,-1.026886 0.1632,-0.226351 -9.3e-4,-0.0885 -0.36473,0.306328 -0.8844,0.959829 -1.71817,2.160405 -1.72679,2.486465 -0.0127,0.48029 -0.42181,0.93754 -0.69035,0.77157 -0.14514,-0.0897 -0.41736,0.0468 -0.60491,0.30326 -0.21146,0.28919 -0.51155,0.40092 -0.78989,0.29411 -0.24688,-0.0947 -0.38813,-0.074 -0.31388,0.0462 0.0743,0.12014 -0.0539,0.48809 -0.28472,0.81767 -0.33429,0.47727 -0.4702,0.52643 -0.66775,0.24156 -0.17717,-0.25548 -0.20459,-0.20142 -0.096,0.1892 0.10422,0.37478 -0.0569,0.74317 -0.51183,1.1706 -0.39964,0.37544 -0.66392,0.48714 -0.66392,0.28062 0,-0.27498 -0.0788,-0.27771 -0.39688,-0.0137 -0.21828,0.18115 -0.39687,0.45767 -0.39687,0.61448 0,0.19678 0.0919,0.19315 0.29682,-0.0117 0.31953,-0.31952 1.0261,-0.16851 1.0261,0.2193 0,0.12995 -0.23002,0.23628 -0.51115,0.23628 -0.28114,0 -0.77688,0.38695 -1.10165,0.85989 -0.90746,1.32148 -4.17179,4.48541 -4.4502,4.31334 -0.13607,-0.0841 -1.00045,0.70652 -1.92084,1.75692 -2.04939,2.33886 -4.56711,4.96301 -4.33003,4.51308 0.3266,-0.61985 -0.2967,-0.33294 -1.0059,0.46302 -0.38898,0.43656 -0.94818,0.79375 -1.24266,0.79375 -0.29449,0 -0.60396,0.17859 -0.68773,0.39687 -0.0838,0.21828 -0.25862,0.39688 -0.38857,0.39688 -0.4741,0 -0.21497,-0.62205 0.70305,-1.68773 1.41169,-1.63874 1.45794,-1.71073 1.20098,-1.86954 -0.12963,-0.0801 -1.36902,1.19352 -2.7542,2.83028 -9.70897,11.4723604 -10.43687,12.3032304 -9.6034,10.9618904 0.35549,-0.5721 0.39247,-0.83044 0.15913,-1.1116 -0.24041,-0.28967 0.0211,-0.79784 1.25023,-2.4296904 2.80614,-3.72549 3.58177,-4.86422 3.42203,-5.02396 -0.0866,-0.0867 -0.35839,0.008 -0.60385,0.21087 -0.24546,0.20264 -0.39335,0.24937 -0.32863,0.10385 0.38096,-0.85666 0.90272,-1.8704 1.02133,-1.98437 0.0757,-0.0728 0.33926,-0.5686 0.58564,-1.10187 0.24638,-0.53327 0.68102,-1.04355 0.96588,-1.13396 0.28486,-0.0904 0.58754,-0.42801 0.67261,-0.75022 0.0851,-0.3222 0.60293,-1.07879 1.15078,-1.68131 0.54786,-0.60251 1.5586,-1.81494 2.24609,-2.69429 0.68749,-0.87934 1.54954,-1.75559 1.91567,-1.94722 0.36613,-0.19163 2.76725,-2.7892 5.33582,-5.77238 2.56857,-2.98318 4.81783,-5.392208 4.99836,-5.3534 0.18052,0.03881 0.66972,-0.327853 1.08711,-0.814802 0.41739,-0.486949 1.3542,-1.569923 2.0818,-2.406609 0.72761,-0.836685 1.51054,-1.926818 1.73984,-2.422516 0.22931,-0.495699 0.68142,-1.170884 1.00469,-1.50041 2.48997,-2.538161 5.58985,-6.416379 5.58985,-6.993389 0,-1.03752 -0.5238,-0.68381 -2.92677,1.97641 -1.22283,1.353733 -2.26502,2.33622 -2.31599,2.183308 -0.17034,-0.511003 1.0165,-2.084868 2.61918,-3.473288 0.87259,-0.75593 1.56343,-1.56686 1.53522,-1.80205 -0.0282,-0.2352 0.0359,-0.62719 0.14246,-0.8711 0.11491,-0.26301 -0.19304,-1.68254 -0.75676,-3.48833 -0.52278,-1.67467 -1.42004,-4.83343 -1.99391,-7.01945 -1.14781,-4.3724 -1.67218,-5.59866 -2.88793,-6.75358 l -0.81213,-0.7715 -1.05422,1.19765 c -2.1742,2.47002 -5.49377,3.00585 -8.62875,1.39281 -1.97051,-1.01389 -2.98222,-2.27128 -3.26456,-4.05733 -0.14146,-0.89489 -0.51331,-1.77533 -1.0533,-2.49396 -2.01949,-2.68756 -2.48094,-4.46871 -1.78127,-6.87551 0.44167,-1.51929 1.23074,-2.52154 3.17238,-4.02948 0.95491,-0.7416 1.03404,-0.90662 1.11246,-2.32013 0.0464,-0.83696 0.2626,-1.8469 0.48038,-2.24431 0.9447,-1.72394 1.02836,-1.92404 0.87046,-2.08195 -0.0916,-0.0916 -0.82984,0.15803 -1.64057,0.55468 -1.27125,0.62197 -1.44963,0.79974 -1.29651,1.29211 0.16973,0.54579 0.15519,0.55098 -0.3304,0.11792 -0.31197,-0.27823 -0.73264,-0.39424 -1.09035,-0.3007 -0.93543,0.24462 -2.32047,-0.13246 -3.08331,-0.83943 -0.60295,-0.55879 -0.69528,-0.83654 -0.62753,-1.88776 l 0.0794,-1.23256 -1.36176,-0.025 c -0.93661,-0.0172 -1.53398,-0.18082 -1.91339,-0.52418 -1.19476,-1.08125 -4.50408,0.1534 -8.04388,3.00102 -1.9902,1.60104 -5.21743,5.00911 -5.21743,5.50981 0,0.57523 0.7503,0.49392 2.38949,-0.25895 1.92067,-0.88216 7.40912,-2.98191 8.52457,-3.2613 1.05781,-0.26495 0.92043,0.15107 -0.66146,2.00307 -3.3768,3.9534 -4.49759,5.42588 -5.22152,6.85997 -0.42527,0.84246 -0.70316,1.60181 -0.61753,1.68744 0.0856,0.0856 1.44933,-0.74081 3.03044,-1.83653 1.58112,-1.09571 2.8689,-1.89558 2.86175,-1.77749 -0.0147,0.24242 -5.07716,4.07948 -6.02892,4.56957 -0.7982,0.41102 -0.93927,0.24071 -0.72899,-0.88015 0.35241,-1.87851 2.69202,-5.5615 5.27468,-8.30336 0.71963,-0.76398 1.14232,-1.38807 0.93931,-1.38685 -0.20301,0.001 -1.73833,0.60389 -3.41182,1.33927 -7.78458,3.42079 -8.63891,3.43314 -6.3241,0.0914 2.59741,-3.74966 7.20555,-7.28601 10.47818,-8.04111 1.52004,-0.35071 1.7698,-0.56125 2.04777,-1.72619 0.10417,-0.43656 0.44727,-1.21047 0.76244,-1.71979 0.31518,-0.509323 0.54402,-1.015343 0.50855,-1.124483 -0.0355,-0.10914 0.11409,-0.19844 0.33237,-0.19844 0.21828,0 0.39687,-0.0914 0.39687,-0.20301 0,-0.11166 0.74414,-0.48987 1.65365,-0.84046 2.07264,-0.79896 2.28871,-0.98624 1.49546,-1.2962 -3.60919,-1.41024 -4.73661,-2.272 -4.73661,-3.62051 0,-0.63102 0.23293,-1.11121 0.82739,-1.70567 l 0.82739,-0.82738 -0.59097,-0.62906 c -0.32503,-0.34599 -0.75093,-0.56768 -0.94643,-0.49266 -0.22515,0.0864 -0.5088,-0.23062 -0.77377,-0.86477 -0.23007,-0.55064 -0.70313,-1.37458 -1.05123,-1.83097 -0.90157,-1.18202 -3.90391,-3.05962 -5.51824,-3.451 -1.15283,-0.27948 -1.23675,-0.33649 -0.52312,-0.35539 2.04585,-0.0542 5.48753,1.83024 7.17271,3.92722 0.48086,0.59836 1.00306,1.00835 1.16044,0.91108 0.15739,-0.0973 0.77494,0.37215 1.37235,1.04316 l 1.08619,1.22002 1.45521,-0.27503 c 0.80036,-0.15127 1.54438,-0.36101 1.65336,-0.46608 0.10899,-0.10508 -0.0627,-0.80855 -0.38159,-1.56327 -0.55325,-1.3095 -0.55976,-1.41412 -0.1425,-2.28913 0.52172,-1.09407 1.98918,-1.616 3.72917,-1.32636 2.94542,0.49029 4.47171,2.22873 5.97753,6.80836 0.72863,2.21599 1.52292,3.18774 3.28819,4.02285 1.67779,0.79372 5.16104,3.5574 9.02688,7.162123 2.4747,2.30754 4.22623,4.35048 3.72991,4.35048 -0.0751,0 -1.65937,-1.37716 -3.52069,-3.06034 -4.16448,-3.765933 -4.46727,-3.946093 -5.74376,-3.417523 -0.52126,0.21584 -1.37055,0.567503 -1.8873,0.781463 -0.8284,0.343 -0.90556,0.45255 -0.65215,0.92604 0.33652,0.62881 -0.10911,0.76035 -0.45883,0.13544 -0.18318,-0.32732 -0.37739,-0.34837 -1.05026,-0.1138 -1.20604,0.42042 -1.29238,0.98674 -0.30564,2.0048 0.46444,0.47918 0.93408,0.81584 1.04364,0.74813 0.36455,-0.2253 2.31146,2.26559 2.54601,3.25739 0.15075,0.63744 0.47667,1.11469 0.93808,1.37367 0.66658,0.37415 0.74941,0.3564 1.44653,-0.30985 1.15553,-1.10437 2.92049,-1.78387 4.65056,-1.79044 2.50485,-0.01 4.32131,1.07536 5.68524,3.39551 0.67955,1.15596 0.72337,1.42513 0.73853,4.53617 0.012,2.4576 0.13144,3.59861 0.46496,4.44117 0.39313,0.99315 0.4027,1.2231 0.0771,1.85271 -0.20445,0.39536 -0.62204,0.94536 -0.92798,1.22224 -0.30594,0.27687 -0.55625,0.64748 -0.55625,0.82359 0,0.38847 1.01235,1.71446 1.30894,1.71446 0.11671,0 0.48236,-0.84018 0.81255,-1.86707 0.55473,-1.72523 0.57733,-2.03176 0.29742,-4.0349 -0.16661,-1.1923 -0.30277,-3.14423 -0.30258,-4.33761 5.2e-4,-3.34981 -0.34802,-4.52003 -1.88368,-6.32448 -1.60108,-1.88132 -3.17766,-5.0803 -3.83311,-7.77761 -0.58234,-2.396433 -0.65562,-6.379483 -0.13985,-7.601713 0.38515,-0.9127 2.43493,-2.45245 3.26481,-2.45245 0.27066,0 0.55883,-0.17388 0.64038,-0.38641 0.17724,-0.46185 -1.7368,-4.11151 -2.15625,-4.11151 -0.16088,0 -0.5624,0.65117 -0.89227,1.44704 -1.116,2.69256 -3.84038,4.36682 -7.11288,4.37121 -3.3766,0.005 -4.72786,-1.02163 -4.49782,-3.4157 0.16795,-1.74786 -0.0968,-2.13665 -1.45995,-2.14378 -1.53606,-0.008 -3.23836,-0.83968 -3.883,-1.89703 -0.70254,-1.1523 -0.70184,-2.98066 0.002,-4.13443 1.0388,-1.70385 4.28439,-2.47133 7.59872,-1.79685 0.71998,0.14652 1.12448,0.13459 1.12448,-0.0332 0,-0.14411 -0.83292,-0.88138 -1.85094,-1.63838 -1.9547,-1.45354 -2.96136,-2.83773 -3.59506,-4.94336 -0.99071,-3.29187 1.59813,-5.91714 4.79471,-4.86218 1.33131,0.43937 3.10732,2.2601 3.68817,3.78103 l 0.47046,1.23188 1.61977,-1.35746 c 2.20859,-1.85092 3.87391,-2.59465 5.81707,-2.59789 2.59691,-0.004 4.37883,1.40482 4.95199,3.91603 0.2857,1.25176 -0.071,2.58465 -1.05516,3.94329 l -0.77097,1.06429 1.0606,0.31776 c 1.41879,0.42508 3.2577,2.16538 3.80649,3.60237 0.66204,1.73353 0.4223,3.86737 -0.54834,4.8805 -1.12562,1.17489 -2.20442,1.42252 -5.35689,1.22964 l -2.74245,-0.1678 0.85516,1.60445 c 0.76804,1.441 1.01885,1.6796 2.46204,2.34227 2.04681,0.93982 3.40115,2.3142 4.58119,4.64899 0.84147,1.66492 0.96576,1.79883 1.22984,1.32505 1.02423,-1.83747 3.56645,-3.08106 5.10603,-2.49773 2.32638,0.88144 3.4559,3.76791 2.21253,5.65409 -0.2818,0.427493 -0.45258,0.873973 -0.37952,0.992193 0.0731,0.11822 0.79257,0.21495 1.59889,0.21495 1.30943,0 1.5605,0.0944 2.35004,0.88398 1.0121,1.0121 1.31075,1.90675 1.06816,3.19984 -0.19521,1.04056 -1.46552,2.53076 -2.15734,2.53076 -0.41344,0 -0.39817,-0.0755 0.12871,-0.63637 0.74249,-0.79035 1.30518,-2.37083 1.14409,-3.21352 -0.17202,-0.89986 -1.2554,-1.89185 -2.22091,-2.03356 -1.13996,-0.16731 -3.0534,0.228 -4.10398,0.84786 -1.29029,0.76128 -1.07792,0.17563 0.55836,-1.53984 1.74972,-1.834413 2.12763,-2.687733 1.72738,-3.900503 -0.37804,-1.14547 -1.91784,-2.48992 -2.84527,-2.4843 -1.92706,0.0117 -4.0044,2.25991 -4.02975,4.36127 -0.0119,0.98832 -0.0385,1.02436 -0.40122,0.54474 -0.21366,-0.28247 -0.38846,-0.67723 -0.38846,-0.87723 0,-0.77898 -1.83259,-4.27473 -2.80832,-5.35701 -1.11277,-1.23428 -3.2281,-2.37357 -4.41472,-2.37771 -1.76269,-0.006 -3.74233,1.8783 -4.03693,3.84282 -0.46823,3.1224 1.36085,9.093973 3.73481,12.193393 1.39478,1.821 1.96891,2.31554 1.96891,1.69595 0,-0.14131 -0.41416,-1.76791 -0.92035,-3.61466 -0.93057,-3.39502 -0.95639,-4.00561 -0.23032,-5.447303 1.33607,-2.65295 4.70511,-2.33874 5.6844,0.530153 0.18465,0.54094 0.34143,2.05509 0.34839,3.36478 0.014,2.63707 0.0405,2.663 1.62261,1.58935 1.48959,-1.01086 3.89796,-1.61205 5.99683,-1.49696 1.59765,0.0876 2.29492,1.99233 1.37825,3.76497 -0.50193,0.97063 -0.41607,1.12009 0.89139,1.55159 0.95462,0.31506 1.10431,0.29505 1.83514,-0.24527 0.94482,-0.69854 1.69974,-0.5538 2.13892,0.4101 0.50732,1.11345 0.34012,3.28976 -0.25274,3.28976 -0.12995,0 -0.23627,-0.64782 -0.23627,-1.43959 0,-1.54843 -0.21926,-1.86943 -1.08845,-1.59356 -0.47417,0.15049 -0.52404,0.29678 -0.34409,1.00926 0.11575,0.4583 0.21449,1.33581 0.21941,1.95004 0.007,0.92006 -0.15092,1.28172 -0.89865,2.05318 l -0.9076,0.93641 1.4345,1.45254 c 1.54831,1.56778 1.98494,1.74695 2.24679,0.92196 0.25686,-0.8093 1.38552,-2.04219 2.69317,-2.94187 l 1.1775,-0.81015 -1.03829,-0.96755 c -1.89314,-1.76414 -2.0918,-4.16425 -0.53875,-6.50892 l 0.81455,-1.22974 -1.86363,-1.92196 c -2.04433,-2.10834 -2.36058,-2.89671 -2.08735,-5.203663 0.29292,-2.47331 1.91657,-4.54729 4.64054,-5.92763 l 1.30365,-0.66061 0.32051,-2.25793 c 0.50561,-3.56186 1.5343,-4.38826 6.2884,-5.05179 3.09949,-0.4326 4.88204,-1.14248 5.69977,-2.26986 1.11562,-1.53808 -0.17672,-2.41152 -2.7163,-1.83584 -0.80578,0.18266 -1.76272,0.39971 -2.12652,0.48234 -1.153,0.26187 -0.14077,-0.63111 1.25415,-1.10641 1.75258,-0.59716 3.64155,-0.54754 4.3021,0.11301 1.25511,1.2551 0.021,3.59164 -2.25134,4.26259 -0.65353,0.19297 -1.18824,0.42121 -1.18824,0.50721 0,0.086 0.65562,0.72238 1.45695,1.41419 0.80132,0.69181 1.72405,1.72563 2.05052,2.29738 0.32646,0.57175 0.65895,1.04047 0.73886,1.04159 0.0799,0.001 0.29882,-0.42256 0.48647,-0.94152 1.41736,-3.91962 6.35863,-5.05087 9.40428,-2.15301 0.9565,0.91013 1.1354,0.98635 1.6056,0.68413 2.2114,-1.42135 3.6026,-1.62368 5.281,-0.76803 l 1.0272,0.52371 1.4761,-0.63882 c 1.9682,-0.85175 2.7833,-1.07583 2.552,-0.70152 -0.1,0.16111 -0.3303,0.29293 -0.5128,0.29293 -0.4009,0 -1.9065,1.52286 -1.7049,1.72443 0.2147,0.21472 1.5387,-0.34896 1.5387,-0.65509 0,-0.14667 0.5953,-0.56834 1.3229,-0.93705 0.7276,-0.3687 1.3229,-0.5493 1.3229,-0.40133 0,0.14797 -0.119,0.26904 -0.2645,0.26904 -0.1456,0 -0.2646,0.17268 -0.2646,0.38373 0,0.21105 -0.2074,0.49977 -0.4608,0.64161 -0.2535,0.14184 -0.3733,0.34546 -0.2662,0.4525 0.107,0.10703 0.4037,0.0122 0.6592,-0.21074 0.2556,-0.22295 0.7623,-0.5469 1.1261,-0.7199 0.65163,-0.30983 0.65063,-0.30459 -0.066,0.35018 -0.841,0.76831 -0.9184,0.99933 -0.2646,0.78948 0.3147,-0.101 0.2601,0.0172 -0.1703,0.36887 -0.3738,0.30544 -0.5532,0.64727 -0.4376,0.83421 0.1466,0.23733 0.2723,0.21996 0.501,-0.0693 0.3794,-0.47951 1.49603,-0.83598 1.49603,-0.47755 0,0.14416 -0.3125,0.63346 -0.6944,1.08734 -0.71293,0.84719 -0.69453,1.40658 0.026,0.80818 0.909,-0.75437 0.316,0.0482 -0.85353,1.15522 -0.9446,0.89416 -1.1817,1.26529 -0.9544,1.49427 0.367,0.36988 1.4174,-0.0977 1.4174,-0.63101 0,-0.54035 1.84083,-1.42441 3.64293,-1.74958 2.056,-0.37098 3.8311,-0.0804 6.273,1.02675 1.8716,0.84863 5.1258,2.90849 5.7134,3.61653 0.194,0.23376 -0.7132,-0.28712 -2.0159,-1.15752 -1.3027,-0.87039 -3.1907,-1.90502 -4.1955,-2.29917 -1.6431,-0.64456 -2.0556,-0.70184 -4.101,-0.56947 -4.0284,0.26069 -4.5231,0.38825 -4.5231,1.16615 0,0.37344 -0.1974,0.89704 -0.4386,1.16356 -0.37223,0.4113 -0.39223,0.63914 -0.1322,1.50674 0.5944,1.98401 0.2588,4.31396 -0.78883,5.47573 -0.6544,0.725763 -0.6215,1.160543 0.169,2.231913 0.548,0.74284 0.66103,1.19393 0.65883,2.63109 -0.01,4.11242 -3.14963,7.42391 -7.50553,7.90659 l -1.6058,0.17794 -0.1968,1.15422 c -0.1083,0.63482 -0.4976,1.54851 -0.8652,2.03043 -0.8657,1.1351 -3.2665,2.26084 -5.1941,2.43564 -1.31789,0.1195 -1.75752,0.0273 -3.29167,-0.69066 -0.97385,-0.45572 -1.80474,-0.82858 -1.84642,-0.82858 -0.0417,0 -0.69692,0.6082 -1.45609,1.35155 -1.91915,1.87919 -3.84764,2.73191 -6.24393,2.76091 -1.70471,0.0206 -1.97752,0.10143 -2.89469,0.85744 -0.70865,0.58413 -1.02887,1.06962 -1.06679,1.61742 -0.12972,1.8736 -1.94544,3.78103 -4.00698,4.20935 -0.87546,0.18189 -1.02925,0.34283 -1.44913,1.51643 -0.25835,0.72212 -0.68758,1.6106 -0.95383,1.9744 -0.63809,0.87185 -2.07868,1.58658 -3.19894,1.58709 -0.81251,3.7e-4 -1.3095,0.41509 -5.09323,4.25017 -2.30607,2.33737 -4.19286,4.37228 -4.19286,4.52201 0,0.35682 2.13599,3.39906 2.38651,3.39906 0.10625,0 0.26616,-0.36491 0.35536,-0.81092 0.0892,-0.44601 0.51164,-1.16038 0.93876,-1.5875 0.62011,-0.62011 1.00759,-0.77658 1.92316,-0.77658 1.53502,0 2.8161,0.39298 3.56035,1.09217 l 0.61274,0.57564 1.09051,-2.35526 c 1.05713,-2.28319 2.6328,-6.73537 3.01697,-8.5247 0.16789,-0.78201 0.76017,-1.36692 1.0702,-1.05689 0.22059,0.22058 -2.05673,6.97737 -3.0598,9.07842 -1.34313,2.81331 -1.42645,3.25308 -0.91349,4.82137 0.31033,0.94877 0.41048,2.02254 0.34929,3.74509 -0.0588,1.65661 0.007,2.41477 0.2104,2.41435 0.16289,-3.3e-4 0.87726,-0.4613 1.5875,-1.02436 3.27391,-2.59553 7.76287,-3.67529 8.39805,-2.02006 0.23728,0.61836 -0.18822,1.2836 -1.48402,2.3201 -1.6835,1.346621 -2.70013,1.893497 -5.75499,3.095797 -1.52797,0.601361 -3.05769,1.20939 -3.39939,1.351175 -0.37364,0.155044 -0.56458,0.405497 -0.47905,0.628379 0.30282,0.789131 1.51682,2.527529 1.76509,2.527529 0.1437,0 0.26126,0.250846 0.26126,0.557435 0,0.511744 1.36741,2.530944 2.57891,3.80819 0.27606,0.291042 0.86427,1.064948 1.30712,1.71979 0.9871,1.45963 8.71436,14.29327 10.63381,17.66094 0.76721,1.34607 1.5012,2.44739 1.63109,2.44739 0.27113,0 2.14155,2.74847 2.95344,4.33991 0.67389,1.3209204 2.07316,3.0929504 2.32125,2.9396204 0.31743,-0.19619 1.10243,1.77229 1.36793,3.43006 0.1403,0.87645 0.4353,1.86997 0.6556,2.20782 0.2202,0.33785 0.3695,0.9927 0.3317,1.45521 -0.065,0.79835001 0,1.17482001 0.5622,3.35447 0.1318,0.50932 0.3096,1.37083 0.395,1.91447 0.087,0.55628 0.2923,0.96115 0.4685,0.92604 0.1723,-0.0343 0.3505,0.23527 0.3961,0.59907 l 0.083,0.66146 -0.538,-0.66146 c -0.296,-0.3638 -0.6565,-1.08593 -0.8013,-1.60473 -0.1448,-0.5188 -0.5559,-1.21827 -0.9137,-1.55436 l -0.6505,-0.61109 0.032,0.62832 c 0.017,0.34558 0.2521,0.87714 0.5216,1.18126 0.4695,0.52991 1.0064,1.97094 1.0064,2.70118 0,0.19096 -0.4246,-0.10591 -0.9436,-0.65971 l -0.9437,-1.00691 0.4385,1.05833 c 0.2412,0.58209 0.5,1.20716 0.5751,1.38907 0.2575,0.62359 -0.1327,0.3306 -0.7048,-0.52917 -0.50556,-0.75978 -0.5532,-0.78289 -0.40916,-0.19844 0.15686,0.63635 0.14746,0.64196 -0.24755,0.14787 -0.22581,-0.28248 -0.41057,-0.6099 -0.41057,-0.72761 0,-0.1177 -0.1318,-0.21401 -0.29289,-0.21401 -0.17274,0 -0.21732,0.18995 -0.10867,0.46302 0.33342,0.83802 0.41619,1.65365 0.16781,1.65365 -0.13425,0 -0.60884,-0.44649 -1.05463,-0.99219 -0.67608,-0.82759 -0.81202,-0.9022 -0.81942,-0.44979 -0.005,0.29832 0.13401,0.68527 0.30863,0.85989 0.17463,0.17463 0.2443,0.3175 0.15483,0.3175 -0.20959,0 -2.05983,-2.5154 -2.05983,-2.80034 0,-0.11875 0.14288,-0.073 0.3175,0.10159 0.17463,0.17463 0.44252,0.31372 0.59531,0.30909 0.1528,-0.005 0.0519,-0.17941 -0.22418,-0.3884 -0.2761,-0.20899 -0.59299,-0.32375 -0.70421,-0.25502 -0.11121,0.0687 -0.56882,-0.47086 -1.0169,-1.1991 -0.44809,-0.72823 -0.94857,-1.32407 -1.11217,-1.32407 -0.18582,0 -0.13255,0.27309 0.14192,0.72761 0.24166,0.40018 -0.41381,-0.16537 -1.45659,-1.25677 -1.83002,-1.91535999 -2.05549,-2.01983999 -0.96635,-0.44778999 0.58196,0.83999999 0.48915,1.22541999 -0.12415,0.51555999 -1.76382,-2.04154999 -6.6852,-8.89624 -5.97456,-8.32162 0.23474,0.18981 0.93724,1.12857 1.56112,2.08613 0.62387,0.95756 1.1826,1.59617 1.24161,1.41914 0.059,-0.17703 -0.24126,-0.81814 -0.66726,-1.42467 -0.42601,-0.60654 -1.11502,-1.69811 -1.53113,-2.42571 -0.41612,-0.7276 -2.61082,-4.2399504 -4.87712,-7.8052104 -3.20397,-5.04037 -4.13605,-6.33515 -4.19023,-5.82083 -0.26499,2.51548 -0.39084,3.03691 -0.59989,2.48548 -0.11618,-0.30647 -0.26146,-1.51568 -0.32284,-2.68712 l -0.1116,-2.1299 -2.46834,-3.87276 c -1.35758,-2.13001 -2.56005,-3.92944 -2.67216,-3.99872 -0.1121,-0.0693 -0.26839,0.38235 -0.34731,1.00363 -0.0789,0.62128 -0.3832,2.79647 -0.67618,4.83376 -1.59883,11.11757 -1.70051,12.27418 -1.43269,16.2960804 0.13963,2.09674 0.1814,4.10991 0.0928,4.47371 -0.14348,0.58928 -0.44978,0.82082 -2.10775,1.59331 -0.32179,0.14993 -0.40752,0.90521 -0.45313,3.99216 -0.0309,2.09398 -0.0607,3.97988 -0.0661,4.19089 -0.006,0.24016 -0.10173,0.28964 -0.25544,0.13229 -0.13504,-0.13824 -0.33035,-1.94799 -0.43401,-4.02167 -0.10438,-2.08816999 -0.30124,-3.77031 -0.44124,-3.77031 -0.45498,0 -1.76929,0.88862 -1.93597,1.30892001 -0.26251,0.66197 -0.12336,6.75205999 0.15649,6.84906999 0.465,0.16118 0.26281,0.57326 -0.28128,0.57326 -0.87902,0 -1.12447,-1.13228 -0.93185,-4.2987 l 0.17298,-2.84348999 -0.6828,-0.3111 c -0.50314,-0.22925001 -0.76061,-0.23329001 -0.97853,-0.0154 -0.2995,0.29949003 -1.06073,6.90447 -0.83791,7.27022 0.0665,0.10914 0.35199,0.19844 0.63444,0.19844 0.5942,0 0.59712,0.0104 0.25552,0.90882 -0.31644,0.83229 -0.94016,0.87693 -1.35749,0.0971 -0.34448,-0.64367 -0.15817,-5.79476 0.26238,-7.25438997 0.36606,-1.27047003 0.0238,-1.59456003 -1.19427,-1.13095 -1.19504,0.45483 -1.3384,0.9033 -1.54899,4.84543997 -0.0771,1.44399 -0.19111,2.6763 -0.25327,2.73847 -0.0622,0.0622 -0.24002,0.0346 -0.39522,-0.0614 -0.40389,-0.24962 -0.34819,-2.3826 0.12774,-4.8915 0.22546,-1.18851997 0.33733,-2.38966997 0.2486,-2.66922997 -0.1955,-0.61596003 -1.9239,-1.18732003 -2.87193,-0.94938003 -0.52775,0.13246 -0.70899,0.38377 -0.836,1.15918003 -0.36416,2.22325997 -2.04082,8.40656997 -2.32928,8.59005997 -0.42584,0.27087 -1.01528,0.24056 -1.56663,-0.0806 z m 2.08886,-3.55106 c 0.17466,-1.30989 0.49,-3.12806 0.70077,-4.04038999 0.41656,-1.80310001 0.2758,-2.16215001 -0.56764,-1.44792001 -0.40213,0.34052001 -0.75637,1.41859001 -1.35048,4.11002 -0.44295,2.00664 -0.80536,3.71082 -0.80536,3.78708 0,0.0763 0.38366,0.10134 0.85257,0.0557 l 0.85258,-0.0829 z m 45.9156,-2.27914 c -2.19289,-3.76763 -2.47458,-4.20278 -2.7207,-4.20278 -0.45557,0 -0.23095,0.55058 1.1083,2.71662001 2.61092,4.22275999 3.89299,5.40444999 1.6124,1.48615999 z m 1.54581,-0.86428 c -0.23881,-1.05883999 -0.47468,-1.48641999 -0.81996,-1.48641999 -0.13888,0 -0.0784,0.41672 0.13441,0.92605 0.21281,0.50931999 0.32644,0.92603999 0.25252,0.92603999 -0.0739,0 -0.0608,0.11906 0.0291,0.26458 0.3589,0.58071 0.59422,0.21353 0.40392,-0.63025 z m -48.16771,-2.95638 c 2.01606,-0.47516 5.64497,-0.5517 6.70446,-0.1414 0.90799,0.35164 4.51753,0.38013 5.60691,0.0443 0.43561,-0.1343 1.74451,-0.64508 2.90867,-1.13505 2.86946,-1.20771 2.9606,-1.41309 2.55537,-5.75825 -0.42546,-4.5619804 -0.38885,-6.1616104 0.21325,-9.3194004 0.28582,-1.49898 0.64963,-3.79354 0.80847,-5.09903 0.15884,-1.3055 0.45859,-3.56768 0.66611,-5.02709 0.59134,-4.1586 0.5862,-4.18766 -1.24349,-7.01908 -1.02949,-1.593135 -1.67264,-2.368218 -1.75635,-2.116671 -0.0726,0.218281 -0.21793,0.456406 -0.32286,0.529166 -0.10493,0.07276 -0.93026,1.382445 -1.83407,2.910415 -3.07872,5.20487 -6.62466,9.38469 -8.72092,10.27992 -0.66738,0.28501 -2.04686,0.59851 -3.06551,0.69666 -2.37262,0.22862 -2.72397,0.33412 -3.03247,0.91055 -0.26449,0.49421 -1.79934,9.56719 -2.50972,14.8357904 -0.48205,3.5752 -0.56585,5.09152 -0.30474,5.51401 0.25493,0.4125 1.26738,0.3806 3.32689,-0.10481 z m 6.461,-3.23769 c 1.20994,-2.3877 2.04168,-6.3374804 2.54057,-12.0647004 0.30782,-3.5338 0.47276,-4.39431 0.84224,-4.39431 0.15009,0 0.19359,0.57124 0.10577,1.38906 -0.082,0.76399 -0.33341,3.08855 -0.55861,5.1657 -0.2252,2.07716 -0.69449,4.75606 -1.04286,5.9531304 -0.76629,2.63315 -1.88476,5.21919 -2.25731,5.21919 -0.14981,0 0.0168,-0.57063 0.3702,-1.26807 z m -4.49586,-1.80297 c 0.21998,-0.57325 1.2988,-4.9314804 2.01144,-8.1258304 0.31877,-1.42885 0.63494,-2.54256 0.70259,-2.4749 0.46024,0.46024 -2.16694,11.0259404 -2.74162,11.0259404 -0.0746,0 -0.0622,-0.19135 0.0276,-0.42521 z m 10.75498,-6.8508304 c -0.005,-1.05142 3.11126,-16.06301 3.39291,-16.34466 0.65291,-0.65291 0.5632,0.27552 -0.48472,5.01636 -0.60522,2.73806 -1.40296,6.34752 -1.77275,8.021 -0.67572,3.058 -1.13041,4.38241 -1.13544,3.3073 z m -7.66565,-5.5783 c 0.0127,-0.30823 0.0754,-0.37092 0.15986,-0.15985 0.0764,0.19099 0.067,0.41919 -0.0209,0.50711 -0.0879,0.0879 -0.15045,-0.0683 -0.13897,-0.34726 z m 41.5672,7.76993 c -0.18985,-0.18986 -0.31309,-0.20548 -0.31309,-0.0397 0,0.35316 0.3129,0.66606 0.48948,0.48948 0.0752,-0.0752 -0.004,-0.27759 -0.17639,-0.44979 z m -77.57142,-4.44059 c 0,-0.14552 -0.0525,-0.26459 -0.11667,-0.26459 -0.0642,0 -0.19026,0.11907 -0.2802,0.26459 -0.0899,0.14552 -0.0374,0.26458 0.11668,0.26458 0.1541,0 0.28019,-0.11906 0.28019,-0.26458 z m 10.3849,-6.12835 c 0.25466,-0.26743 0.46302,-0.59141 0.46302,-0.71996 0,-0.12855 0.23669,-0.29562 0.52598,-0.37127 0.28929,-0.0756 0.63771,-0.43141 0.77426,-0.79057 0.25786,-0.67823 4.05235,-4.53251 4.51942,-4.59063 0.14616,-0.0182 0.39756,-0.048 0.55865,-0.0662 0.16109,-0.0182 0.22628,-0.20666 0.14486,-0.41883 -0.0858,-0.22368 0.33906,-0.97231 1.01134,-1.78187 0.63766,-0.76786 1.05053,-1.46338 0.91751,-1.54559 -0.13303,-0.0822 2.16733,-2.92649 5.11191,-6.320613 5.98142,-6.894592 6.19951,-7.164085 5.7975,-7.164085 -0.32958,0 -1.80761,1.664574 -9.70467,10.929488 -9.19111,10.78312 -11.25737,13.35813 -11.2287,13.99341 0.009,0.20306 0.14512,0.13682 0.33073,-0.16114 0.17334,-0.27827 0.52353,-0.72476 0.77819,-0.99219 z m -0.19844,-2.45512 c 0.58208,-0.71358 1.45914,-1.75312 1.94902,-2.3101 0.48987,-0.55697 0.77649,-1.01268 0.63692,-1.01268 -0.29612,0 -5.7189,6.19688 -5.84831,6.68315 -0.10532,0.39578 1.79558,-1.56223 3.26237,-3.36037 z m 22.46176,0.91665 c 3.63304,-0.59495 4.36802,-0.95663 6.65185,-3.27334 2.38852,-2.4229 4.11689,-4.91959 6.21836,-8.98264 l 1.43004,-2.764878 -1.0508,-2.02655 c -0.73036,-1.408565 -1.23455,-2.073472 -1.65337,-2.180419 -0.67571,-0.172541 -5.37809,-0.199906 -9.58388,-0.05577 l -2.77813,0.09521 -0.21781,4.365625 c -0.19804,3.969485 -0.33609,4.829845 -1.52135,9.481495 -0.71695,2.81372 -1.30354,5.22474 -1.30354,5.35781 0,0.3145 1.83587,0.30653 3.80863,-0.0165 z m 2.0122,-1.96991 c 0,-0.0971 1.33945,-2.02017 2.97656,-4.27354 1.63711,-2.25336 3.69322,-5.39555 4.56913,-6.982643 1.72616,-3.127691 2.14854,-3.712029 1.88339,-2.605557 -0.52651,2.197071 -9.42908,15.28479 -9.42908,13.86174 z m -2.64583,-4.0041 c 0,-0.25345 5.64328,-7.28559 6.35797,-7.922713 l 0.59358,-0.529167 -0.41347,0.79375 c -0.43506,0.835184 -5.75155,7.35033 -6.24879,7.65764 -0.15911,0.0983 -0.28929,0.0986 -0.28929,4.9e-4 z m -17.43845,-1.32813 c 2.62479,-2.97218 4.83289,-5.403958 4.90689,-5.403958 0.074,0 -0.11222,0.313713 -0.41382,0.697138 -0.78105,0.99294 -0.66496,1.43885 0.13711,0.52667 0.36781,-0.41831 0.60269,-0.932727 0.52194,-1.143153 -0.0909,-0.236835 0.8298,-1.48427 2.41666,-3.274332 1.40991,-1.590457 2.61276,-2.89174 2.673,-2.89174 0.0602,0 0.0345,0.195435 -0.0571,0.434299 -0.14127,0.368121 -0.10343,0.38182 0.24831,0.0899 0.22824,-0.189419 0.35824,-0.492241 0.2889,-0.672938 -0.0693,-0.180698 0.40714,-0.905763 1.05885,-1.611256 0.67017,-0.72548 1.10998,-1.052835 1.0124,-0.753548 -0.12243,0.375515 -0.03,0.32553 0.31817,-0.172144 0.26988,-0.385721 0.8284,-1.124818 1.24116,-1.642437 0.68872,-0.86371 0.7182,-0.987177 0.35835,-1.500937 -0.36942,-0.52742 -0.93599,-0.30376 -0.6015,0.237449 0.14958,0.24202 -0.37696,0.740505 -1.36721,1.294373 -0.47903,0.267935 -0.59531,0.267631 -0.59531,-0.0016 0,-0.183991 0.35719,-0.492636 0.79375,-0.685877 0.43656,-0.193241 0.79375,-0.505384 0.79375,-0.693645 0,-0.18827 0.17859,-0.49052 0.39687,-0.67168 0.4828,-0.40069 0.5156,-0.79394 0.0661,-0.79323 -0.32955,5.1e-4 -3.09783,3.008926 -8.30504,9.025444 -2.90576,3.357381 -3.51315,4.277127 -1.55624,2.356561 1.52049,-1.492241 1.75344,-1.284809 0.37205,0.331282 -0.58485,0.684213 -0.99805,1.349698 -0.91822,1.478857 0.0798,0.12916 -1.93536,2.601228 -4.47817,5.493478 -4.15868,4.73016 -5.18626,6.03214 -4.35571,5.51884 0.14942,-0.0923 2.41924,-2.59969 5.04403,-5.57186 z m 7.1197,-10.140696 c 0,-0.316874 1.61365,-1.675298 1.7857,-1.503255 0.23623,0.236229 -0.18695,0.986511 -0.46092,0.817189 -0.14655,-0.09057 -0.26645,-0.06723 -0.26645,0.05188 0,0.119104 -0.23813,0.365265 -0.52917,0.547023 -0.29104,0.181759 -0.52916,0.220983 -0.52916,0.08716 z m 2.38125,-2.506907 c 0,-0.05494 0.20836,-0.263301 0.46302,-0.463021 0.41964,-0.329107 0.429,-0.319749 0.0999,0.0999 -0.34564,0.440729 -0.56291,0.580887 -0.56291,0.363126 z m -9.11725,17.544793 c 0.28476,-0.46076 -0.0396,-0.55834 -0.40245,-0.12108 -0.20869,0.25145 -0.22876,0.40326 -0.0533,0.40326 0.15476,0 0.35985,-0.12698 0.45577,-0.28218 z m -5.05129,-1.63604 c 0.55171,-0.69123 0.87768,-1.25677 0.72437,-1.25677 -0.37013,0 -2.16625,2.20537 -2.16625,2.65985 0,0.40012 0.0118,0.38866 1.44188,-1.40308 z m 5.96645,0.33073 c 0,-0.14553 -0.0525,-0.26459 -0.11667,-0.26459 -0.0642,0 -0.19027,0.11906 -0.2802,0.26459 -0.0899,0.14552 -0.0374,0.26458 0.11667,0.26458 0.15411,0 0.2802,-0.11906 0.2802,-0.26458 z m -0.12191,-3.91428 c -0.19449,-0.19449 -1.97299,1.77846 -1.9782,2.19448 -0.002,0.14552 0.48175,-0.24947 1.07462,-0.87776 0.59287,-0.6283 0.99948,-1.22082 0.90358,-1.31672 z m -1.43184,-1.84041 c 0.32911,-0.41965 0.31975,-0.429 -0.0999,-0.0999 -0.25466,0.19972 -0.46302,0.40808 -0.46302,0.46302 0,0.21776 0.21727,0.0776 0.56291,-0.36312 z m 19.32052,-10.51719 c 0,-0.138245 -0.12799,-0.294018 -0.28442,-0.346163 -0.15644,-0.05214 -0.28443,0.103629 -0.28443,0.346163 0,0.242535 0.12799,0.398308 0.28443,0.346163 0.15643,-0.05215 0.28442,-0.207918 0.28442,-0.346163 z m 6.77334,-0.128679 c 2.68447,-0.003 3.24114,-0.07091 3.24114,-0.395447 0,-0.215508 -0.26789,-0.447595 -0.59531,-0.515748 -1.00069,-0.208293 -8.94393,-0.341758 -9.06105,-0.152247 -0.18893,0.305684 2.08843,1.338289 2.6449,1.199261 0.29105,-0.07271 1.98769,-0.133832 3.77032,-0.135819 z m 2.18281,-1.575497 c 0,-0.312172 -0.51603,-0.646112 -0.70556,-0.456588 -0.18952,0.189525 0.14442,0.705556 0.45659,0.705556 0.13693,0 0.24897,-0.112036 0.24897,-0.248968 z m 19.12777,-2.001359 c 3.53303,-1.591601 4.39696,-2.094381 4.10335,-2.388001 -0.26026,-0.26025 -4.00879,0.60876 -5.93049,1.37484 -1.78732,0.712516 -3.17289,1.936357 -2.92465,2.583275 0.18749,0.488575 0.16659,0.495482 4.75179,-1.570114 z m -20.78142,1.287705 c 0.61847,-0.08569 1.12023,-0.291104 1.11504,-0.456482 -0.013,-0.414486 -2.44175,-3.951904 -2.76868,-4.032544 -0.14552,-0.0359 -0.97896,0.76629 -1.85209,1.78264 -0.87312,1.016342 -1.86833,1.961964 -2.21157,2.101379 -0.5367,0.217994 -0.57479,0.312859 -0.27208,0.677599 0.29459,0.354956 0.71995,0.396321 2.60844,0.25366 1.24106,-0.09375 2.76248,-0.240564 3.38094,-0.326252 z m 15.39397,-1.128743 c 0.32994,-0.463366 0.54718,-1.181143 0.54718,-1.807953 0,-1.58139 -0.56117,-4.03818 -0.92239,-4.03818 -0.33694,0 -0.85944,1.07298 -1.63446,3.35642 -0.44352,1.30674 -0.44367,1.41379 -0.003,2.24896 0.25434,0.4823 0.39991,0.638785 0.32349,0.347743 -0.12821,-0.48827 -0.10338,-0.483921 0.32122,0.05627 0.60068,0.764198 0.71773,0.75023 1.3682,-0.163263 z m -23.84064,-0.82535 c 0.62946,-0.730923 1.09994,-1.462553 1.04551,-1.625833 -0.092,-0.27607 -2.58686,2.410001 -2.58686,2.785136 0,0.431018 0.48767,0.06423 1.54135,-1.159303 z m -1.31182,-1.448913 c 0.30051,-0.50932 0.64927,-0.92604 0.77503,-0.92604 0.32209,0 1.99542,-2.37988 1.8063,-2.569 -0.0855,-0.0856 -0.64361,0.36817 -1.24012,1.00828 -0.7348,0.78852 -0.91532,0.90787 -0.55977,0.3701 0.28864,-0.43657 0.83409,-1.0824 1.21212,-1.43519 0.49037,-0.45762 0.68733,-0.91043 0.68733,-1.58015 v -0.93871 l -0.57354,0.57353 c -0.44551,0.44551 -0.50589,0.65505 -0.2705,0.93867 0.23851,0.28739 0.1212,0.53684 -0.55094,1.17148 -0.46969,0.44349 -1.16679,0.87958 -1.54912,0.9691 -0.38232,0.0895 -0.89785,0.47215 -1.14562,0.85028 -0.46764,0.71372 -0.35468,1.2231 0.15762,0.71079 0.31606,-0.31606 1.02168,-0.16156 1.02168,0.22371 0,0.12995 -0.21828,0.23628 -0.48507,0.23628 -0.65047,0 -0.80641,0.19533 -0.64592,0.80907 0.20463,0.78248 0.75381,0.6161 1.36052,-0.4122 z m 23.1464,-2.05052 c 0.53352,-1.20054 0.96907,-2.4507 0.96789,-2.77812 -0.003,-0.84597 -0.9153,-1.65365 -1.86774,-1.65365 -0.66178,0 -0.871,0.15495 -1.16102,0.8599 -0.64722,1.57316 -0.73494,2.90627 -0.26573,4.0384 0.47196,1.13877 0.86438,1.71629 1.16622,1.71629 0.10468,0 0.62685,-0.98227 1.16038,-2.18282 z m 7.76153,1.88783 c 0.40966,-0.16224 1.69733,-0.3706 2.8615,-0.46302 1.89462,-0.15041 2.12509,-0.22712 2.19701,-0.73124 0.0652,-0.45702 -0.0936,-0.59584 -0.8424,-0.73631 -1.387,-0.2602 -5.45565,1.22492 -5.45565,1.9914 0,0.31187 0.34069,0.29515 1.23954,-0.0608 z m -26.02162,-2.41466 c 0.65711,-0.7627 1.14189,-1.43957 1.0773,-1.50416 -0.14891,-0.14891 -2.18185,1.81031 -2.51922,2.42787 -0.51319,0.93939 0.26783,0.43907 1.44192,-0.92371 z m 13.2424,-0.10077 c -0.27438,-0.39064 -0.75207,-1.13361 -1.06154,-1.65102 -0.7866,-1.31516 -1.23456,-1.35451 -0.60585,-0.0532 0.28568,0.59129 0.60594,1.07582 0.71168,1.07674 0.10575,9.2e-4 0.40434,0.37424 0.66355,0.82959 0.2592,0.45535 0.54322,0.75597 0.63115,0.66804 0.0879,-0.0879 -0.0646,-0.47949 -0.33899,-0.87013 z m -19.08599,-0.56302 c 0.50016,-0.69123 1.48691,-1.89525 2.19277,-2.6756 1.19258,-1.31845 1.62752,-2.27384 1.16524,-2.55955 -0.18437,-0.11394 -1.96174,1.64717 -4.05935,4.02222 -0.77808,0.88098 -0.93899,1.2394 -0.80182,1.78594 0.0944,0.37607 0.2666,0.68376 0.38269,0.68376 0.1161,0 0.62031,-0.56555 1.12047,-1.25677 z m 27.07568,-0.39688 c -0.42427,-2.67963 -2.11852,-4.44336 -4.45105,-4.63359 -1.22968,-0.10028 -1.46539,-0.0345 -2.02499,0.5647 -0.82265,0.88093 -1.0595,2.93108 -0.46536,4.02823 0.3413,0.63026 0.4182,0.67321 0.4281,0.2391 0.0227,-0.99668 0.57256,-2.54782 1.08464,-3.05989 0.66714,-0.66715 2.10214,-0.66188 2.95738,0.0109 0.36557,0.28756 0.99481,1.29959 1.39829,2.24896 0.84643,1.99156 1.33657,2.26639 1.07299,0.60164 z m -21.454,-1.41144 c 0.48226,-0.63228 0.6352,-1.03662 0.45881,-1.21301 -0.27759,-0.27758 -1.64857,1.26563 -1.64857,1.85568 0,0.56265 0.45989,0.31423 1.18976,-0.64267 z m -6.36589,-0.24376 c 0.38914,-0.51018 0.63254,-1.04891 0.54091,-1.19718 -0.0916,-0.14827 -0.009,-0.23687 0.18378,-0.19688 0.19272,0.04 0.33506,-0.12846 0.31632,-0.37432 -0.0187,-0.24587 0.26834,-0.72212 0.63797,-1.05834 0.36963,-0.33622 0.57749,-0.43271 0.46189,-0.21443 -0.11559,0.21828 0.23718,-0.0366 0.78394,-0.56643 l 0.9941,-0.9633 -2.14951,-2.79321 c -1.18224,-1.53627 -2.14952,-2.91568 -2.14952,-3.06536 0,-0.14969 -0.57865,-0.87883 -1.28589,-1.62033 l -1.28588,-1.34817 -0.96307,0.4024 c -0.78714,0.32888 -0.96152,0.53779 -0.95455,1.1435 0.009,0.752 3.2279,11.87094 3.52218,12.16522 0.0881,0.0881 0.41166,-0.12453 0.71896,-0.47257 0.54856,-0.62128 0.54836,-0.61715 -0.0114,0.2271 -0.76579,1.155 -0.2513,1.10056 0.63977,-0.0677 z m 15.06826,-0.53587 c -0.24134,-0.36834 -0.50133,-0.6072 -0.57774,-0.53079 -0.12724,0.12725 0.6945,1.20051 0.91917,1.20051 0.0536,0 -0.10008,-0.30137 -0.34143,-0.66972 z m -8.98467,-1.0031 c -0.2552,-0.66503 -0.90746,-0.54032 -0.90746,0.17351 0,0.33955 0.0822,0.69957 0.18269,0.80005 0.30634,0.30635 0.90654,-0.49987 0.72477,-0.97356 z m 11.34375,0.97508 c 0.17225,-0.17225 -0.76276,-1.66694 -1.25127,-2.00027 -0.63244,-0.43154 -0.58532,0.48981 0.0652,1.27505 0.74466,0.89887 0.91082,1.00046 1.18606,0.72522 z m -6.82725,-4.32934 c 0.0899,-0.14553 0.0445,-0.26459 -0.10106,-0.26459 -0.14553,0 -0.33817,0.11906 -0.42811,0.26459 -0.0899,0.14552 -0.0445,0.26458 0.10106,0.26458 0.14552,0 0.33817,-0.11906 0.42811,-0.26458 z m -3.41203,-1.25126 c -0.26895,-0.26896 -0.49086,0.13596 -0.27019,0.49302 0.16669,0.26972 0.22901,0.26993 0.31864,10e-4 0.0613,-0.18383 0.0395,-0.40617 -0.0485,-0.49409 z m 3.01515,-0.13645 c 0,-0.1476 -0.17549,-0.11895 -0.39687,0.0648 -0.21828,0.18115 -0.39688,0.44844 -0.39688,0.59396 0,0.14759 0.17549,0.11894 0.39688,-0.0648 0.21828,-0.18116 0.39687,-0.44844 0.39687,-0.59396 z m -1.05833,-1.42282 c 0,-0.20046 0.11906,-0.36447 0.26458,-0.36447 0.14552,0 0.26459,-0.1786 0.26459,-0.39688 0,-0.58504 -0.35717,-0.48494 -1.02973,0.28857 -0.66944,0.76993 -0.58091,1.7348 0.10681,1.16404 0.21656,-0.17973 0.39375,-0.49079 0.39375,-0.69126 z m -3.34448,-0.35618 c -0.40898,-0.69235 -1.15344,-1.28312 -1.15344,-0.91532 0,0.27257 1.16525,1.70078 1.38763,1.70078 0.12639,0 0.021,-0.35346 -0.23419,-0.78546 z m 1.75698,-0.90194 c 0,-0.20046 -0.18364,-0.51689 -0.40809,-0.70316 -0.29741,-0.24683 -0.32882,-0.41707 -0.11581,-0.62771 0.2118,-0.20945 0.3642,-0.16155 0.55352,0.17399 0.29977,0.53128 1.03306,0.6264 1.01991,0.1323 -0.0177,-0.66704 -0.95656,-1.47115 -1.66951,-1.42997 -0.44703,0.0258 -0.6616,0.16291 -0.58165,0.37163 0.0697,0.1819 0.0114,0.33073 -0.12959,0.33073 -0.42823,0 -0.28784,0.68227 0.29209,1.41953 0.5997,0.7624 1.03913,0.90308 1.03913,0.33266 z m 3.43958,-0.97113 c 0,-0.12136 -0.11906,-0.29425 -0.26458,-0.38418 -0.14552,-0.0899 -0.26458,-0.1067 -0.26458,-0.0373 0,0.0695 -0.0728,0.31595 -0.16175,0.54778 -0.11839,0.30851 -0.0475,0.37766 0.26458,0.25792 0.23448,-0.09 0.42633,-0.2629 0.42633,-0.38427 z m -6.87916,-0.0619 c 0,-0.52748 -2.92028,-4.44843 -3.18931,-4.28216 -0.19521,0.12064 2.82981,4.62136 3.10611,4.62136 0.0458,0 0.0832,-0.15264 0.0832,-0.3392 z m 5.55625,-1.64022 c 0,-0.65011 -1.47274,-2.79243 -2.05053,-2.98279 -0.65564,-0.21602 -0.31951,1.10331 0.63371,2.48734 0.99196,1.44028 1.41682,1.58885 1.41682,0.49545 z m 2.789,0.37432 c 0.31026,-0.50201 -0.14224,-0.62588 -0.60304,-0.16509 -0.41247,0.41247 -0.4132,0.44728 -0.009,0.44728 0.24088,0 0.51644,-0.12699 0.61236,-0.28219 z m -6.91894,-1.50375 c -0.14144,-1.78689 -0.25467,-2.18281 -0.62426,-2.18281 -0.41733,0 -0.32454,1.39601 0.13655,2.05431 0.36953,0.52757 0.36953,0.56924 0,0.42744 -0.47875,-0.18372 -0.51434,0.003 -0.13555,0.71064 0.49868,0.93178 0.7453,0.53229 0.62326,-1.00958 z m 8.23098,0.7276 c 0.0899,-0.14552 0.0374,-0.26458 -0.11668,-0.26458 -0.15411,0 -0.2802,0.11906 -0.2802,0.26458 0,0.14552 0.0525,0.26459 0.11668,0.26459 0.0642,0 0.19026,-0.11907 0.2802,-0.26459 z m 1.01967,-1.95721 c 0.38507,-0.50484 0.70012,-0.99885 0.70012,-1.0978 0,-0.25665 -2.90191,2.61333 -2.90656,2.87459 -0.007,0.37491 1.47586,-0.81894 2.20644,-1.77679 z m -3.26635,-1.95428 c 0.18787,-1.35095 0.43321,-2.5129 0.54519,-2.58211 0.34796,-0.21505 1.01148,0.64837 1.33941,1.74292 0.53048,1.77057 1.23654,1.14487 1.20761,-1.07015 -0.0245,-1.87732 0.54135,-2.93671 2.20835,-4.13433 0.72146,-0.51832 1.31174,-1.10302 1.31174,-1.29933 0,-0.19631 -0.24964,-0.78004 -0.55476,-1.29718 -0.56032,-0.94967 -0.60398,-2.55924 -0.10988,-4.05093 0.19478,-0.58802 0.16787,-0.59532 -2.19602,-0.59532 -1.81724,0 -2.49272,0.0995 -2.80669,0.41349 -0.37492,0.37492 -0.46854,0.37492 -1.00381,0 -0.32468,-0.22742 -0.81189,-0.41349 -1.08267,-0.41349 -1.32292,0 0.74996,1.6567 3.5205,2.81369 1.87491,0.78296 2.81075,1.41965 2.08669,1.41965 -0.67231,0 -3.71399,-1.30935 -5.12335,-2.20543 -1.44357,-0.91784 -3.1515,-1.12369 -3.93413,-0.47416 -0.61678,0.51188 -0.54653,1.9405 0.13822,2.81103 l 0.57577,0.73197 -1.10344,2.14798 c -1.14092,2.22093 -1.20758,2.79904 -0.45519,3.94734 0.568,0.86688 1.66867,0.87371 2.06093,0.0128 0.15919,-0.34938 0.41774,-0.59328 0.57457,-0.54199 0.36297,0.1187 0.92957,1.81034 1.12417,3.3563 0.18158,1.44257 0.84482,2.6606 1.14079,2.09503 0.10693,-0.20432 0.34812,-1.47682 0.536,-2.82778 z m 1.49958,-5.48755 -0.7471,-0.9403 -0.9598,0.84272 c -0.52789,0.4635 -0.9938,0.73602 -1.03535,0.60561 -0.18341,-0.57569 0.33497,-4.46014 0.57893,-4.33816 0.14552,0.0728 0.22804,0.56756 0.18337,1.09956 -0.0906,1.07942 0.24827,1.48054 0.74509,0.8819 0.50158,-0.60437 0.71239,-0.49059 1.46246,0.78929 0.93326,1.59251 0.77634,2.32293 -0.2276,1.05938 z m -9.26157,7.08552 c -0.0559,-0.54484 0.0175,-1.1813 0.163,-1.41435 0.19733,-0.31598 0.10354,-0.64222 -0.36881,-1.28283 -0.4795,-0.65031 -0.65484,-0.75353 -0.72149,-0.42473 -0.0484,0.2389 0.11883,0.75594 0.37169,1.14896 0.45171,0.70213 0.45078,0.7067 -0.0534,0.26218 -0.48655,-0.42901 -0.53053,-0.42451 -0.8499,0.0869 -0.27106,0.43403 -0.27173,0.62562 -0.003,0.98158 0.52696,0.69914 1.36777,1.63292 1.47035,1.63292 0.0515,0 0.0478,-0.44578 -0.008,-0.99061 z m 24.91577,0.1003 c 0.71278,-0.64985 1.20652,-1.4728 1.00471,-1.67461 -0.17587,-0.17588 -2.81494,2.03629 -2.81494,2.35958 0,0.36995 1.11656,-0.0525 1.81023,-0.68497 z m -41.37291,0.24902 c 1.29744,-0.5421 3.2381,-2.42575 3.58636,-3.481 0.36777,-1.11434 0.54114,-1.12741 1.15566,-0.0871 1.22089,2.0668 2.8985,3.41565 4.24815,3.41565 0.86884,0 0.85089,-0.30782 -0.0804,-1.37986 -0.41526,-0.478 -1.0716,-1.37511 -1.45852,-1.99358 -0.38693,-0.61846 -0.87641,-1.12448 -1.08775,-1.12448 -0.21133,0 -0.49959,-0.20836 -0.64057,-0.46302 -0.14098,-0.25466 -1.02781,-0.86804 -1.97072,-1.36306 l -1.7144,-0.90004 -1.22734,0.81297 c -2.46306,1.63146 -4.61527,1.33923 -6.26914,-0.85122 -2.25525,-2.98695 -1.9242,-5.58985 0.9857,-7.75009 0.61689,-0.45797 0.86935,-0.93168 1.11131,-2.08522 0.28559,-1.36153 0.26619,-1.55849 -0.22078,-2.24238 -0.29363,-0.41236 -0.5812,-1.12369 -0.63904,-1.58073 -0.0578,-0.45704 -0.30457,-1.05132 -0.54828,-1.32062 -0.37688,-0.41644 -0.49772,-0.43502 -0.80845,-0.12429 -1.12458,1.12458 -1.16095,3.05971 -0.0893,4.74958 0.44401,0.70013 0.75641,1.32386 0.69422,1.38605 -0.0622,0.0622 -0.53198,-0.0867 -1.04397,-0.33082 -1.20718,-0.57567 -2.16742,-0.33275 -3.25874,0.82439 -2.11507,2.24262 -2.22259,5.96109 -0.23873,8.25608 0.69765,0.80706 1.00596,0.96829 1.8082,0.94555 1.09776,-0.0311 1.19654,0.15975 0.43797,0.84625 -0.64695,0.58548 -0.71949,2.38866 -0.12995,3.23034 0.73452,1.04867 4.51734,2.91306 6.02543,2.96967 0.25934,0.01 0.87722,-0.15182 1.37309,-0.359 z m 25.44813,-0.42401 c 0.31772,-0.52546 0.33601,-0.81099 0.0928,-1.44825 -0.36374,-0.95301 -0.63373,-0.61594 -0.926,1.15606 -0.2141,1.29808 0.14819,1.42513 0.83321,0.29219 z m -3.74608,-0.44465 c -0.1094,-0.26093 -0.21341,-0.77209 -0.23112,-1.13589 -0.0177,-0.3638 -0.15127,-0.72099 -0.29679,-0.79375 -0.41248,-0.20624 -0.34887,1.385 0.0823,2.05878 0.43698,0.68285 0.74823,0.59265 0.4456,-0.12914 z m -1.98312,-0.75153 c 0,-0.33842 -1.78239,-2.76561 -2.0309,-2.76561 -0.37623,0 0.1665,2.41456 0.71627,3.18664 0.57072,0.8015 0.62952,0.82417 0.96127,0.37047 0.19435,-0.26578 0.35336,-0.62196 0.35336,-0.7915 z m -6.69446,0.31828 c -0.28507,-0.74289 -3.48116,-4.7039 -3.57306,-4.4282 -0.1119,0.33571 3.11561,4.7839 3.4711,4.7839 0.13115,0 0.17703,-0.16007 0.10196,-0.3557 z m 1.27938,-1.98827 c -0.0915,-0.38431 -0.2282,-0.9071 -0.30385,-1.16176 -0.0757,-0.25466 -0.0192,-0.46302 0.12545,-0.46302 0.14466,0 0.31747,0.20836 0.38402,0.46302 0.0888,0.33972 0.12917,0.30033 0.15169,-0.14792 0.0277,-0.55129 -2.69857,-4.50631 -3.4089,-4.94532 -0.49428,-0.30548 -0.26732,0.85109 0.3175,1.61797 0.54554,0.71537 0.54759,0.7335 0.0327,0.28884 -0.50472,-0.43587 -0.56306,-0.43881 -0.7176,-0.0361 -0.10629,0.27699 0.18398,0.92857 0.78853,1.77007 0.67483,0.93931 0.81678,1.278 0.48175,1.14944 -0.32351,-0.12415 -0.25957,0.0174 0.20051,0.44376 0.37152,0.34431 0.88359,0.94361 1.13792,1.33177 0.55601,0.84859 1.04186,0.66225 0.81029,-0.31076 z m 15.94985,-2.15652 c 0.91918,-1.01723 1.52968,-1.84951 1.35667,-1.84951 -0.23645,0 -0.23277,-0.0986 0.0148,-0.39688 0.27385,-0.32997 0.24139,-0.39688 -0.19249,-0.39688 -0.90315,0 -2.60704,1.45398 -3.07528,2.62423 -0.98845,2.47037 -0.32476,2.47704 1.89629,0.019 z m -13.10973,0.81847 c 0.14062,-0.53772 -0.94874,-2.4034 -1.40333,-2.4034 -0.44982,0 -0.27272,1.36414 0.29672,2.28552 0.58056,0.93936 0.88335,0.97161 1.10661,0.11788 z m 29.16649,-0.5876 c 1.01872,-0.89445 1.5942,-1.7641 1.33735,-2.02095 -0.17433,-0.17433 -2.79346,2.30335 -2.79346,2.6426 0,0.41713 0.53139,0.19026 1.45611,-0.62165 z m -46.53249,-1.5682 c 0.80517,-0.38977 1.26468,-0.84235 1.60489,-1.58068 0.43146,-0.93635 1.13816,-1.42861 1.13816,-0.7928 0,0.43682 1.62089,2.12588 2.04009,2.12588 0.24487,0 0.33923,-0.15255 0.24548,-0.39688 -0.25042,-0.65257 0.2768,-0.44958 0.85898,0.33073 0.29857,0.40019 0.54615,0.60855 0.55019,0.46302 0.0116,-0.41852 -2.40932,-3.04271 -2.80704,-3.04271 -0.19719,0 -0.35854,-0.12779 -0.35854,-0.28398 0,-0.15619 -0.20699,-0.24412 -0.45998,-0.1954 -0.25299,0.0487 -0.63994,-0.066 -0.8599,-0.25484 -0.21995,-0.18889 -0.78239,-0.64357 -1.24988,-1.0104 -0.80397,-0.63087 -0.84926,-0.75962 -0.83683,-2.37919 0.0128,-1.66467 -0.0177,-1.74325 -1.09884,-2.8291 l -1.11199,-1.11688 0.15258,0.92604 c 0.0839,0.50933 0.23063,1.19394 0.32603,1.52136 0.1444,0.49563 0.0686,0.5987 -0.45272,0.61555 -1.27746,0.0413 -1.70541,0.23815 -2.57346,1.18372 -0.8467,0.92233 -0.88391,1.0474 -0.78299,2.63231 0.1232,1.93478 1.03667,3.52215 2.41924,4.20399 1.13252,0.55852 1.91485,0.52976 3.25653,-0.11974 z m 9.09305,0.11269 c 0,-0.22721 -2.93472,-4.04825 -3.2669,-4.25355 -0.52499,-0.32446 0.11237,0.78705 1.48044,2.5818 1.25795,1.65028 1.78646,2.14485 1.78646,1.67175 z m 1.32291,-2.22799 c 0,-0.44515 -0.106,-0.74385 -0.23557,-0.66378 -0.27825,0.17197 -0.65708,-1.59236 -0.42317,-1.97083 0.0884,-0.14299 -0.37032,-0.95004 -1.01931,-1.79345 -1.60305,-2.08329 -2.3455,-2.63775 -1.15504,-0.86259 0.53136,0.79234 0.90345,1.50326 0.82688,1.57984 -0.0766,0.0766 -0.25181,-0.0359 -0.38942,-0.24999 -0.21961,-0.34163 -0.28221,-0.34069 -0.512,0.008 -0.144,0.21828 -0.20606,0.54886 -0.13791,0.73461 0.13581,0.37022 2.8247,4.02789 2.96105,4.02789 0.0465,0 0.0845,-0.36421 0.0845,-0.80936 z m 4.31688,0.49136 c 0.31785,-0.1749 0.75651,-0.34721 0.97479,-0.38291 0.5359,-0.0876 1.51284,-1.34789 1.66601,-2.14916 0.21225,-1.11031 -0.20552,-2.01222 -1.32956,-2.87034 l -1.08147,-0.82563 1.03397,-0.92245 c 0.92332,-0.82374 1.03397,-1.05485 1.03397,-2.15973 0,-2.41706 -2.27869,-5.45784 -4.41599,-5.89288 -2.57708,-0.52456 -5.41378,0.22242 -6.16333,1.62297 -0.36802,0.68765 -0.35128,0.7595 0.3014,1.29384 0.38009,0.31116 0.77254,0.83364 0.87211,1.16106 0.14712,0.48376 0.38842,0.60287 1.2877,0.63562 1.55264,0.0565 1.55286,0.0566 2.37694,0.60416 1.16837,0.77634 1.59386,1.87718 1.61835,4.18709 0.0151,1.42047 -0.07,2.01821 -0.27603,1.93917 -0.29572,-0.11347 -0.89282,0.89803 -0.89282,1.51246 0,0.17643 0.23812,0.46949 0.52917,0.65125 0.29104,0.18176 0.52916,0.5013 0.52916,0.7101 0,0.20879 0.26462,0.56497 0.58804,0.7915 0.70435,0.49335 0.63091,0.48823 1.34759,0.0939 z m -0.44265,-1.60023 -0.4732,-0.85989 0.54844,0.62462 c 0.47374,0.53954 0.71382,1.09517 0.4732,1.09517 -0.0414,0 -0.28818,-0.38695 -0.54844,-0.8599 z m 20.92464,-0.77748 c 1.10453,-1.1344 1.11352,-1.15889 0.71152,-1.93858 -0.67915,-1.31722 -1.99493,-2.50946 -2.76949,-2.50946 -0.81686,0 -1.99068,0.99199 -2.37739,2.00913 -0.55295,1.45437 1.72922,4.45923 2.89905,3.81709 0.22971,-0.12609 0.92105,-0.74627 1.53631,-1.37818 z m 20.2805,-0.77732 c 1.90182,-0.72779 3.47981,-2.08739 3.8814,-3.34424 0.48399,-1.51477 0.7041,-1.60681 1.58599,-0.66318 2.38416,2.55104 6.69542,2.50653 8.97752,-0.0927 0.9496,-1.08153 1.1477,-1.76344 1.0254,-3.52963 -0.051,-0.73313 -0.028,-1.33289 0.05,-1.3328 0.078,9e-5 0.6095,0.23829 1.1804,0.52933 1.2835,0.65438 2.3267,0.66251 3.7214,0.029 2.4228,-1.10042 4.224,-3.5312 4.5298,-6.11304 0.1868,-1.57736 -0.6628,-3.5529 -1.8082,-4.20435 -0.9079,-0.51639 -0.945,-0.76435 -0.1592,-1.064873 0.8958,-0.34256 1.4545,-1.08924 1.8101,-2.41874 0.398,-1.48787 0.1526,-2.91068 -0.6706,-3.88906 -0.7914,-0.94051 -1.513,-0.9977 -2.2804,-0.18075 -0.8062,0.85808 -0.5215,1.06536 0.4391,0.31972 0.4396,-0.3413 10e-4,0.33581 -1.0256,1.58379 -1.7478,2.12438 -2.1089,2.97409 -0.5903,1.38898 1.2638,-1.31912 1.076,-0.65654 -0.2557,0.90224 l -1.247,1.45966 0.4561,1.194153 c 0.6546,1.71428 0.4269,3.58663 -0.5902,4.85213 -1.2018,1.49522 -2.6115,2.15307 -5.2582,2.45381 -1.267,0.14397 -2.3907,0.31551 -2.4969,0.38119 -0.1063,0.0657 -0.2681,0.58745 -0.3596,1.15948 -0.1135,0.70971 -0.4251,1.25785 -0.9812,1.72573 -1.20565,1.01453 -1.84819,1.11102 -4.26793,0.64089 -0.45223,-0.0879 -9.20612,8.02422 -9.20612,8.53115 0,0.44003 2.03732,0.25708 3.53979,-0.31788 z M 826.0173,-104.5836 c 0,-0.33291 0.7563,-0.99283 0.9341,-0.81504 0.07,0.0701 -0.1114,0.34368 -0.4033,0.60787 -0.2919,0.2642 -0.5308,0.35742 -0.5308,0.20717 z m -74.34791,24.003683 c 0.21828,-0.14107 0.30758,-0.27319 0.19844,-0.29361 -0.10914,-0.0204 -0.28774,-0.0538 -0.39688,-0.0743 -0.53774,-0.1006 -0.87892,-0.52384 -0.73166,-0.90761 0.0904,-0.23551 0.0776,-0.34144 -0.0285,-0.2354 -0.10603,0.10603 -0.46951,-0.0672 -0.80773,-0.38492 l -0.61492,-0.5777 v 0.82956 c 0,1.36803 1.35774,2.30537 2.38125,1.64393 z m 2.11667,0.0503 c 0,-0.11784 -0.50602,-0.81682 -1.12448,-1.55328 -0.61847,-0.73646 -1.25935,-1.56278 -1.42418,-1.83627 -0.16483,-0.27348 -0.38482,-0.41616 -0.48886,-0.31707 -0.10404,0.0991 0.48238,1.02184 1.30316,2.05053 1.45894,1.82852 1.73436,2.0915 1.73436,1.65609 z m 5.9359,-0.30837 c 0.79586,-0.30259 0.85465,-0.68975 0.21566,-1.42026 -0.25466,-0.29113 -0.31419,-0.44231 -0.13229,-0.33595 0.47943,0.28034 0.40747,-0.0375 -0.22362,-0.98762 l -0.55434,-0.83459 0.75278,0.86228 c 0.93292,1.06862 1.14966,1.07817 1.14966,0.0506 0,-1.78288 -1.61565,-3.42344 -3.37344,-3.42546 -0.93925,-10e-4 -1.02971,0.13309 -0.52917,0.7849 0.1819,0.23687 0.0589,0.14572 -0.27335,-0.20255 -0.62069,-0.65064 -1.38029,-0.63005 -1.38029,0.0374 0,0.20503 0.18423,0.52568 0.4094,0.71255 0.28707,0.23825 0.32008,0.39497 0.11049,0.52451 -0.19534,0.12072 0.0993,0.67888 0.85035,1.61085 0.63209,0.78437 1.35902,1.75354 1.61539,2.15373 0.5331,0.83211 0.46811,0.80971 1.36277,0.46957 z m -1.03813,-0.70058 c -0.25011,-0.38172 -0.32397,-0.61322 -0.16414,-0.51443 0.30543,0.18876 0.92146,1.20846 0.73006,1.20846 -0.0611,0 -0.3158,-0.31231 -0.56592,-0.69403 z m -3.67959,-1.35098 c -0.26895,-0.26895 -0.49087,0.13597 -0.2702,0.49302 0.1667,0.26972 0.22902,0.26993 0.31864,0.001 0.0613,-0.18383 0.0395,-0.40617 -0.0484,-0.49408 z m -1.11022,-0.20395 c -0.40537,-0.61867 -0.90171,-0.885 -0.90171,-0.48385 0,0.27014 0.8447,1.14531 1.10544,1.14531 0.12632,0 0.0346,-0.29766 -0.20373,-0.66146 z m 16.67114,-1.18122 c 0.66691,-0.28587 1.21256,-0.6223 1.21256,-0.74763 0,-0.12533 -0.31226,-0.51651 -0.69391,-0.8693 -0.38165,-0.35279 -1.15931,-1.26651 -1.72813,-2.03049 -0.56883,-0.76399 -1.14954,-1.38907 -1.29047,-1.38907 -0.14689,0 -0.25624,1.05003 -0.25624,2.46063 0,3.28309 0.34786,3.60819 2.75619,2.57586 z m -18.22083,-2.10855 c -1.18926,-1.54553 -1.73327,-2.08511 -1.73327,-1.71914 0,0.39475 2.75895,3.8758 2.85158,3.59792 0.0544,-0.16327 -0.44882,-1.00872 -1.11831,-1.87878 z m -2.52702,0.97519 c 0,-0.35767 -1.89808,-2.84479 -2.17104,-2.84479 -0.219,0 -0.32262,0.47003 -0.20413,0.92604 0.0378,0.14552 0.0593,0.47294 0.0478,0.7276 -0.0115,0.25467 0.14467,0.46302 0.34711,0.46302 0.20245,0 0.58136,0.28275 0.84203,0.62832 0.4565,0.60521 1.13826,0.66498 1.13826,0.0998 z m 32.68961,-0.19896 c 0.97708,-0.90254 1.50105,-2.19307 1.20339,-2.96391 -0.44621,-1.15549 -2.11355,-2.32776 -3.31083,-2.32776 -0.74868,0 -5.84447,2.18028 -6.51584,2.78786 -0.6033,0.54598 -1.04758,0.48061 -1.04758,-0.15414 0,-0.42049 0.48737,-0.76538 2.18419,-1.5456 1.2013,-0.55238 2.61042,-1.145 3.13136,-1.31692 1.68854,-0.55727 3.04762,-2.46633 2.6031,-3.6565 -0.79053,-2.11657 -5.14215,-1.11708 -8.4434,1.9393 -1.00494,0.9304 -1.71752,1.86032 -2.00764,2.61998 -0.44198,1.1573 -0.43865,1.19937 0.19251,2.43465 0.42574,0.83325 1.08125,1.55288 1.94449,2.1347 l 1.30224,0.87769 4.02396,-0.084 c 3.86869,-0.0807 4.05159,-0.10947 4.74005,-0.7454 z m 13.29508,-6.07036 c 2.16072,-1.99961 2.71675,-2.65982 2.68394,-3.18682 -0.11941,-1.91829 0.27708,-2.46574 0.85971,-1.18701 0.3643,0.79954 0.37759,0.79586 1.80247,-0.4996 1.17682,-1.06992 1.12186,-1.47858 -0.20009,-1.48757 -0.32742,-0.002 -0.59531,-0.0949 -0.59531,-0.2059 0,-0.11101 -0.26789,-0.31937 -0.59531,-0.46302 -0.81216,-0.35631 -0.94192,-1.705013 -0.22635,-2.352593 0.59801,-0.54118 3.74376,-1.74505 4.55991,-1.74505 0.31331,0 0.49335,0.13855 0.42977,0.33073 -0.14889,0.4501 -1.09967,0.91111 -2.8875,1.40008 -2.49341,0.68196 -2.31195,1.724003 0.37798,2.170523 l 1.52621,0.25335 2.23874,-1.973153 c 2.45624,-2.16483 3.34412,-3.4473 2.65402,-3.8335 -0.35607,-0.19927 -0.35347,-0.29669 0.0232,-0.87164 0.59366,-0.90603 0.32475,-1.34178 -0.95424,-1.5463 -0.69653,-0.11138 -1.06146,-0.29522 -0.99346,-0.50046 0.0721,-0.21763 0.92033,-0.34965 2.57682,-0.40106 2.22471,-0.0691 2.58954,-0.15482 3.68277,-0.86572 l 1.21342,-0.78907 -0.91427,0.7981 c -0.73153,0.63857 -0.84816,0.86422 -0.58349,1.12889 0.26467,0.26468 0.51156,0.11953 1.23506,-0.72613 0.4974,-0.58131 0.9088,-1.20146 0.9142,-1.37812 0.015,-0.47554 1.791,-1.59836 3.31,-2.09236 0.7316,-0.23791 1.5088,-0.58095 1.727,-0.76232 0.2183,-0.18138 0.7541,-0.51373 1.1907,-0.73856 l 0.7937,-0.40879 -0.7834,-0.30046 c -1.1182,-0.42886 -1.9366,-0.13328 -3.3869,1.22331 -0.6994,0.65422 -1.4164,1.14407 -1.5934,1.08855 -0.1769,-0.0555 -0.5272,-0.51057 -0.7783,-1.01122 -1.3977,-2.78647 -4.13731,-3.35051 -6.75714,-1.39117 -0.97106,0.72624 -2.17896,2.89466 -2.17896,3.91167 0,1.06241 -0.6577,0.7963 -1.57853,-0.6387 -3.10905,-4.84503 -8.876,-6.03824 -11.31961,-2.34208 -0.65377,0.98888 -0.72289,1.31169 -0.67878,3.16977 0.045,1.89771 0.006,2.06876 -0.47152,2.06876 -2.59845,0 -5.78658,3.68267 -5.79272,6.69127 -0.005,2.427693 1.32308,3.992743 4.32805,5.100483 l 1.28792,0.47477 -1.39071,1.19818 c -0.7649,0.65899 -1.55282,1.58614 -1.75095,2.06032 -0.74536,1.7839 -0.29691,3.70576 1.12585,4.82491 l 0.7029,0.5529 1.22061,-1.11304 c 0.67134,-0.61217 2.44701,-2.24799 3.94594,-3.63515 z m -0.26853,-5.99927 c -1.44558,-0.95199 -2.3245,-2.03609 -2.3245,-2.867143 0,-0.77375 0.73741,-1.88975 1.67168,-2.52992 0.8249,-0.56523 0.90975,-0.74119 0.89299,-1.85196 -0.038,-2.51764 2.0756,-4.41003 4.64929,-4.16273 1.53507,0.1475 2.471,0.92912 2.74302,2.29076 l 0.18021,0.90208 -1.35037,-1.40099 c -1.23052,-1.27663 -1.42672,-1.38572 -2.2105,-1.22896 -2.31694,0.46339 -3.86802,3.01244 -2.73992,4.50278 0.45624,0.60274 0.29487,0.95321 -0.43889,0.95321 -0.297,0 -0.94482,0.40481 -1.43959,0.89958 -0.6851,0.6851 -0.89959,1.12348 -0.89959,1.83862 0,1.033133 0.69104,1.711753 2.84428,2.793213 0.61846,0.31062 1.12447,0.62187 1.12447,0.69168 0,0.43412 -1.46703,-0.0165 -2.70258,-0.83022 z m -45.58387,9.68838 c -0.26501,-0.29282 -0.54136,-0.47288 -0.61412,-0.40012 -0.0728,0.0728 0.0845,0.37188 0.34953,0.6647 0.26501,0.29283 0.54136,0.47288 0.61412,0.40012 0.0728,-0.0728 -0.0845,-0.37187 -0.34953,-0.6647 z m 5.05779,-0.47956 c -0.37001,-0.37001 -0.42758,-0.37363 -0.42758,-0.0269 0,0.54359 0.61911,1.1627 0.755,0.75501 0.0551,-0.16527 -0.0922,-0.4929 -0.32742,-0.72808 z m -2.27967,0.37967 c 0,-0.0549 -0.20836,-0.26331 -0.46302,-0.46302 -0.41964,-0.32911 -0.429,-0.31975 -0.0999,0.0999 0.34564,0.44072 0.56291,0.58088 0.56291,0.36312 z m -5.56826,-0.8923 c -0.0127,-0.48829 -2.53657,-3.42659 -2.75538,-3.20778 -0.0701,0.0701 0.34141,0.77592 0.91453,1.56843 0.57313,0.7925 1.04588,1.58974 1.05058,1.77165 0.005,0.1819 0.18713,0.33072 0.40541,0.33072 0.21828,0 0.39147,-0.20835 0.38486,-0.46302 z m -1.3109,0.0985 c 0,-0.0549 -0.18132,-0.25037 -0.40294,-0.4343 -0.3369,-0.2796 -0.37562,-0.26323 -0.23627,0.0999 0.14232,0.37088 0.63921,0.63083 0.63921,0.33441 z m 67.70534,-0.9323 c 0.4589,-0.42869 0.8217,-1.03649 0.8217,-1.37661 0,-0.56605 -0.078,-0.53524 -1.1078,0.43688 l -1.10784,1.04589 1.10784,-1.35964 c 1.0068,-1.23562 1.3566,-1.94766 0.9568,-1.94766 -0.3355,0 -3.81771,3.30722 -3.81771,3.62581 0,0.22884 0.38683,0.34294 1.16264,0.34294 0.91782,0 1.33568,-0.16164 1.98437,-0.76761 z m -64.25697,-0.62145 c -1.37533,-1.89098 -2.34169,-2.98081 -2.50145,-2.82105 -0.1957,0.1957 2.70998,3.94553 3.05732,3.94553 0.14408,0 -0.10606,-0.50601 -0.55587,-1.12448 z m 3.99279,-0.004 c -0.26131,-0.25936 -0.2917,-0.22897 -0.14811,0.14811 0.0994,0.26094 0.2473,0.40779 0.32876,0.32632 0.0815,-0.0815 1.7e-4,-0.29495 -0.18065,-0.47443 z m -6.50734,-1.65702 c -0.54616,-0.66651 -1.05605,-1.14881 -1.13309,-1.07177 -0.077,0.077 0.30678,0.68541 0.85294,1.35192 0.54616,0.66652 1.05605,1.14881 1.13309,1.07177 0.077,-0.077 -0.30678,-0.6854 -0.85294,-1.35192 z m 23.45566,-0.0248 1.1233,-1.48779 0.01,-2.81168 c 0.0112,-3.21977 -0.33133,-4.352223 -1.49892,-4.956013 -0.62521,-0.32331 -0.94812,-0.34167 -1.6919,-0.0962 -2.00569,0.66194 -2.30176,2.379493 -1.16156,6.738443 0.7591,2.90201 1.30906,4.10104 1.88103,4.10104 0.11825,0 0.72049,-0.66951 1.3383,-1.48779 z m -18.58995,-0.56272 c -2.93672,-3.76639 -3.82616,-4.79909 -4.14589,-4.81362 -0.1819,-0.008 -0.33073,0.14787 -0.33073,0.34696 0,0.49486 2.63336,3.87135 3.0193,3.87135 0.17056,0 0.83594,0.53578 1.47862,1.19062 0.64268,0.65484 1.21412,1.19063 1.26986,1.19063 0.0557,0 -0.52528,-0.80368 -1.29116,-1.78594 z m -13.20382,0.26458 c 0.003,-0.36076 0.0543,-0.38372 0.23156,-0.10398 0.25978,0.41 1.13452,0.21425 2.07118,-0.46348 0.78357,-0.56695 0.75798,-0.71891 -0.32241,-1.91477 -0.50932,-0.56376 -0.92604,-1.14374 -0.92604,-1.28884 0,-0.33463 -0.31175,-0.33339 -1.2012,0.005 -0.68084,0.25885 -0.69107,0.29212 -0.28181,0.91673 0.65405,0.9982 0.50379,1.06595 -0.28501,0.12852 -0.62773,-0.74602 -0.74568,-0.79419 -1.02136,-0.41718 -0.17142,0.23443 -0.43463,0.42624 -0.58492,0.42624 -0.73836,0 -0.78587,1.92525 -0.0653,2.64583 0.69432,0.69432 2.3794,0.74105 2.3853,0.0662 z m -1.03616,-1.22886 c -0.34515,-0.36739 -0.4844,-0.70201 -0.33147,-0.79653 0.14505,-0.0896 0.44253,0.19546 0.66108,0.63355 0.47986,0.9619 0.43963,0.98179 -0.32961,0.16298 z m 6.32378,0.36897 c 0,-0.14553 -0.12609,-0.26459 -0.2802,-0.26459 -0.15411,0 -0.20661,0.11906 -0.11668,0.26459 0.0899,0.14552 0.21603,0.26458 0.2802,0.26458 0.0642,0 0.11668,-0.11906 0.11668,-0.26458 z m 76.86371,-0.49345 c 0.5833,-0.265 1.4465,-0.92137 1.9182,-1.4586 0.6904,-0.78623 0.8577,-1.20484 0.8577,-2.14575 0,-1.15136 -0.435,-2.51679 -0.8018,-2.51679 -0.1032,0 -1.1743,0.98227 -2.3802,2.18281 -1.2059,1.20055 -2.0369,1.94469 -1.8467,1.65365 0.1902,-0.29104 1.0115,-1.14531 1.8251,-1.89838 0.8137,-0.75307 1.4001,-1.44853 1.3031,-1.54547 -0.1796,-0.1796 -6.5662,5.39771 -6.5662,5.73415 0,0.62676 4.3082,0.6225 5.6908,-0.006 z m -75.54079,-0.56489 c -0.15576,-0.29104 -0.39808,-0.52916 -0.53848,-0.52916 -0.41925,0 -0.28937,0.48301 0.20775,0.77255 0.63613,0.37051 0.65274,0.35829 0.33073,-0.24339 z m 2.48058,-0.41005 c -0.26621,-0.40628 -0.51807,-0.58271 -0.57746,-0.40452 -0.10775,0.32325 0.73786,1.43679 0.93862,1.23603 0.061,-0.061 -0.1015,-0.43521 -0.36116,-0.83151 z m -6.62768,-0.64119 c -0.5403,-0.72371 -1.03145,-1.26673 -1.09146,-1.20673 -0.15593,0.15593 1.57874,2.52256 1.84896,2.52256 0.12367,0 -0.2172,-0.59213 -0.7575,-1.31583 z m 5.20012,0.91256 c -0.18407,-0.2218 -0.38917,-0.34879 -0.45576,-0.28219 -0.18349,0.18349 0.18932,0.68546 0.50908,0.68546 0.17545,0 0.15537,-0.15182 -0.0533,-0.40327 z m -3.97557,-0.67773 c -0.16243,-0.3035 -0.36218,-0.48497 -0.44388,-0.40327 -0.0817,0.0817 0.002,0.33003 0.18612,0.55183 0.47567,0.57315 0.60433,0.499 0.25776,-0.14856 z m 1.34074,-1.29225 c -0.5796,-0.81399 -1.0258,-1.19276 -1.19994,-1.01862 -0.15974,0.15974 1.20385,1.80437 1.49602,1.80437 0.14489,0 0.0116,-0.35359 -0.29608,-0.78575 z m -8.25879,0.21754 c 0.6829,-0.16699 1.28816,-0.34249 1.34501,-0.39 0.2178,-0.18201 -2.91942,-4.076673 -3.16271,-3.926313 -0.29802,0.18419 -0.23166,0.31101 1.14745,2.193103 0.56811,0.77529 0.96956,1.47298 0.89212,1.55042 -0.0774,0.0774 -0.53451,-0.422 -1.01572,-1.10986 -1.62582,-2.323993 -1.44856,-2.169393 -1.93656,-1.68898 -0.23788,0.23419 -0.52414,0.83208 -0.63614,1.32865 -0.46177,2.04744 0.63254,2.71153 3.36655,2.04298 z m 2.89528,-0.95315 c 0.25467,-0.25466 0.61185,-0.47493 0.79375,-0.48948 0.82203,-0.0658 0.85772,-0.13632 0.45901,-0.90735 -0.22797,-0.44084 -0.33842,-0.92459 -0.24546,-1.07501 0.093,-0.15041 -0.029,-0.492283 -0.27101,-0.759713 -0.2501,-0.27636 -0.33109,-0.55355 -0.18765,-0.64221 0.13881,-0.0858 0.572,0.26306 0.96264,0.77522 0.87738,1.150303 1.78303,2.009093 1.94642,1.845713 0.12489,-0.12489 -1.56773,-2.415273 -2.60419,-3.523873 -0.64885,-0.69402 -1.22929,-0.6373 -1.09156,0.10667 0.0902,0.48699 0.078,0.48733 -0.44643,0.0127 -0.45852,-0.41496 -0.67013,-0.44363 -1.41559,-0.19182 -0.48207,0.16284 -1.14705,0.50448 -1.47773,0.75921 l -0.60124,0.46314 1.51604,2.044913 c 0.83382,1.1247 1.66993,2.04491 1.85801,2.04491 0.18809,0 0.55033,-0.20836 0.80499,-0.46302 z m 11.12625,-2.11667 c 0.26223,-0.25466 0.71607,-0.48741 1.00854,-0.51722 0.29247,-0.0298 1.09794,-0.296893 1.78994,-0.593523 1.11076,-0.47612 1.24834,-0.6239 1.17427,-1.26131 -0.0634,-0.54574 -0.49714,-1.00978 -1.77655,-1.90072 l -1.69266,-1.17871 -0.4817,0.59488 c -0.80691,0.99648 -0.90394,2.26215 -0.24443,3.18834 0.39737,0.55806 0.45246,0.75833 0.17981,0.65371 -0.21619,-0.083 -0.47042,-0.34999 -0.56495,-0.5934 -0.14601,-0.37593 -0.22735,-0.34297 -0.54025,0.21889 -0.5579,1.001803 -0.49269,1.852093 0.14205,1.852093 0.29104,0 0.74371,-0.20836 1.00593,-0.46303 z m -4.46324,-1.900693 c -0.76242,-0.94873 -1.30519,-1.34144 -1.30519,-0.94434 0,0.24885 1.9264,2.263593 2.04804,2.14196 0.067,-0.067 -0.26732,-0.60589 -0.74285,-1.19762 z m 1.8872,0.76691 c 0.64102,-0.34306 0.67193,-1.47921 0.0487,-1.79193 -0.54097,-0.27147 -1.68114,-0.0384 -1.6931,0.34603 -0.008,0.25791 0.8827,1.71751 1.04904,1.71903 0.0459,4.2e-4 0.31384,-0.12249 0.59531,-0.27313 z m 1.25104,-3.43743 c 0.10863,-0.92711 -1.36411,-2.56986 -3.65978,-4.08225 -1.02381,-0.67449 -2.06545,-1.29321 -2.31475,-1.37493 -0.2493,-0.0817 -0.85287,-0.326 -1.34125,-0.54286 -0.99558,-0.44206 -4.6462,-0.33843 -5.13026,0.14563 -0.18964,0.18965 0.0618,0.67622 0.81318,1.57368 1.42495,1.70194 1.89776,2.09934 1.89776,1.59507 0,-0.20699 -0.14287,-0.51923 -0.3175,-0.69385 -0.18699,-0.18699 -0.20595,-0.3175 -0.0461,-0.3175 0.14926,0 0.54757,0.29398 0.88513,0.6533 0.33756,0.35932 0.7155,0.59041 0.83987,0.51355 0.12436,-0.0769 0.22612,0.032 0.22612,0.24188 0,0.2099 0.2351,0.44311 0.52244,0.51825 0.28734,0.0751 0.76907,0.55465 1.07052,1.06557 0.48699,0.82537 1.31746,1.49437 1.31746,1.06129 0,-0.0896 -0.43652,-0.71093 -0.97005,-1.38076 l -0.97005,-1.21788 1.37681,1.32292 c 1.32276,1.27098 1.43959,1.32462 2.97573,1.36627 0.8794,0.0238 1.67281,0.11725 1.76314,0.20758 0.35949,0.35949 0.98819,-0.0284 1.0616,-0.65496 z m -3.66054,-2.16043 -0.59775,-0.87513 0.75329,0.71959 c 0.41431,0.39577 0.6833,0.78958 0.59775,0.87513 -0.0855,0.0856 -0.42453,-0.23827 -0.75329,-0.71959 z m -7.13289,1.74577 c 0,-0.21351 -3.49022,-4.60527 -3.6599,-4.60527 -0.42097,0 -1.1026,0.97615 -1.1026,1.579 0,0.84949 1.134,2.00795 2.23132,2.27944 0.42686,0.10562 1.08171,0.3515 1.45521,0.54641 0.73594,0.38405 1.07597,0.44739 1.07597,0.20042 z m 74.15915,-1.93072 c 0.4078,-0.32254 0.44481,-0.31435 0.2988,0.0661 -0.16506,0.43014 0.1669,0.59834 0.5079,0.25734 0.22207,-0.22207 -0.59196,-1.14595 -1.0097,-1.14595 -0.58056,0 -1.53896,1.26596 -1.34185,1.77247 0.17521,0.45023 0.21005,0.44733 0.6324,-0.0527 0.24584,-0.29104 0.65644,-0.69483 0.91245,-0.89732 z m 11.48714,0.44855 c 1.3168,-1.27637 1.0741,-1.73627 -0.3155,-0.59762 -0.6533,0.53537 -1.1225,1.07912 -1.0427,1.20834 0.2325,0.3761 0.4331,0.28588 1.3582,-0.61072 z m -83.98213,0.0519 c -0.0761,-0.29105 -0.18403,-0.52917 -0.23981,-0.52917 -0.0558,0 -0.10144,0.23812 -0.10144,0.52917 0,0.29104 0.10792,0.52916 0.23982,0.52916 0.13189,0 0.17754,-0.23812 0.10143,-0.52916 z m 71.57581,-1.30638 c 0.0661,-0.19844 -0.0331,-0.29766 -0.23151,-0.23151 -0.191,0.0637 -0.39936,0.27202 -0.46302,0.46302 -0.0661,0.19843 0.0331,0.29765 0.23151,0.23151 0.19099,-0.0637 0.39935,-0.27203 0.46302,-0.46302 z m 16.98292,-2.95159 c 0,-0.40474 -0.2624,-0.27718 -1.4768,0.71796 -0.643,0.52686 -1.169,1.13326 -1.169,1.34756 0,0.2474 0.4829,-0.0147 1.3229,-0.71797 0.7276,-0.60919 1.3229,-1.21558 1.3229,-1.34755 z m 2.64583,1.84549 c 0,-0.14552 -0.119,-0.191 -0.2645,-0.10107 -0.14563,0.0899 -0.26463,0.28259 -0.26463,0.42811 0,0.14552 0.119,0.191 0.26463,0.10106 0.1455,-0.0899 0.2645,-0.28258 0.2645,-0.4281 z m -84.0486,0.0974 c 0.24451,-0.40399 -0.87129,-3.33692 -1.8038,-4.74138 -1.10211,-1.6599 -2.49462,-2.45341 -4.32174,-2.46271 -1.68129,-0.009 -2.16542,0.3426 -2.16542,1.57065 0,1.33516 0.96383,2.31433 3.07183,3.12073 0.85711,0.32788 2.27276,1.06265 3.14588,1.63283 1.69679,1.10806 1.88643,1.18854 2.07325,0.87988 z m 12.57132,-1.83023 c 1.84287,-0.88779 2.95022,-2.52337 2.95022,-4.35752 0,-0.69053 0.12606,-1.33341 0.28012,-1.42863 0.15407,-0.0952 0.74319,0.14779 1.30916,0.54 1.48849,1.03153 2.80892,1.42997 4.76072,1.43656 4.20833,0.0142 5.81618,-2.30573 4.0349,-5.82184 -1.02553,-2.0243 -1.88712,-2.51532 -4.81562,-2.74441 -1.31685,-0.10302 -2.39428,-0.29186 -2.39428,-0.41964 0,-0.12779 0.51207,-0.45885 1.13792,-0.7357 2.62878,-1.16283 3.95818,-3.13286 3.35251,-4.96806 -0.78433,-2.37653 -2.92694,-3.60746 -5.25874,-3.02115 -2.58134,0.64906 -5.59125,2.99396 -6.01616,4.68697 -0.25062,0.99852 -0.65915,0.58243 -1.26549,-1.28889 -0.71281,-2.19993 -1.66689,-3.45103 -3.19633,-4.19142 -1.55642,-0.75345 -2.74137,-0.56429 -3.71525,0.5931 -0.60847,0.72313 -0.68397,0.99922 -0.54685,1.99965 0.17902,1.3061 1.23294,3.57228 2.10058,4.51675 0.31654,0.34456 1.49826,1.33218 2.62604,2.1947 1.12779,0.86253 2.05052,1.69906 2.05052,1.85896 0,0.20643 -0.63297,0.22375 -2.18281,0.0598 -4.59439,-0.48616 -6.37246,-0.16355 -7.58341,1.37592 -0.80192,1.01947 -0.74826,2.7391 0.11759,3.7681 0.8931,1.06139 2.20067,1.45774 4.26295,1.2922 1.81548,-0.14573 1.9465,-0.0308 1.28464,1.12701 -0.50937,0.89106 -0.49318,2.39059 0.034,3.14317 1.05858,1.51134 3.98407,1.67986 6.67312,0.38442 z m -0.87123,-8.87812 c -1.30148,-1.85813 0.91187,-3.87902 2.45242,-2.23918 0.3164,0.3368 0.57528,0.92536 0.57528,1.30791 0,1.39292 -2.225,2.07729 -3.0277,0.93127 z m 2.44516,-0.62574 c 0.11057,-0.77387 -0.60663,-1.34327 -1.13725,-0.90289 -0.41668,0.34581 -0.52818,1.10341 -0.20932,1.42227 0.37342,0.37342 1.26832,0.0283 1.34657,-0.51938 z m 63.46202,10.06591 c 0.2464,-0.64203 -0.042,-0.7042 -0.5686,-0.12251 -0.4384,0.48438 -0.4414,0.53079 -0.034,0.53079 0.2454,0 0.5166,-0.18373 0.6028,-0.40828 z m 4.7216,0.1437 c 0.09,-0.14552 0.037,-0.26459 -0.1167,-0.26459 -0.1541,0 -0.2802,0.11907 -0.2802,0.26459 0,0.14552 0.053,0.26458 0.1167,0.26458 0.064,0 0.1902,-0.11906 0.2802,-0.26458 z M 766.04357,7.3943994 c -0.22321,-0.40103 -0.17322,-1.33002 0.20643,-3.83646 0.61856,-4.08363999 0.72533,-4.55379999 0.99615,-4.38641999 0.11847,0.0732 0.0505,1.23895 -0.15103,2.59050999 -0.20154,1.35155 -0.45433,3.29081 -0.56174,4.30946 -0.16415,1.55672 -0.24226,1.76769 -0.48981,1.32291 z m 41.44544,-1.23783 c -0.7418,-0.80885 -0.76402,-0.88544 -0.27901,-0.9618 0.60741,-0.0956 2.19266,0.9788 2.05487,1.39273 -0.20021,0.60142 -1.00911,0.40513 -1.77586,-0.43093 z m 1.06579,0.19511 c 0,-0.0642 -0.11906,-0.19026 -0.26458,-0.28019 -0.14552,-0.0899 -0.26458,-0.0374 -0.26458,0.11667 0,0.15411 0.11906,0.2802 0.26458,0.2802 0.14552,0 0.26458,-0.0525 0.26458,-0.11668 z m -29.89791,0.11013 c 0,-0.14912 0.29765,-0.3843 0.66146,-0.52262 l 0.66146,-0.25148 v -4.16051 c 0,-3.24503 0.0701,-4.09037 0.31875,-3.84175 0.35151,0.35151 0.65301,6.45012 0.37387,7.56233 -0.0903,0.35992 -0.35117,0.84133 -0.57963,1.06979 -0.46495,0.46495 -1.43591,0.56249 -1.43591,0.14424 z m -2.09029,-3.45508 c 0.0145,-0.64272 0.12635,-1.46623 0.24856,-1.83004 0.13933,-0.41477999 0.16575,-0.0201 0.0708,1.05834 -0.17719,2.01355 -0.35726,2.4486 -0.31941,0.7717 z m 29.11241,-0.28541 c -0.44943,-0.71967 -0.23327,-0.87976 0.33701,-0.2496 0.25113,0.27749 0.3536,0.56817 0.22773,0.64597 -0.12588,0.0778 -0.38001,-0.10057 -0.56474,-0.39637 z m -71.60441,-10.27588 c 0.0899,-0.14552 0.21602,-0.26458 0.2802,-0.26458 0.0642,0 0.11667,0.11906 0.11667,0.26458 0,0.14553 -0.12609,0.26459 -0.28019,0.26459 -0.15411,0 -0.20662,-0.11906 -0.11668,-0.26459 z m 77.94122,-1.81202 c -0.43219,-0.8075704 -0.3427,-1.0324804 0.13785,-0.3464 0.23312,0.33283 0.36183,0.66717 0.28602,0.74299 -0.0758,0.0758 -0.26655,-0.10266 -0.42387,-0.39659 z m -74.39018,-1.4952704 c 0.30122,-0.43656 1.27605,-1.56765 2.16627,-2.51354 0.89023,-0.94588 1.37521,-1.3626 1.07773,-0.92604 -0.29747,0.43656 -1.2723,1.56766 -2.16628,2.51354 -0.89397,0.94589 -1.37895,1.36261 -1.07772,0.92604 z m 73.63324,-0.19732 c -0.16077,-0.32803 -0.72754,-1.37033 -1.25948,-2.31622 -0.53195,-0.94588 -0.84536,-1.60073 -0.69647,-1.45521 0.41507,0.40568 2.47919,4.13692 2.35645,4.25967 -0.0595,0.0595 -0.23974,-0.1602 -0.4005,-0.48824 z m -72.78151,-2.30157 c 2.19018,-2.56386 4.66157,-5.13195 3.96071,-4.11569 -0.30108,0.43656 -1.694,1.98437 -3.09539,3.43958 -2.17507,2.25861 -2.30171,2.35756 -0.86532,0.67611 z m 55.93757,0.75482 c -0.96443,-1.45734 -0.75456,-1.50409 0.31167,-0.0694 0.47091,0.63362 0.75462,1.15203 0.63048,1.15203 -0.12415,0 -0.54811,-0.48717 -0.94215,-1.08261 z m -60.72594,-0.99444 c 0.0211,-0.32195 2.08225,-2.53219 2.22668,-2.38777 0.0791,0.0791 -0.3921,0.68737 -1.04708,1.35174 -0.65498,0.66436 -1.1858,1.13058 -1.1796,1.03603 z m 10.7272,-4.722 c 0.86055,-1.01472 1.6058,-1.8135 1.65609,-1.77508 0.1331,0.10169 -2.6299,3.39591 -2.95017,3.51739 -0.14882,0.0564 0.43352,-0.7276 1.29408,-1.74231 z m -12.62676,-1.11379 c 0.74752,-1.07785 1.35912,-2.0711 1.35912,-2.20723 0,-0.39997 0.97231,-1.51942 1.15823,-1.3335 0.0936,0.0936 0.31775,-0.0186 0.49815,-0.24923 0.18039,-0.23067 1.25515,-1.54889 2.38834,-2.92938 1.13319,-1.3805 2.10512,-2.74253 2.15986,-3.02673 0.14101,-0.73225 1.77033,-2.97858 2.16042,-2.97858 0.47287,0 1.98058,-1.33004 1.81373,-1.6 -0.0778,-0.12586 0.16002,-0.42636 0.52846,-0.66777 0.36844,-0.24141 0.66989,-0.63687 0.66989,-0.87879 0,-0.66364 0.80027,-1.670057 1.2046,-1.514901 0.2199,0.08438 0.30364,2.77e-4 0.2191,-0.220047 -0.0753,-0.196151 -0.011,-0.434396 0.14273,-0.529434 0.17015,-0.10516 0.21792,-0.01207 0.12202,0.23782 -0.24428,0.636596 0.0774,0.490602 1.01997,-0.462846 0.4749,-0.480404 0.6698,-0.629232 0.4331,-0.330729 -0.88212,1.112475 -16.71521,20.132217 -16.97083,20.386487 -0.1463,0.14552 0.3456,-0.6173 1.09311,-1.69514 z m 9.77459,-0.48768 c 1.19603,-1.42287 2.62881,-2.78241 2.3004,-2.18281 -0.11956,0.21828 -0.49115,0.69453 -0.82577,1.05833 -0.33461,0.36381 -0.92142,1.04842 -1.30401,1.52136 -0.3826,0.47294 -0.8152,0.85989 -0.96133,0.85989 -0.14614,0 0.20968,-0.56554 0.79071,-1.25677 z m -11.84494,-0.99218 c 0.009,-0.32668 1.02279,-1.56946 1.16341,-1.42655 0.0561,0.057 -0.18443,0.46082 -0.53447,0.89738 -0.35004,0.43656 -0.63306,0.67469 -0.62894,0.52917 z m 15.07113,-2.64584 c 0.34178,-0.3638 0.68094,-0.66146 0.7537,-0.66146 0.0728,0 -0.14734,0.29766 -0.48911,0.66146 -0.34178,0.36381 -0.68094,0.66146 -0.7537,0.66146 -0.0728,0 0.14734,-0.29765 0.48911,-0.66146 z m -11.36211,-2.28448 c 0.96952,-1.38411 3.25061,-3.93322 3.51968,-3.93322 0.13306,0 -0.29741,0.57659 -0.9566,1.28132 -0.65919,0.70473 -1.39109,1.6537 -1.62644,2.10882 -0.23536,0.45513 -0.68273,0.96387 -0.99417,1.13055 -0.55062,0.29468 -0.54904,0.27848 0.0575,-0.58747 z m 69.04128,0.30011 c 0,-0.14552 0.12609,-0.26459 0.2802,-0.26459 0.15411,0 0.20661,0.11907 0.11667,0.26459 -0.0899,0.14552 -0.21602,0.26458 -0.2802,0.26458 -0.0642,0 -0.11667,-0.11906 -0.11667,-0.26458 z m -53.18125,-15.610418 c 0.15576,-0.291042 0.34273,-0.529167 0.41549,-0.529167 0.0728,0 0.005,0.238125 -0.15091,0.529167 -0.15576,0.291042 -0.34273,0.529167 -0.41549,0.529167 -0.0728,0 -0.005,-0.238125 0.15091,-0.529167 z m 2.64583,-0.132292 c 0.34178,-0.363802 0.68094,-0.661458 0.7537,-0.661458 0.0728,0 -0.14734,0.297656 -0.48911,0.661458 -0.34178,0.363802 -0.68094,0.661459 -0.7537,0.661459 -0.0728,0 0.14734,-0.297657 0.48911,-0.661459 z m -1.50435,-0.308131 c 0.10161,-0.169472 0.0607,-0.349491 -0.091,-0.400043 -0.15166,-0.05055 0.21787,-0.566736 0.82118,-1.147077 l 1.09691,-1.055165 -0.5389,1.076033 c -0.2964,0.591818 -0.74906,1.246662 -1.00591,1.455208 -0.25685,0.208546 -0.38388,0.240516 -0.28228,0.07104 z m 3.07183,-4.153877 c 0.35279,-0.383552 0.75432,-0.697367 0.89229,-0.697367 0.35511,0 -0.32489,0.767093 -0.9828,1.108687 -0.49161,0.25525 -0.48187,0.210965 0.0905,-0.41132 z m 72.68925,-21.996328 c -0.1122,-0.43656 -0.3238,-1.32327 -0.4702,-1.97047 -0.9128,-4.03373 -4.085,-7.33238 -8.1699,-8.49537 -1.2765,-0.36346 -1.7821,-0.67253 -1.5233,-0.93131 0.2282,-0.22821 2.9884,0.61057 4.4553,1.3539 1.3788,0.6987 3.4153,2.61882 4.3531,4.10439 0.8585,1.36002 1.7645,4.4924 1.6524,5.71346 l -0.093,1.01915 z m -19.0911,-1.71462 c -1.74625,-0.99219 -3.2643,-1.74941 -3.37344,-1.68271 -0.10914,0.0667 -0.19844,0.4119 -0.19844,0.76712 0,0.35521 -0.14866,0.64584 -0.33035,0.64584 -0.34563,0 -3.75998,-3.49685 -4.19805,-4.29948 -0.54116,-0.99151 0.37964,-0.41443 1.89979,1.19062 1.44896,1.52989 1.57853,1.6091 1.73137,1.05834 0.0909,-0.32742 0.26939,-0.59531 0.39671,-0.59531 0.12733,0 1.70531,0.83343 3.50662,1.85208 4.53615,2.56521 4.73753,2.5027 2.31118,-0.71732 -2.80426,-3.72152 -4.91276,-5.33267 -7.75592,-5.92644 -2.0463,-0.42735 -2.27982,-0.85235 -0.33947,-0.61784 2.99905,0.36245 4.9158,1.39989 7.12381,3.85573 1.34619,1.49729 3.18497,4.46675 3.47057,5.60465 0.15688,0.62506 0.10269,0.70902 -0.44539,0.69017 -0.3432,-0.0118 -2.05274,-0.83326 -3.79899,-1.82545 z m -76.16062,-1.90463 c -0.67654,-2.52637 0.67452,-8.42596 2.41284,-10.53596 1.00761,-1.22305 0.94369,-0.29016 -0.14023,2.04662 -1.40171,3.02189 -2.44383,8.00755 -1.67376,8.00755 0.13275,0 0.77669,-0.74414 1.43098,-1.65364 1.36452,-1.89677 3.61933,-4.1805 3.61933,-3.66574 0,0.39481 -2.86622,3.88456 -4.43868,5.4043 -1.02794,0.99347 -1.04888,1.00034 -1.21048,0.39687 z m -2.55271,-7.16252 c 3e-4,-0.86988 1.31943,-3.51632 3.01534,-6.04941 0.8153,-1.21776 1.48236,-2.364 1.48236,-2.54719 0,-0.1832 0.11907,-0.33309 0.26459,-0.33309 0.44915,0 0.30713,0.35287 -0.96332,2.39342 -1.25011,2.00789 -3.00543,5.54484 -3.00543,6.05591 0,0.41997 0.55453,0.34098 1.10526,-0.15743 0.26702,-0.24164 0.57405,-0.35057 0.6823,-0.24207 0.30998,0.3107 -1.21716,1.47517 -1.93461,1.47517 -0.49433,0 -0.64665,-0.14026 -0.64649,-0.59531 z m -27.65131,-7.67292 c 0.0912,-0.32742 0.63089,-1.54781 1.19932,-2.71198 2.73952,-5.61071 6.39634,-9.72669 10.50937,-11.828953 1.33379,-0.68174 2.84632,-1.31854 3.36117,-1.41513 1.18351,-0.22203 2.26249,0.0399 2.26249,0.54913 0,0.46715 -0.0579,0.47465 -0.85638,0.11085 -0.48781,-0.22227 -0.98759,-0.14636 -2.39146,0.36322 -5.02655,1.824543 -8.3145,5.132893 -12.24498,12.320963 -1.72872,3.16148 -2.16524,3.78129 -1.83953,2.6119 z m 35.38627,-2.71913 c 0.85229,-0.79243 1.78983,-1.20532 1.78983,-0.78826 0,0.22088 -2.17769,1.72191 -2.4871,1.7143 -0.16006,-0.004 0.15371,-0.42066 0.69727,-0.92604 z M 720.98568,-102.3981 c -0.366,-0.441 0.0562,-1.95861 1.34593,-4.83823 0.40736,-0.90951 0.64055,-1.65365 0.51821,-1.65365 -0.12234,0 -1.69494,0.70985 -3.49466,1.57743 -3.85012,1.85602 -6.00272,2.49693 -7.04953,2.09893 -0.88617,-0.33692 -1.10831,-0.67975 -1.11344,-1.71843 -0.0114,-2.31427 3.81089,-5.22049 9.01528,-6.85458 1.22401,-0.38431 2.40406,-0.75798 2.62234,-0.83036 0.33353,-0.11061 0.32017,-0.18809 -0.0838,-0.4855 -0.76785,-0.56535 -3.64658,-0.95178 -8.90897,-1.19589 -5.43979,-0.25235 -7.2389,-0.55185 -8.52624,-1.41938 -0.76546,-0.51585 -0.86956,-0.72728 -0.86956,-1.76609 0,-1.12193 0.0551,-1.20792 1.11871,-1.74493 2.66665,-1.3464 13.42804,-1.56499 18.19587,-0.36959 2.302,0.57716 5.02686,1.71361 7.07257,2.94974 0.54294,0.32807 1.0735,0.51016 1.17902,0.40463 0.35855,-0.35855 -0.8376,-2.14977 -2.58777,-3.87514 -2.04762,-2.01861 -2.35653,-2.52886 -2.35653,-3.89249 0,-2.00488 1.48667,-2.85083 3.84812,-2.18966 1.30479,0.36531 6.23925,3.48718 7.23624,4.57813 0.66047,0.7227 1.06196,2.87803 0.70796,3.80054 -0.27191,0.70859 -0.67074,-0.069 -0.67577,-1.31748 -0.007,-1.65968 -0.60435,-2.40025 -3.43262,-4.25336 -3.41429,-2.23707 -4.03563,-2.54736 -5.0911,-2.54247 -1.03347,0.005 -1.344,0.18168 -1.78369,1.016 -0.61144,1.16023 -0.14464,2.1915 1.88164,4.15694 1.34819,1.30771 2.10786,2.30931 2.64558,3.48812 0.41488,0.9095 0.86482,1.65364 0.99986,1.65364 0.13505,0 0.57771,-1.01996 0.98368,-2.26657 1.03121,-3.16647 1.08067,-2.35247 0.0828,1.36169 -0.76263,2.83843 -0.98438,3.87234 -1.03442,4.8231 -0.01,0.19049 -0.15095,0.26432 -0.31317,0.16406 -0.1803,-0.11143 -0.24743,-0.67679 -0.17271,-1.45445 0.0672,-0.69969 0.0511,-1.3761 -0.0358,-1.50314 -0.2136,-0.3122 -2.9569,-1.93599 -4.98028,-2.94789 -4.12657,-2.0637 -8.60574,-2.85683 -14.62462,-2.58956 -3.7387,0.16601 -6.3487,0.52897 -7.32474,1.01861 -0.31783,0.15944 -0.71893,0.63046 -0.89135,1.04671 -0.25849,0.62405 -0.23846,0.87132 0.11414,1.40945 0.6008,0.91695 1.785,1.16147 7.06598,1.45902 2.53431,0.1428 5.38175,0.32848 6.32763,0.41262 1.60809,0.14305 5.92736,1.06949 6.45392,1.3843 0.35782,0.21392 -0.77838,0.73057 -4.46912,2.03219 -1.84448,0.6505 -3.90882,1.50095 -4.58742,1.88989 -2.13986,1.22646 -4.01196,3.29996 -4.01196,4.44356 0,0.59714 0.75612,1.22266 1.47794,1.22266 0.91634,0 4.84675,-1.63141 7.35749,-3.0539 3.64304,-2.06402 4.03834,-1.65812 2.15434,2.21209 -0.6601,1.35601 -1.20019,2.69546 -1.20019,2.97656 0,0.84861 0.95361,0.60986 3.35312,-0.83951 1.22978,-0.74282 2.2957,-1.29087 2.36869,-1.21787 0.21976,0.21976 -2.19638,2.12125 -3.67661,2.89347 -1.56072,0.81422 -2.36123,0.91207 -2.83099,0.34604 z m -22.76212,-0.24106 c 0,-0.48915 2.26098,-3.44587 3.70085,-4.83965 1.8308,-1.7722 4.43424,-3.44165 5.75289,-3.68903 1.13921,-0.21372 2.18792,0.24129 2.18792,0.94927 0,0.61783 -0.47505,0.71913 -0.6942,0.14804 -0.53562,-1.3958 -3.65496,0.0305 -6.7956,3.10717 -1.22078,1.19594 -2.65436,2.70187 -3.18573,3.34653 -0.53137,0.64466 -0.96613,1.08461 -0.96613,0.97767 z m 83.35598,-1.81905 c -0.48576,-1.37352 -0.6418,-4.95563 -0.30326,-6.96185 0.17036,-1.00955 0.86579,-4.1283 1.54541,-6.93055 1.41554,-5.83667 1.42522,-5.63417 -0.47062,-9.84456 -0.83909,-1.86351 -1.39606,-2.689 -2.54825,-3.77675 -3.48324,-3.28848 -6.18954,-8.60946 -4.82493,-9.48654 0.88495,-0.56879 3.53788,0.64667 4.96895,2.27657 0.94993,1.08191 0.9978,1.02029 1.171,-1.50723 0.27857,-4.06527 2.8576,-6.15255 4.42562,-3.58178 0.49866,0.81756 1.35577,3.22354 1.69407,4.7554 0.22352,1.0121 0.53128,0.91107 1.20904,-0.39687 1.4583,-2.8142 4.06397,-4.83494 5.43121,-4.21198 0.90109,0.41056 1.52118,1.78918 1.61186,3.5836 0.0432,0.85494 0.13618,1.61207 0.20662,1.68251 0.0704,0.0704 0.5141,-0.1468 0.9859,-0.48275 1.16854,-0.83207 3.72672,-1.04046 4.47373,-0.36442 0.81676,0.73916 0.69429,2.41536 -0.28443,3.89296 -0.94289,1.42351 -3.3367,3.45047 -5.72329,4.8462 -2.01148,1.17636 -2.17058,1.37062 -1.30126,1.5888 0.88799,0.22287 4.00853,-1.45095 5.89407,-3.16152 0.78311,-0.71043 1.48888,-1.22665 1.56839,-1.14714 0.55328,0.55329 -2.37986,2.99442 -5.36186,4.46245 -1.57923,0.77745 -1.79402,0.81966 -2.63086,0.51706 -0.71704,-0.25929 -1.11742,-0.26147 -1.87867,-0.0102 -0.93838,0.3097 -4.73328,0.2036 -6.68585,-0.18691 -0.75304,-0.15061 -0.80357,-0.1105 -0.80357,0.63781 0,0.43918 0.18341,1.68543 0.40759,2.76943 0.45381,2.19441 0.52265,1.72805 -1.22106,8.27215 -1.11883,4.19892 -1.12818,4.27151 -1.14946,8.92952 -0.0118,2.58291 -0.0396,4.69626 -0.0617,4.69636 -0.0222,9e-5 -0.17712,-0.38679 -0.34438,-0.85974 z m 1.83985,-24.81299 c 0,-0.29561 -0.18373,-0.60797 -0.40829,-0.69414 -0.5528,-0.21213 -0.73339,0.023 -0.52408,0.68251 0.22423,0.70649 0.93237,0.71532 0.93237,0.0116 z m 11.31213,-2.15702 c 4.11935,-2.72356 6.21651,-4.91068 6.21651,-6.48318 0,-1.50457 -1.76522,-1.82568 -3.97707,-0.72346 -1.67865,0.8365 -3.30352,2.60425 -4.64095,5.04903 -0.55619,1.01669 -1.30749,2.19691 -1.66956,2.62271 l -0.6583,0.77419 0.17088,-1.0492 c 0.22661,-1.39128 0.6912,-2.25483 2.53386,-4.70977 2.25306,-3.00171 2.61444,-5.0677 1.17845,-6.73714 -0.61223,-0.71176 -0.63838,-0.7169 -1.51712,-0.29785 -3.10897,1.48257 -4.69716,4.63318 -4.71542,9.35437 -0.008,2.03084 -0.2848,3.11076 -0.69307,2.7025 -0.10593,-0.10593 -0.21565,-2.00834 -0.24384,-4.22758 -0.0282,-2.21924 -0.13938,-4.45084 -0.24711,-4.95911 -0.32847,-1.54978 -1.7362,-3.95921 -2.41235,-4.12891 -0.84589,-0.21231 -1.12864,0.0294 -1.85227,1.58354 -0.49164,1.05588 -0.63226,1.80601 -0.63427,3.38358 -0.003,2.08851 0.17544,2.59538 2.85095,8.11382 0.53139,1.09603 1.61469,1.69281 3.49646,1.92616 2.66039,0.32989 3.31702,0.11851 6.81422,-2.1937 z m -11.31213,0.50365 c 0,-0.17107 -1.84424,-4.42944 -2.3346,-5.39064 -1.18212,-2.31714 -4.17664,-4.88868 -5.22454,-4.48656 -1.15786,0.44431 0.9384,4.9005 3.51943,7.48153 1.4057,1.4057 4.03971,2.96775 4.03971,2.39567 z m 0.70797,25.03562 c -0.4412,-0.4412 -0.0238,-1.17266 1.91446,-3.35474 2.80444,-3.15729 3.46298,-4.50094 3.46298,-7.06569 0,-3.30784 -1.16393,-4.03177 -2.58787,-1.60958 -0.67646,1.15071 -0.71616,1.39606 -0.66493,4.10931 0.0646,3.42144 -0.41273,3.56748 -0.64375,0.19694 -0.18069,-2.6361 0.23034,-4.2597 1.38951,-5.48879 1.78396,-1.89155 3.13199,-0.84929 3.22042,2.48995 0.0286,1.07826 0.12146,2.03002 0.20646,2.11502 0.085,0.085 0.92186,-0.67154 1.85971,-1.68119 l 1.70516,-1.83573 -0.0304,-3.44613 c -0.0263,-2.98707 0.0416,-3.58656 0.51002,-4.50025 0.69241,-1.35065 1.73272,-2.32004 2.35422,-2.19371 0.42317,0.086 0.47931,0.33927 0.43058,1.94217 -0.0308,1.0138 -0.23078,2.49811 -0.44434,3.29848 -0.21355,0.80036 -0.29826,1.54769 -0.18822,1.66072 0.11003,0.11304 0.84576,-0.54181 1.63495,-1.45521 0.7892,-0.9134 2.65529,-2.9315 4.14688,-4.48468 3.18956,-3.32126 3.10518,-2.96071 1.88679,-8.06261 -0.92749,-3.88379 -0.90346,-5.23415 0.1202,-6.75315 0.70961,-1.053 1.34833,-1.22879 2.08411,-0.57358 1.66418,1.48196 1.67173,5.70235 0.0168,9.4214 -0.37367,0.83977 -0.60816,1.5981 -0.52108,1.68518 0.31929,0.31929 3.31756,-2.4776 4.86147,-4.53495 2.11605,-2.81976 1.99092,-2.4964 2.08399,-5.38529 0.0923,-2.86551 0.57273,-4.95671 1.69052,-7.35851 0.8174,-1.75635 1.539,-2.34465 2.5613,-2.08806 1.0495,0.2634 1.2441,1.08649 0.7815,3.30511 -0.4923,2.36097 -1.6062,4.81417 -3.2002,7.04806 -0.6528,0.9147 -1.1868,1.79059 -1.1868,1.94642 0,0.36336 0.4459,0.36754 0.6692,0.006 0.094,-0.15238 1.5597,-1.41725 3.2567,-2.81082 4.3842,-3.60018 4.2753,-3.45454 4.2808,-5.72429 0.012,-5.17368 2.4328,-9.97326 5.0292,-9.97326 1.0488,0 1.4582,0.65239 1.3901,2.21528 -0.085,1.95679 -1.3059,4.20502 -3.6881,6.79205 -1.1179,1.21401 -1.9057,2.24958 -1.7507,2.30126 0.1551,0.0517 1.0982,-0.43257 2.0958,-1.07611 0.9976,-0.64355 2.8259,-1.67615 4.0628,-2.29467 3.19643,-1.59836 3.57323,-1.91867 5.17253,-4.39792 2.4692,-3.82745 5.2315,-5.9314 6.7327,-5.12798 1.1354,0.60763 0.5136,1.70487 -2.6447,4.6672 -1.3292,1.24666 -2.7925,2.28417 -4.4318,3.14211 -1.3461,0.70448 -2.4474,1.3637 -2.4474,1.46492 0,0.10122 0.6175,0.24337 1.3722,0.31589 2.9677,0.28515 3.191,2.99039 0.3476,4.2092 -0.5278,0.22623 -2.3452,0.35741 -5.42403,0.39149 -2.5466,0.0282 -4.7672,0.0616 -4.9347,0.0743 -0.3294,0.0249 -6.9395,5.10139 -9.41892,7.23369 -1.35322,1.16375 -1.91832,2.04973 -1.30735,2.04973 0.1177,0 0.92137,-0.43215 1.78597,-0.96035 0.8645,-0.52819 1.9291,-1.17381 2.3656,-1.4347 1.4442,-0.86304 6.2186,-2.36745 7.5134,-2.36745 4.0969,0 1.0754,3.83045 -4.0632,5.151 -0.9781,0.25136 -2.7867,0.40789 -4.7625,0.41219 -3.92415,0.009 -4.38019,0.19506 -7.26818,2.9724 -2.27969,2.19234 -2.60223,2.75347 -1.40749,2.44863 5.26463,-1.3433 8.00827,-1.18076 8.00117,0.47402 0,0.95352 -1.52405,3.31094 -2.66997,4.14104 -2.18638,1.58381 -5.64469,2.10705 -9.92795,1.50211 l -1.62019,-0.22883 -2.08398,2.08862 c -2.41312,2.4185 -8.33866,9.10699 -10.62682,11.99507 -1.81133,2.28625 -2.7975,3.25584 -3.05231,3.00104 z m 11.34997,-14.31813 c 0.10025,-0.68783 0.39794,-1.96498 0.66154,-2.83811 0.58638,-1.9423 0.7607,-4.13589 0.34044,-4.28399 -0.52687,-0.18568 -1.4225,1.65938 -1.82392,3.75741 -0.45665,2.3867 -0.48299,3.28522 -0.124,4.22945 0.36384,0.95697 0.7291,0.62305 0.94594,-0.86476 z m 12.78647,-3.25403 c 2.84598,-0.61035 5.8269,-3.93225 4.61561,-5.14355 -0.65193,-0.65192 -3.81558,-0.40188 -6.69738,0.52933 -2.00627,0.6483 -2.40041,0.88998 -3.77031,2.31188 -1.65906,1.72204 -1.85387,2.22217 -0.93452,2.39925 1.23124,0.23715 5.51411,0.17599 6.7866,-0.0969 z m -1.72562,-11.23384 c 0.77533,-2.45961 0.85615,-4.84003 0.21365,-6.2925 -0.94334,-2.13258 -2.06414,-1.53686 -2.35177,1.25001 -0.17125,1.6592 0.83447,6.5058 1.35002,6.5058 0.17976,0 0.53441,-0.65849 0.7881,-1.46331 z m 11.44822,-0.37107 c 2.1901,-0.41533 4.2264,-1.31148 5.4294,-2.38938 1.0633,-0.95267 1.1151,-1.05906 0.7152,-1.46915 -0.4027,-0.41289 -0.5656,-0.40524 -2.4648,0.11581 -1.1185,0.30686 -2.7667,0.86646 -3.6626,1.24355 -1.7451,0.73448 -4.1571,2.21021 -4.1571,2.54337 0,0.28133 2.568,0.25391 4.1399,-0.0442 z m -2.3796,-8.0861 c 1.3461,-2.57116 2.1251,-5.23131 1.8165,-6.20345 -0.386,-1.21609 -1.5387,-0.61336 -2.5252,1.32039 -0.295,0.5782 -0.7111,2.21076 -0.9247,3.62792 -0.74458,4.93968 -0.4245,5.18568 1.6334,1.25514 z m 15.95203,-1.98298 c 1.7084,-0.32398 2.9252,-1.14462 2.9252,-1.97279 0,-1.03002 -0.5913,-1.27023 -2.8718,-1.16666 -1.8429,0.0837 -2.35623,0.23074 -4.37073,1.25219 -2.2189,1.12511 -2.7681,1.71876 -1.8195,1.96667 0.8843,0.2311 4.76423,0.1809 6.13683,-0.0794 z m -6.96333,-3.97722 c 2.1826,-2.54871 3.5886,-6.32788 2.6455,-7.11058 -0.5809,-0.48214 -1.9196,0.32028 -2.8478,1.70698 -0.9146,1.36633 -1.8155,4.3336 -1.8155,5.97946 0,1.58885 0.2171,1.5269 2.0178,-0.57586 z m 13.77233,-5.92637 c 1.2998,-1.26237 2.2163,-2.35832 2.1468,-2.56713 -0.212,-0.63662 -1.008,-0.56553 -2.0939,0.18702 -1.1186,0.77514 -4.462,4.77502 -4.4644,5.34097 0,0.67969 2.1525,-0.767 4.4115,-2.96086 z m -60.58374,47.56897 c -0.10204,-0.10204 -0.18553,-0.37618 -0.18553,-0.60919 0,-0.73855 -1.25614,-2.30658 -2.21062,-2.75951 -1.20291,-0.57082 -2.2873,-0.22361 -2.2873,0.73237 0,0.87173 0.59119,1.40852 1.93013,1.7525 1.70657,0.43843 1.73636,0.47857 0.37183,0.50102 -1.57803,0.026 -2.6583,-0.51062 -3.0806,-1.53013 -0.53264,-1.28591 0.38924,-2.41773 1.96926,-2.41773 0.8892,0 1.63411,0.38635 2.71198,1.40656 l 0.8599,0.81391 v -1.06361 c 0,-3.26832 -2.39945,-13.18359 -4.40975,-18.22249 -2.65343,-6.65092 -6.56588,-13.92989 -9.27527,-17.25629 -0.64313,-0.78959 -0.94278,-1.31437 -0.66588,-1.16618 0.60402,0.32326 2.53247,2.56907 3.77745,4.3991 1.24594,1.83144 6.07303,11.42317 7.12392,14.15566 1.74227,4.53022 4.11701,15.33506 4.30118,19.56996 0.0597,1.37186 -0.007,1.72731 -0.33539,1.79508 -0.22537,0.0465 -0.49326,0.001 -0.59531,-0.10103 z m -49.9272,-2.34828 c -1.01775,-1.09206 -2.03857,-1.50165 -3.85171,-1.54543 -2.00176,-0.0483 -2.41625,-0.31047 -0.85687,-0.54194 2.31716,-0.34395 5.7118,1.11215 5.46216,2.34294 -0.078,0.38458 -0.1935,0.34541 -0.75358,-0.25557 z m 35.61914,-1.59575 c -0.25531,-0.66534 -0.18,-0.83702 0.13191,-0.30065 0.15443,0.26557 0.22505,0.5386 0.15693,0.60672 -0.0681,0.0681 -0.1981,-0.0696 -0.28884,-0.30607 z m 58.43637,-4.36165 c -0.2821,-0.45644 2.0787,-1.30859 7.3773,-2.66295 7.23473,-1.84921 8.80283,-2.10673 12.89963,-2.11849 3.8781,-0.0111 5.988,0.26265 8.6988,1.12873 1.7897,0.57178 2.8961,1.20083 1.3051,0.74198 -3.38,-0.97478 -9.1951,-1.45682 -12.9163,-1.07071 -4.3216,0.44841 -13.68063,2.70395 -15.82613,3.81414 -0.9813,0.50771 -1.3062,0.54305 -1.5384,0.1673 z m 5.4278,-0.11673 c 0,-0.22979 0.2298,-0.40618 0.5292,-0.40618 0.291,0 0.5291,0.0553 0.5291,0.12298 0,0.0676 -0.2381,0.25043 -0.5291,0.40619 -0.4224,0.22603 -0.5292,0.20121 -0.5292,-0.12299 z m -11.8969,-0.60462 c 0.04,-0.84451 2.865,-3.56973 5.4146,-5.22313 7.666,-4.97143 19.60493,-7.29307 25.78743,-5.01466 1.2729,0.46911 0.6108,0.45815 -2.3718,-0.0393 -5.9451,-0.99148 -13.1682,0.56699 -20.75933,4.47902 -2.5848,1.3321 -3.5847,2.03068 -5.4585,3.81365 -2.1986,2.09205 -2.633,2.42207 -2.6124,1.98437 z m -36.77444,-0.7276 c -10e-4,-0.14552 0.35268,-0.78852 0.78659,-1.42888 0.87365,-1.2893 1.01266,-2.4217 0.36343,-2.96051 -0.36152,-0.30004 -0.48087,-0.27742 -0.79375,0.15047 -0.20253,0.27698 -0.36824,0.76876 -0.36824,1.09285 0,0.82121 -0.27477,1.45121 -0.55689,1.27685 -0.13027,-0.0805 -0.23686,-0.59955 -0.23686,-1.15342 0,-1.32609 0.83233,-2.40132 1.85885,-2.40132 0.64589,0 0.8011,0.14122 1.0178,0.92604 0.35032,1.26874 -0.0609,2.60385 -1.16904,3.7953 -0.49475,0.53196 -0.9006,0.84814 -0.90189,0.70262 z m 6.60261,-4.7308 c 0,-0.56537 3.31486,-5.10571 3.99236,-5.46829 0.27806,-0.14882 0.50556,-0.19411 0.50556,-0.10067 0,0.29375 -3.35032,4.98359 -3.93773,5.51212 -0.50354,0.45306 -0.56019,0.4588 -0.56019,0.0568 z m -38.89375,-1.07089 c 0,-1.01586 -0.70454,-4.54314 -1.19617,-5.98859 -1.93029,-5.67528 -6.89859,-12.47919 -11.89681,-16.29225 -3.47524,-2.6512 -5.32068,-3.0921 -9.89293,-2.36354 -1.5099,0.24059 -2.79822,0.38451 -2.86291,0.31981 -0.17156,-0.17155 3.2646,-0.91909 5.09535,-1.1085 2.27424,-0.23529 2.39542,-0.29371 1.85291,-0.89317 -0.79331,-0.87659 -2.90069,-1.59113 -5.21748,-1.76906 -1.92228,-0.14762 -4.02617,0.008 -7.89654,0.58431 -0.63695,0.0948 -0.80214,0.0606 -0.52917,-0.10974 0.57793,-0.36058 3.42064,-0.78059 6.69199,-0.98875 1.92369,-0.12241 2.8265,-0.27906 2.76658,-0.48006 -0.14316,-0.48018 -6.22416,-3.51055 -8.53252,-4.25206 -1.16417,-0.37395 -3.18823,-0.82798 -4.49792,-1.00894 -1.86901,-0.25824 -2.15359,-0.34814 -1.32292,-0.41791 1.44707,-0.12153 4.56832,0.40602 6.70013,1.13244 2.21698,0.75546 6.32285,2.80893 8.30046,4.15132 1.43579,0.97461 2.06504,1.23288 2.06504,0.84756 0,-0.69829 -4.60786,-7.0865 -6.74401,-9.34972 -1.03012,-1.09141 -2.14979,-2.37819 -2.48813,-2.85951 -1.14058,-1.62256 -0.37704,-1.14054 1.47764,0.93283 4.14466,4.63337 6.38719,7.50007 7.99939,10.22589 1.24626,2.10708 2.05735,3.15681 3.03831,3.93221 1.5707,1.24158 2.51021,1.66017 2.88498,1.28539 0.31803,-0.31803 -1.07888,-4.40506 -3.29462,-9.63926 -1.64995,-3.89766 -1.68214,-3.99005 -1.30984,-3.75995 0.65699,0.40604 2.32662,4.1424 4.01713,8.98969 1.97353,5.65885 1.99302,5.69257 4.51836,7.81962 0.53409,0.44986 1.02725,0.72464 1.09591,0.61061 0.0687,-0.11402 -0.39571,-2.94575 -1.03193,-6.29273 -1.51928,-7.99256 -1.52648,-8.03814 -1.18482,-7.50201 0.51753,0.8121 1.59387,5.34709 2.14814,9.05083 0.62942,4.20594 1.30687,6.30277 2.70647,8.37704 1.58721,2.35232 1.93959,2.73638 2.30402,2.51115 0.26204,-0.16195 0.29618,-1.44682 0.1574,-5.92503 -0.0975,-3.14503 -0.23688,-6.07542 -0.30981,-6.51198 -0.10937,-0.65464 -0.0817,-0.71229 0.15765,-0.32891 0.40503,0.64866 0.78167,5.65349 0.78678,10.45509 l 0.004,4.04077 1.02776,2.04465 c 1.11535,2.21891 2.4094,5.72187 2.9318,7.9363 0.33424,1.4168 0.21009,2.70731 -0.26043,2.70731 -0.14275,0 -0.25955,-0.0509 -0.25955,-0.11315 z m 43.37844,-2.67552 c 0.69038,-0.93329 1.69544,-1.97383 1.90651,-1.97383 0.44159,0 -0.12395,0.77123 -1.18204,1.61196 -0.60946,0.48427 -0.93548,0.64711 -0.72447,0.36187 z m -67.03531,-4.06125 c -2.12157,-2.659 -4.07676,-3.83485 -7.96083,-4.78765 l -1.05834,-0.25961 1.12401,0.13081 c 2.09274,0.24354 5.06918,1.36531 6.49119,2.44642 1.28668,0.97821 3.36626,3.85064 3.03072,4.18618 -0.0788,0.0788 -0.8108,-0.69351 -1.62675,-1.71615 z m 9.89808,-5.23777 c 1.71899,-0.74818 4.17661,-1.12304 5.71799,-0.87218 1.66736,0.27137 1.95539,0.41168 1.95539,0.95255 0,0.21829 -0.10155,0.33412 -0.22567,0.25741 -0.12411,-0.0767 -1.05577,-0.26826 -2.07034,-0.42568 -1.48887,-0.231 -2.22359,-0.20716 -3.80923,0.12364 -2.39688,0.50004 -2.77911,0.49133 -1.56814,-0.0357 z m -21.22761,-0.0103 c 0.47555,-0.0589 1.18992,-0.0577 1.5875,0.003 0.39757,0.0604 0.008,0.10855 -0.86464,0.10706 -0.87312,-10e-4 -1.19841,-0.0509 -0.72286,-0.10976 z m 54.34533,-0.31406 c -1.49795,-0.12018 -2.02549,-0.27268 -2.3151,-0.66924 -0.51998,-0.712 -0.46873,-1.37714 0.15409,-1.99995 0.62794,-0.62795 1.27813,-0.66553 2.52204,-0.1458 1.38283,0.57779 1.13517,0.92377 -0.53767,0.75112 -1.35052,-0.13938 -1.4552,-0.11013 -1.4552,0.40669 0,0.73097 0.74756,1.10465 2.20992,1.10465 0.65251,0 1.37471,0.0723 1.60489,0.1606 0.49554,0.19016 0.56422,0.652 0.0878,0.59037 -0.1819,-0.0235 -1.20374,-0.11282 -2.27076,-0.19844 z m -38.6385,-2.80421 c 2.16867,-1.17833 7.72206,-2.17872 9.86514,-1.77712 2.09184,0.39201 1.24225,0.72138 -1.89662,0.73529 -2.54169,0.0113 -3.57374,0.14399 -5.65801,0.72761 -2.86085,0.80107 -3.32196,0.86378 -2.31051,0.31422 z m 34.22853,-0.67668 c -0.61906,-0.39653 -1.27705,-0.50874 -2.9897,-0.50983 -2.28567,-0.001 -3.54706,-0.39512 -3.8574,-1.20387 -0.46933,-1.22305 0.0306,-2.63881 1.38715,-3.9284 0.92336,-0.87777 2.98029,-1.23822 3.98808,-0.69887 0.62494,0.33445 1.86181,2.69901 1.86616,3.56756 0.004,0.75786 -0.51315,0.16373 -1.32033,-1.51744 -0.77842,-1.62129 -1.55732,-2.11643 -2.70173,-1.71749 -0.98239,0.34247 -2.32535,2.15952 -2.32535,3.14626 0,0.96243 0.46256,1.18551 2.9239,1.41009 1.99141,0.18171 3.92107,0.9565 4.15518,1.66837 0.1483,0.45095 -0.18377,0.38713 -1.12596,-0.21638 z m -39.55521,-3.37707 c 0.21829,-0.13491 1.34938,-0.58552 2.51355,-1.00136 1.8371,-0.6562 2.50106,-0.75652 5.02708,-0.75953 2.52339,-0.003 3.05995,0.0764 4.03489,0.59722 0.61847,0.33038 1.12448,0.77687 1.12448,0.99219 0,0.50563 -0.0541,0.49781 -1.18879,-0.17165 -0.70943,-0.41857 -1.55871,-0.59759 -3.30824,-0.69735 -2.24802,-0.12817 -3.27408,0.0193 -8.07067,1.15993 -0.41132,0.0978 -0.44078,0.0712 -0.1323,-0.11945 z m 47.09604,-4.14508 c -0.58113,-1.52847 1.25415,-7.01199 2.34683,-7.01199 0.87267,0 1.35756,0.86193 1.35132,2.40209 -0.007,1.6581 -0.61838,3.17359 -1.78028,4.41093 -0.96717,1.02997 -1.57784,1.09332 -1.91787,0.19897 z m 1.51023,-0.99272 c 1.5884,-1.73715 2.14628,-5.14088 0.7551,-4.60703 -0.65074,0.24971 -1.73082,2.79007 -1.73378,4.07787 -0.003,1.27348 0.19851,1.38239 0.97868,0.52916 z m -5.22115,-0.34795 c -0.14192,-0.37327 -0.25803,-1.36905 -0.25803,-2.21284 0,-3.49169 -1.19993,-6.73441 -3.33768,-9.01984 -1.84995,-1.97775 -2.83957,-1.58082 -2.36505,0.94861 0.14724,0.78486 1.17261,2.31983 3.21391,4.81119 1.04036,1.26975 0.28185,1.04413 -1.22347,-0.36392 -1.70417,-1.59406 -2.67669,-3.56995 -2.69379,-5.47304 -0.007,-0.79422 0.0691,-1.57686 0.16946,-1.73921 0.45864,-0.74211 2.16187,-0.0889 3.48309,1.33589 2.00617,2.16338 3.16733,5.39744 3.42794,9.54757 0.17891,2.84908 0.0663,3.43501 -0.41638,2.16559 z m -7.00328,-1.17199 c -0.67165,-0.58131 -1.48256,-1.10532 -1.80203,-1.16448 -0.31947,-0.0592 -1.83083,-0.29171 -3.3586,-0.51678 -2.22584,-0.32792 -2.86981,-0.52293 -3.24114,-0.9815 -0.5917,-0.73071 -0.57967,-1.68728 0.0383,-3.04799 0.68786,-1.51452 1.68482,-2.22816 3.11278,-2.22816 1.76547,0 3.14977,1.50793 4.43913,4.83558 0.54217,1.39927 1.16105,2.68961 1.37529,2.86741 0.41776,0.34671 0.99072,1.29284 0.78292,1.29284 -0.069,0 -0.67504,-0.47561 -1.34669,-1.05692 z m -1.60931,-2.35001 c 0.0788,-0.12756 -0.0377,-0.8417 -0.25906,-1.58697 -0.53171,-1.79046 -2.09705,-3.47276 -3.23131,-3.47276 -1.47043,0 -3.17516,2.29906 -2.68574,3.62209 0.29556,0.79896 0.97212,1.10118 3.06837,1.37062 2.51315,0.32304 2.94377,0.33233 3.10774,0.067 z m 26.1078,0.86655 c -0.60398,-0.76783 -0.90784,-2.0111 -0.77537,-3.17252 0.0657,-0.57566 0.24533,-0.79168 0.71358,-0.85793 0.3442,-0.0487 0.76092,0.0581 0.92604,0.23737 0.23012,0.24983 0.19963,0.29078 -0.13057,0.17537 -1.04104,-0.36384 -1.33286,1.01878 -0.50248,2.38068 1.06611,1.7485 2.8134,1.25126 3.09267,-0.88011 0.17375,-1.32606 -0.70933,-2.70367 -2.02711,-3.16228 -0.77573,-0.26997 -0.84699,-0.35472 -0.43898,-0.52211 0.76042,-0.31197 2.15025,0.49933 2.64634,1.54477 0.80014,1.68617 0.37548,4.34344 -0.76401,4.78071 -1.02014,0.39146 -2.19707,0.16641 -2.74011,-0.52395 z m 8.7135,-2.15597 c 0.008,-0.9453 0.0276,-0.96718 0.41324,-0.46302 0.40424,0.52841 0.40537,0.52842 0.79532,0.002 0.57183,-0.77208 0.37669,-1.60428 -0.35793,-1.52639 -0.7989,0.0847 -0.75381,-0.30236 0.0795,-0.68202 0.92207,-0.42012 1.11501,-0.39028 1.44335,0.22322 0.63802,1.19215 -0.61078,3.43848 -1.91155,3.43848 -0.36856,0 -0.46847,-0.21464 -0.46188,-0.99219 z m -12.86724,-1.85614 c -0.45216,-0.30191 -0.8995,-1.28525 -0.8995,-1.97727 0,-0.85386 1.41241,-3.02067 2.11417,-3.2434 1.25579,-0.39857 2.07981,1.59226 1.29366,3.12545 -0.32121,0.62645 -1.8323,2.30025 -2.07067,2.29366 -0.0806,-0.002 -0.27754,-0.0915 -0.43766,-0.19844 z m 1.76716,-2.2958 c 0.70512,-1.32915 0.54212,-2.05954 -0.49415,-2.21427 -1.03143,-0.15401 -2.12569,2.62195 -1.38524,3.51414 0.47623,0.57382 1.12254,0.1268 1.87939,-1.29987 z m 5.89282,-2.81082 c -0.89034,-0.32936 -1.71572,-1.5781 -1.62705,-2.46163 0.0435,-0.4331 0.22679,-0.83596 0.40739,-0.89525 0.23093,-0.0758 0.28442,0.11444 0.18027,0.64109 -0.29262,1.47975 1.62905,2.55405 2.37476,1.3276 0.23729,-0.39027 0.17374,-0.57631 -0.34119,-0.9988 -0.80402,-0.6597 -0.56283,-0.92831 0.41431,-0.4614 1.77,0.84577 0.44136,3.5327 -1.40849,2.84839 z m -72.67266,-3.79197 c -1.75671,-1.00775 -2.32955,-1.48225 -1.78945,-1.48225 0.40102,0 3.37156,1.75797 3.60282,2.13215 0.27003,0.43691 -0.23327,0.25653 -1.81337,-0.6499 z"
       id="path18" /></g></svg>
